<?xml version="1.0" encoding="utf-8" standalone="no"?>
<!DOCTYPE svg PUBLIC "-//W3C//DTD SVG 1.1//EN"
  "http://www.w3.org/Graphics/SVG/1.1/DTD/svg11.dtd">
<!-- Created with matplotlib (https://matplotlib.org/) -->
<svg height="262.19625pt" version="1.1" viewBox="0 0 386.845312 262.19625" width="386.845312pt" xmlns="http://www.w3.org/2000/svg" xmlns:xlink="http://www.w3.org/1999/xlink">
 <defs>
  <style type="text/css">
*{stroke-linecap:butt;stroke-linejoin:round;}
  </style>
 </defs>
 <g id="figure_1">
  <g id="patch_1">
   <path d="M 0 262.19625 
L 386.845312 262.19625 
L 386.845312 0 
L 0 0 
z
" style="fill:none;"/>
  </g>
  <g id="axes_1">
   <g id="patch_2">
    <path d="M 44.845313 224.64 
L 379.645313 224.64 
L 379.645313 7.2 
L 44.845313 7.2 
z
" style="fill:#ffffff;"/>
   </g>
   <g id="matplotlib.axis_1">
    <g id="xtick_1">
     <g id="line2d_1">
      <defs>
       <path d="M 0 0 
L 0 3.5 
" id="m8252ab51b1" style="stroke:#000000;stroke-width:0.8;"/>
      </defs>
      <g>
       <use style="stroke:#000000;stroke-width:0.8;" x="77.020897" xlink:href="#m8252ab51b1" y="224.64"/>
      </g>
     </g>
     <g id="text_1">
      <!-- 1989 -->
      <defs>
       <path d="M 12.40625 8.296875 
L 28.515625 8.296875 
L 28.515625 63.921875 
L 10.984375 60.40625 
L 10.984375 69.390625 
L 28.421875 72.90625 
L 38.28125 72.90625 
L 38.28125 8.296875 
L 54.390625 8.296875 
L 54.390625 0 
L 12.40625 0 
z
" id="DejaVuSans-49"/>
       <path d="M 10.984375 1.515625 
L 10.984375 10.5 
Q 14.703125 8.734375 18.5 7.8125 
Q 22.3125 6.890625 25.984375 6.890625 
Q 35.75 6.890625 40.890625 13.453125 
Q 46.046875 20.015625 46.78125 33.40625 
Q 43.953125 29.203125 39.59375 26.953125 
Q 35.25 24.703125 29.984375 24.703125 
Q 19.046875 24.703125 12.671875 31.3125 
Q 6.296875 37.9375 6.296875 49.421875 
Q 6.296875 60.640625 12.9375 67.421875 
Q 19.578125 74.21875 30.609375 74.21875 
Q 43.265625 74.21875 49.921875 64.515625 
Q 56.59375 54.828125 56.59375 36.375 
Q 56.59375 19.140625 48.40625 8.859375 
Q 40.234375 -1.421875 26.421875 -1.421875 
Q 22.703125 -1.421875 18.890625 -0.6875 
Q 15.09375 0.046875 10.984375 1.515625 
z
M 30.609375 32.421875 
Q 37.25 32.421875 41.125 36.953125 
Q 45.015625 41.5 45.015625 49.421875 
Q 45.015625 57.28125 41.125 61.84375 
Q 37.25 66.40625 30.609375 66.40625 
Q 23.96875 66.40625 20.09375 61.84375 
Q 16.21875 57.28125 16.21875 49.421875 
Q 16.21875 41.5 20.09375 36.953125 
Q 23.96875 32.421875 30.609375 32.421875 
z
" id="DejaVuSans-57"/>
       <path d="M 31.78125 34.625 
Q 24.75 34.625 20.71875 30.859375 
Q 16.703125 27.09375 16.703125 20.515625 
Q 16.703125 13.921875 20.71875 10.15625 
Q 24.75 6.390625 31.78125 6.390625 
Q 38.8125 6.390625 42.859375 10.171875 
Q 46.921875 13.96875 46.921875 20.515625 
Q 46.921875 27.09375 42.890625 30.859375 
Q 38.875 34.625 31.78125 34.625 
z
M 21.921875 38.8125 
Q 15.578125 40.375 12.03125 44.71875 
Q 8.5 49.078125 8.5 55.328125 
Q 8.5 64.0625 14.71875 69.140625 
Q 20.953125 74.21875 31.78125 74.21875 
Q 42.671875 74.21875 48.875 69.140625 
Q 55.078125 64.0625 55.078125 55.328125 
Q 55.078125 49.078125 51.53125 44.71875 
Q 48 40.375 41.703125 38.8125 
Q 48.828125 37.15625 52.796875 32.3125 
Q 56.78125 27.484375 56.78125 20.515625 
Q 56.78125 9.90625 50.3125 4.234375 
Q 43.84375 -1.421875 31.78125 -1.421875 
Q 19.734375 -1.421875 13.25 4.234375 
Q 6.78125 9.90625 6.78125 20.515625 
Q 6.78125 27.484375 10.78125 32.3125 
Q 14.796875 37.15625 21.921875 38.8125 
z
M 18.3125 54.390625 
Q 18.3125 48.734375 21.84375 45.5625 
Q 25.390625 42.390625 31.78125 42.390625 
Q 38.140625 42.390625 41.71875 45.5625 
Q 45.3125 48.734375 45.3125 54.390625 
Q 45.3125 60.0625 41.71875 63.234375 
Q 38.140625 66.40625 31.78125 66.40625 
Q 25.390625 66.40625 21.84375 63.234375 
Q 18.3125 60.0625 18.3125 54.390625 
z
" id="DejaVuSans-56"/>
      </defs>
      <g transform="translate(64.295897 239.238437)scale(0.1 -0.1)">
       <use xlink:href="#DejaVuSans-49"/>
       <use x="63.623047" xlink:href="#DejaVuSans-57"/>
       <use x="127.246094" xlink:href="#DejaVuSans-56"/>
       <use x="190.869141" xlink:href="#DejaVuSans-57"/>
      </g>
     </g>
    </g>
    <g id="xtick_2">
     <g id="line2d_2">
      <g>
       <use style="stroke:#000000;stroke-width:0.8;" x="129.19752" xlink:href="#m8252ab51b1" y="224.64"/>
      </g>
     </g>
     <g id="text_2">
      <!-- 1994 -->
      <defs>
       <path d="M 37.796875 64.3125 
L 12.890625 25.390625 
L 37.796875 25.390625 
z
M 35.203125 72.90625 
L 47.609375 72.90625 
L 47.609375 25.390625 
L 58.015625 25.390625 
L 58.015625 17.1875 
L 47.609375 17.1875 
L 47.609375 0 
L 37.796875 0 
L 37.796875 17.1875 
L 4.890625 17.1875 
L 4.890625 26.703125 
z
" id="DejaVuSans-52"/>
      </defs>
      <g transform="translate(116.47252 239.238437)scale(0.1 -0.1)">
       <use xlink:href="#DejaVuSans-49"/>
       <use x="63.623047" xlink:href="#DejaVuSans-57"/>
       <use x="127.246094" xlink:href="#DejaVuSans-57"/>
       <use x="190.869141" xlink:href="#DejaVuSans-52"/>
      </g>
     </g>
    </g>
    <g id="xtick_3">
     <g id="line2d_3">
      <g>
       <use style="stroke:#000000;stroke-width:0.8;" x="181.374144" xlink:href="#m8252ab51b1" y="224.64"/>
      </g>
     </g>
     <g id="text_3">
      <!-- 1999 -->
      <g transform="translate(168.649144 239.238437)scale(0.1 -0.1)">
       <use xlink:href="#DejaVuSans-49"/>
       <use x="63.623047" xlink:href="#DejaVuSans-57"/>
       <use x="127.246094" xlink:href="#DejaVuSans-57"/>
       <use x="190.869141" xlink:href="#DejaVuSans-57"/>
      </g>
     </g>
    </g>
    <g id="xtick_4">
     <g id="line2d_4">
      <g>
       <use style="stroke:#000000;stroke-width:0.8;" x="233.550767" xlink:href="#m8252ab51b1" y="224.64"/>
      </g>
     </g>
     <g id="text_4">
      <!-- 2004 -->
      <defs>
       <path d="M 19.1875 8.296875 
L 53.609375 8.296875 
L 53.609375 0 
L 7.328125 0 
L 7.328125 8.296875 
Q 12.9375 14.109375 22.625 23.890625 
Q 32.328125 33.6875 34.8125 36.53125 
Q 39.546875 41.84375 41.421875 45.53125 
Q 43.3125 49.21875 43.3125 52.78125 
Q 43.3125 58.59375 39.234375 62.25 
Q 35.15625 65.921875 28.609375 65.921875 
Q 23.96875 65.921875 18.8125 64.3125 
Q 13.671875 62.703125 7.8125 59.421875 
L 7.8125 69.390625 
Q 13.765625 71.78125 18.9375 73 
Q 24.125 74.21875 28.421875 74.21875 
Q 39.75 74.21875 46.484375 68.546875 
Q 53.21875 62.890625 53.21875 53.421875 
Q 53.21875 48.921875 51.53125 44.890625 
Q 49.859375 40.875 45.40625 35.40625 
Q 44.1875 33.984375 37.640625 27.21875 
Q 31.109375 20.453125 19.1875 8.296875 
z
" id="DejaVuSans-50"/>
       <path d="M 31.78125 66.40625 
Q 24.171875 66.40625 20.328125 58.90625 
Q 16.5 51.421875 16.5 36.375 
Q 16.5 21.390625 20.328125 13.890625 
Q 24.171875 6.390625 31.78125 6.390625 
Q 39.453125 6.390625 43.28125 13.890625 
Q 47.125 21.390625 47.125 36.375 
Q 47.125 51.421875 43.28125 58.90625 
Q 39.453125 66.40625 31.78125 66.40625 
z
M 31.78125 74.21875 
Q 44.046875 74.21875 50.515625 64.515625 
Q 56.984375 54.828125 56.984375 36.375 
Q 56.984375 17.96875 50.515625 8.265625 
Q 44.046875 -1.421875 31.78125 -1.421875 
Q 19.53125 -1.421875 13.0625 8.265625 
Q 6.59375 17.96875 6.59375 36.375 
Q 6.59375 54.828125 13.0625 64.515625 
Q 19.53125 74.21875 31.78125 74.21875 
z
" id="DejaVuSans-48"/>
      </defs>
      <g transform="translate(220.825767 239.238437)scale(0.1 -0.1)">
       <use xlink:href="#DejaVuSans-50"/>
       <use x="63.623047" xlink:href="#DejaVuSans-48"/>
       <use x="127.246094" xlink:href="#DejaVuSans-48"/>
       <use x="190.869141" xlink:href="#DejaVuSans-52"/>
      </g>
     </g>
    </g>
    <g id="xtick_5">
     <g id="line2d_5">
      <g>
       <use style="stroke:#000000;stroke-width:0.8;" x="285.72739" xlink:href="#m8252ab51b1" y="224.64"/>
      </g>
     </g>
     <g id="text_5">
      <!-- 2009 -->
      <g transform="translate(273.00239 239.238437)scale(0.1 -0.1)">
       <use xlink:href="#DejaVuSans-50"/>
       <use x="63.623047" xlink:href="#DejaVuSans-48"/>
       <use x="127.246094" xlink:href="#DejaVuSans-48"/>
       <use x="190.869141" xlink:href="#DejaVuSans-57"/>
      </g>
     </g>
    </g>
    <g id="xtick_6">
     <g id="line2d_6">
      <g>
       <use style="stroke:#000000;stroke-width:0.8;" x="337.904014" xlink:href="#m8252ab51b1" y="224.64"/>
      </g>
     </g>
     <g id="text_6">
      <!-- 2014 -->
      <g transform="translate(325.179014 239.238437)scale(0.1 -0.1)">
       <use xlink:href="#DejaVuSans-50"/>
       <use x="63.623047" xlink:href="#DejaVuSans-48"/>
       <use x="127.246094" xlink:href="#DejaVuSans-49"/>
       <use x="190.869141" xlink:href="#DejaVuSans-52"/>
      </g>
     </g>
    </g>
    <g id="xtick_7">
     <g id="line2d_7">
      <defs>
       <path d="M 0 0 
L 0 2 
" id="m1e8229615d" style="stroke:#000000;stroke-width:0.6;"/>
      </defs>
      <g>
       <use style="stroke:#000000;stroke-width:0.6;" x="45.714923" xlink:href="#m1e8229615d" y="224.64"/>
      </g>
     </g>
    </g>
    <g id="xtick_8">
     <g id="line2d_8">
      <g>
       <use style="stroke:#000000;stroke-width:0.6;" x="56.150248" xlink:href="#m1e8229615d" y="224.64"/>
      </g>
     </g>
    </g>
    <g id="xtick_9">
     <g id="line2d_9">
      <g>
       <use style="stroke:#000000;stroke-width:0.6;" x="66.585572" xlink:href="#m1e8229615d" y="224.64"/>
      </g>
     </g>
    </g>
    <g id="xtick_10">
     <g id="line2d_10">
      <g>
       <use style="stroke:#000000;stroke-width:0.6;" x="87.456222" xlink:href="#m1e8229615d" y="224.64"/>
      </g>
     </g>
    </g>
    <g id="xtick_11">
     <g id="line2d_11">
      <g>
       <use style="stroke:#000000;stroke-width:0.6;" x="97.891546" xlink:href="#m1e8229615d" y="224.64"/>
      </g>
     </g>
    </g>
    <g id="xtick_12">
     <g id="line2d_12">
      <g>
       <use style="stroke:#000000;stroke-width:0.6;" x="108.326871" xlink:href="#m1e8229615d" y="224.64"/>
      </g>
     </g>
    </g>
    <g id="xtick_13">
     <g id="line2d_13">
      <g>
       <use style="stroke:#000000;stroke-width:0.6;" x="118.762196" xlink:href="#m1e8229615d" y="224.64"/>
      </g>
     </g>
    </g>
    <g id="xtick_14">
     <g id="line2d_14">
      <g>
       <use style="stroke:#000000;stroke-width:0.6;" x="139.632845" xlink:href="#m1e8229615d" y="224.64"/>
      </g>
     </g>
    </g>
    <g id="xtick_15">
     <g id="line2d_15">
      <g>
       <use style="stroke:#000000;stroke-width:0.6;" x="150.06817" xlink:href="#m1e8229615d" y="224.64"/>
      </g>
     </g>
    </g>
    <g id="xtick_16">
     <g id="line2d_16">
      <g>
       <use style="stroke:#000000;stroke-width:0.6;" x="160.503494" xlink:href="#m1e8229615d" y="224.64"/>
      </g>
     </g>
    </g>
    <g id="xtick_17">
     <g id="line2d_17">
      <g>
       <use style="stroke:#000000;stroke-width:0.6;" x="170.938819" xlink:href="#m1e8229615d" y="224.64"/>
      </g>
     </g>
    </g>
    <g id="xtick_18">
     <g id="line2d_18">
      <g>
       <use style="stroke:#000000;stroke-width:0.6;" x="191.809468" xlink:href="#m1e8229615d" y="224.64"/>
      </g>
     </g>
    </g>
    <g id="xtick_19">
     <g id="line2d_19">
      <g>
       <use style="stroke:#000000;stroke-width:0.6;" x="202.244793" xlink:href="#m1e8229615d" y="224.64"/>
      </g>
     </g>
    </g>
    <g id="xtick_20">
     <g id="line2d_20">
      <g>
       <use style="stroke:#000000;stroke-width:0.6;" x="212.680118" xlink:href="#m1e8229615d" y="224.64"/>
      </g>
     </g>
    </g>
    <g id="xtick_21">
     <g id="line2d_21">
      <g>
       <use style="stroke:#000000;stroke-width:0.6;" x="223.115442" xlink:href="#m1e8229615d" y="224.64"/>
      </g>
     </g>
    </g>
    <g id="xtick_22">
     <g id="line2d_22">
      <g>
       <use style="stroke:#000000;stroke-width:0.6;" x="243.986092" xlink:href="#m1e8229615d" y="224.64"/>
      </g>
     </g>
    </g>
    <g id="xtick_23">
     <g id="line2d_23">
      <g>
       <use style="stroke:#000000;stroke-width:0.6;" x="254.421416" xlink:href="#m1e8229615d" y="224.64"/>
      </g>
     </g>
    </g>
    <g id="xtick_24">
     <g id="line2d_24">
      <g>
       <use style="stroke:#000000;stroke-width:0.6;" x="264.856741" xlink:href="#m1e8229615d" y="224.64"/>
      </g>
     </g>
    </g>
    <g id="xtick_25">
     <g id="line2d_25">
      <g>
       <use style="stroke:#000000;stroke-width:0.6;" x="275.292066" xlink:href="#m1e8229615d" y="224.64"/>
      </g>
     </g>
    </g>
    <g id="xtick_26">
     <g id="line2d_26">
      <g>
       <use style="stroke:#000000;stroke-width:0.6;" x="296.162715" xlink:href="#m1e8229615d" y="224.64"/>
      </g>
     </g>
    </g>
    <g id="xtick_27">
     <g id="line2d_27">
      <g>
       <use style="stroke:#000000;stroke-width:0.6;" x="306.59804" xlink:href="#m1e8229615d" y="224.64"/>
      </g>
     </g>
    </g>
    <g id="xtick_28">
     <g id="line2d_28">
      <g>
       <use style="stroke:#000000;stroke-width:0.6;" x="317.033364" xlink:href="#m1e8229615d" y="224.64"/>
      </g>
     </g>
    </g>
    <g id="xtick_29">
     <g id="line2d_29">
      <g>
       <use style="stroke:#000000;stroke-width:0.6;" x="327.468689" xlink:href="#m1e8229615d" y="224.64"/>
      </g>
     </g>
    </g>
    <g id="xtick_30">
     <g id="line2d_30">
      <g>
       <use style="stroke:#000000;stroke-width:0.6;" x="348.339338" xlink:href="#m1e8229615d" y="224.64"/>
      </g>
     </g>
    </g>
    <g id="xtick_31">
     <g id="line2d_31">
      <g>
       <use style="stroke:#000000;stroke-width:0.6;" x="358.774663" xlink:href="#m1e8229615d" y="224.64"/>
      </g>
     </g>
    </g>
    <g id="xtick_32">
     <g id="line2d_32">
      <g>
       <use style="stroke:#000000;stroke-width:0.6;" x="369.209988" xlink:href="#m1e8229615d" y="224.64"/>
      </g>
     </g>
    </g>
    <g id="xtick_33">
     <g id="line2d_33">
      <g>
       <use style="stroke:#000000;stroke-width:0.6;" x="379.645313" xlink:href="#m1e8229615d" y="224.64"/>
      </g>
     </g>
    </g>
    <g id="text_7">
     <!-- DATE -->
     <defs>
      <path d="M 19.671875 64.796875 
L 19.671875 8.109375 
L 31.59375 8.109375 
Q 46.6875 8.109375 53.6875 14.9375 
Q 60.6875 21.78125 60.6875 36.53125 
Q 60.6875 51.171875 53.6875 57.984375 
Q 46.6875 64.796875 31.59375 64.796875 
z
M 9.8125 72.90625 
L 30.078125 72.90625 
Q 51.265625 72.90625 61.171875 64.09375 
Q 71.09375 55.28125 71.09375 36.53125 
Q 71.09375 17.671875 61.125 8.828125 
Q 51.171875 0 30.078125 0 
L 9.8125 0 
z
" id="DejaVuSans-68"/>
      <path d="M 34.1875 63.1875 
L 20.796875 26.90625 
L 47.609375 26.90625 
z
M 28.609375 72.90625 
L 39.796875 72.90625 
L 67.578125 0 
L 57.328125 0 
L 50.6875 18.703125 
L 17.828125 18.703125 
L 11.1875 0 
L 0.78125 0 
z
" id="DejaVuSans-65"/>
      <path d="M -0.296875 72.90625 
L 61.375 72.90625 
L 61.375 64.59375 
L 35.5 64.59375 
L 35.5 0 
L 25.59375 0 
L 25.59375 64.59375 
L -0.296875 64.59375 
z
" id="DejaVuSans-84"/>
      <path d="M 9.8125 72.90625 
L 55.90625 72.90625 
L 55.90625 64.59375 
L 19.671875 64.59375 
L 19.671875 43.015625 
L 54.390625 43.015625 
L 54.390625 34.71875 
L 19.671875 34.71875 
L 19.671875 8.296875 
L 56.78125 8.296875 
L 56.78125 0 
L 9.8125 0 
z
" id="DejaVuSans-69"/>
     </defs>
     <g transform="translate(199.236719 252.916562)scale(0.1 -0.1)">
      <use xlink:href="#DejaVuSans-68"/>
      <use x="75.251953" xlink:href="#DejaVuSans-65"/>
      <use x="135.910156" xlink:href="#DejaVuSans-84"/>
      <use x="196.994141" xlink:href="#DejaVuSans-69"/>
     </g>
    </g>
   </g>
   <g id="matplotlib.axis_2">
    <g id="ytick_1">
     <g id="line2d_34">
      <defs>
       <path d="M 0 0 
L -3.5 0 
" id="m2393e51db0" style="stroke:#000000;stroke-width:0.8;"/>
      </defs>
      <g>
       <use style="stroke:#000000;stroke-width:0.8;" x="44.845313" xlink:href="#m2393e51db0" y="213.985908"/>
      </g>
     </g>
     <g id="text_8">
      <!-- −0.15 -->
      <defs>
       <path d="M 10.59375 35.5 
L 73.1875 35.5 
L 73.1875 27.203125 
L 10.59375 27.203125 
z
" id="DejaVuSans-8722"/>
       <path d="M 10.6875 12.40625 
L 21 12.40625 
L 21 0 
L 10.6875 0 
z
" id="DejaVuSans-46"/>
       <path d="M 10.796875 72.90625 
L 49.515625 72.90625 
L 49.515625 64.59375 
L 19.828125 64.59375 
L 19.828125 46.734375 
Q 21.96875 47.46875 24.109375 47.828125 
Q 26.265625 48.1875 28.421875 48.1875 
Q 40.625 48.1875 47.75 41.5 
Q 54.890625 34.8125 54.890625 23.390625 
Q 54.890625 11.625 47.5625 5.09375 
Q 40.234375 -1.421875 26.90625 -1.421875 
Q 22.3125 -1.421875 17.546875 -0.640625 
Q 12.796875 0.140625 7.71875 1.703125 
L 7.71875 11.625 
Q 12.109375 9.234375 16.796875 8.0625 
Q 21.484375 6.890625 26.703125 6.890625 
Q 35.15625 6.890625 40.078125 11.328125 
Q 45.015625 15.765625 45.015625 23.390625 
Q 45.015625 31 40.078125 35.4375 
Q 35.15625 39.890625 26.703125 39.890625 
Q 22.75 39.890625 18.8125 39.015625 
Q 14.890625 38.140625 10.796875 36.28125 
z
" id="DejaVuSans-53"/>
      </defs>
      <g transform="translate(7.2 217.785126)scale(0.1 -0.1)">
       <use xlink:href="#DejaVuSans-8722"/>
       <use x="83.789062" xlink:href="#DejaVuSans-48"/>
       <use x="147.412109" xlink:href="#DejaVuSans-46"/>
       <use x="179.199219" xlink:href="#DejaVuSans-49"/>
       <use x="242.822266" xlink:href="#DejaVuSans-53"/>
      </g>
     </g>
    </g>
    <g id="ytick_2">
     <g id="line2d_35">
      <g>
       <use style="stroke:#000000;stroke-width:0.8;" x="44.845313" xlink:href="#m2393e51db0" y="186.869664"/>
      </g>
     </g>
     <g id="text_9">
      <!-- −0.10 -->
      <g transform="translate(7.2 190.668883)scale(0.1 -0.1)">
       <use xlink:href="#DejaVuSans-8722"/>
       <use x="83.789062" xlink:href="#DejaVuSans-48"/>
       <use x="147.412109" xlink:href="#DejaVuSans-46"/>
       <use x="179.199219" xlink:href="#DejaVuSans-49"/>
       <use x="242.822266" xlink:href="#DejaVuSans-48"/>
      </g>
     </g>
    </g>
    <g id="ytick_3">
     <g id="line2d_36">
      <g>
       <use style="stroke:#000000;stroke-width:0.8;" x="44.845313" xlink:href="#m2393e51db0" y="159.753421"/>
      </g>
     </g>
     <g id="text_10">
      <!-- −0.05 -->
      <g transform="translate(7.2 163.55264)scale(0.1 -0.1)">
       <use xlink:href="#DejaVuSans-8722"/>
       <use x="83.789062" xlink:href="#DejaVuSans-48"/>
       <use x="147.412109" xlink:href="#DejaVuSans-46"/>
       <use x="179.199219" xlink:href="#DejaVuSans-48"/>
       <use x="242.822266" xlink:href="#DejaVuSans-53"/>
      </g>
     </g>
    </g>
    <g id="ytick_4">
     <g id="line2d_37">
      <g>
       <use style="stroke:#000000;stroke-width:0.8;" x="44.845313" xlink:href="#m2393e51db0" y="132.637178"/>
      </g>
     </g>
     <g id="text_11">
      <!-- 0.00 -->
      <g transform="translate(15.579688 136.436396)scale(0.1 -0.1)">
       <use xlink:href="#DejaVuSans-48"/>
       <use x="63.623047" xlink:href="#DejaVuSans-46"/>
       <use x="95.410156" xlink:href="#DejaVuSans-48"/>
       <use x="159.033203" xlink:href="#DejaVuSans-48"/>
      </g>
     </g>
    </g>
    <g id="ytick_5">
     <g id="line2d_38">
      <g>
       <use style="stroke:#000000;stroke-width:0.8;" x="44.845313" xlink:href="#m2393e51db0" y="105.520934"/>
      </g>
     </g>
     <g id="text_12">
      <!-- 0.05 -->
      <g transform="translate(15.579688 109.320153)scale(0.1 -0.1)">
       <use xlink:href="#DejaVuSans-48"/>
       <use x="63.623047" xlink:href="#DejaVuSans-46"/>
       <use x="95.410156" xlink:href="#DejaVuSans-48"/>
       <use x="159.033203" xlink:href="#DejaVuSans-53"/>
      </g>
     </g>
    </g>
    <g id="ytick_6">
     <g id="line2d_39">
      <g>
       <use style="stroke:#000000;stroke-width:0.8;" x="44.845313" xlink:href="#m2393e51db0" y="78.404691"/>
      </g>
     </g>
     <g id="text_13">
      <!-- 0.10 -->
      <g transform="translate(15.579688 82.20391)scale(0.1 -0.1)">
       <use xlink:href="#DejaVuSans-48"/>
       <use x="63.623047" xlink:href="#DejaVuSans-46"/>
       <use x="95.410156" xlink:href="#DejaVuSans-49"/>
       <use x="159.033203" xlink:href="#DejaVuSans-48"/>
      </g>
     </g>
    </g>
    <g id="ytick_7">
     <g id="line2d_40">
      <g>
       <use style="stroke:#000000;stroke-width:0.8;" x="44.845313" xlink:href="#m2393e51db0" y="51.288448"/>
      </g>
     </g>
     <g id="text_14">
      <!-- 0.15 -->
      <g transform="translate(15.579688 55.087666)scale(0.1 -0.1)">
       <use xlink:href="#DejaVuSans-48"/>
       <use x="63.623047" xlink:href="#DejaVuSans-46"/>
       <use x="95.410156" xlink:href="#DejaVuSans-49"/>
       <use x="159.033203" xlink:href="#DejaVuSans-53"/>
      </g>
     </g>
    </g>
    <g id="ytick_8">
     <g id="line2d_41">
      <g>
       <use style="stroke:#000000;stroke-width:0.8;" x="44.845313" xlink:href="#m2393e51db0" y="24.172204"/>
      </g>
     </g>
     <g id="text_15">
      <!-- 0.20 -->
      <g transform="translate(15.579688 27.971423)scale(0.1 -0.1)">
       <use xlink:href="#DejaVuSans-48"/>
       <use x="63.623047" xlink:href="#DejaVuSans-46"/>
       <use x="95.410156" xlink:href="#DejaVuSans-50"/>
       <use x="159.033203" xlink:href="#DejaVuSans-48"/>
      </g>
     </g>
    </g>
   </g>
   <g id="line2d_42">
    <path clip-path="url(#pb99e99e040)" d="M 45.714923 98.056851 
L 46.584533 171.736339 
L 47.454144 180.52439 
L 48.323754 179.517738 
L 49.193364 144.761784 
L 50.062975 95.700268 
L 50.932585 84.193154 
L 51.802196 144.201992 
L 52.671806 163.044227 
L 53.541416 165.34949 
L 54.411027 116.875905 
L 55.280637 57.313722 
L 56.150248 89.52746 
L 57.019858 162.296691 
L 57.889468 170.638205 
L 58.759079 182.091814 
L 59.628689 146.760691 
L 60.4983 91.189383 
L 61.36791 94.035642 
L 62.23752 127.042558 
L 63.107131 183.030229 
L 63.976741 167.381099 
L 65.715962 68.00059 
L 66.585572 69.12015 
L 67.455183 162.191633 
L 68.324793 179.245122 
L 69.194403 192.24859 
L 70.064014 150.483215 
L 70.933624 86.692443 
L 71.803235 89.768669 
L 72.672845 115.868686 
L 73.542455 197.497256 
L 74.412066 169.866631 
L 76.151287 66.268856 
L 77.890507 141.620614 
L 78.760118 158.639552 
L 79.629728 198.612625 
L 81.368949 94.274264 
L 82.238559 90.956668 
L 83.10817 124.822286 
L 83.97778 176.96931 
L 84.84739 161.992233 
L 85.717001 109.605075 
L 86.586611 31.170853 
L 87.456222 135.165501 
L 88.325832 181.21742 
L 89.195442 161.229049 
L 90.065053 179.843095 
L 90.934663 145.993749 
L 91.804274 89.957914 
L 92.673884 96.460092 
L 94.413105 164.240504 
L 95.282715 177.141699 
L 96.152325 123.293958 
L 97.021936 61.293721 
L 97.891546 78.229711 
L 98.761157 189.035419 
L 99.630767 162.878169 
L 100.500377 180.55659 
L 101.369988 121.355238 
L 102.239598 89.182212 
L 103.109209 97.891066 
L 103.978819 140.175273 
L 104.848429 172.6425 
L 105.71804 170.261456 
L 106.58765 106.27158 
L 107.457261 83.885675 
L 108.326871 94.079646 
L 109.196481 167.715443 
L 110.066092 172.888635 
L 110.935702 171.038814 
L 111.805313 151.097339 
L 112.674923 98.795138 
L 113.544533 85.176316 
L 114.414144 137.949071 
L 115.283754 162.364038 
L 116.153364 158.334492 
L 117.022975 99.212598 
L 117.892585 59.664387 
L 118.762196 112.447725 
L 119.631806 156.367721 
L 120.501416 169.153194 
L 121.371027 194.255987 
L 122.240637 159.414086 
L 123.110248 83.719285 
L 123.979858 81.287306 
L 125.719079 185.690405 
L 126.588689 170.078351 
L 127.4583 97.455025 
L 128.32791 65.406368 
L 129.19752 75.386135 
L 130.067131 175.775225 
L 131.806351 192.362504 
L 132.675962 146.055122 
L 133.545572 71.445786 
L 134.415183 97.6578 
L 135.284793 141.668804 
L 136.154403 176.018609 
L 137.024014 166.262374 
L 137.893624 103.660751 
L 138.763235 68.029621 
L 139.632845 85.054049 
L 140.502455 163.224927 
L 141.372066 173.258489 
L 142.241676 186.552687 
L 143.980897 96.782234 
L 144.850507 83.331303 
L 145.720118 114.661052 
L 146.589728 205.670248 
L 147.459338 168.352973 
L 148.328949 93.123923 
L 149.198559 64.556918 
L 150.06817 89.123986 
L 150.93778 169.799157 
L 151.80739 171.603203 
L 152.677001 198.935649 
L 153.546611 138.492917 
L 154.416222 98.78341 
L 155.285832 106.58428 
L 156.155442 127.357432 
L 157.025053 181.255225 
L 157.894663 164.983245 
L 158.764274 88.949676 
L 159.633884 72.905804 
L 160.503494 86.590495 
L 161.373105 181.159071 
L 162.242715 173.049833 
L 163.112325 178.816528 
L 163.981936 147.571168 
L 164.851546 89.622877 
L 165.721157 77.862617 
L 166.590767 137.391175 
L 167.460377 171.541797 
L 168.329988 164.492778 
L 169.199598 102.288278 
L 170.069209 70.733137 
L 170.938819 115.302253 
L 171.808429 173.071186 
L 172.67804 142.395055 
L 173.54765 198.180977 
L 174.417261 126.170084 
L 175.286871 80.657803 
L 176.156481 90.886076 
L 177.026092 137.280295 
L 177.895702 171.518026 
L 178.765313 182.352029 
L 180.504533 68.142216 
L 181.374144 77.468008 
L 182.243754 195.849284 
L 183.113364 137.422244 
L 183.982975 199.610391 
L 185.722196 78.474287 
L 186.591806 77.852272 
L 187.461416 140.021027 
L 188.331027 186.803734 
L 189.200637 175.50876 
L 190.070248 122.65952 
L 190.939858 58.337142 
L 191.809468 90.103164 
L 192.679079 177.952113 
L 193.548689 168.221399 
L 194.4183 175.721747 
L 195.28791 115.733706 
L 196.15752 93.532895 
L 197.027131 103.196912 
L 197.896741 115.263558 
L 198.766351 182.723088 
L 199.635962 182.511747 
L 200.505572 104.680882 
L 201.375183 54.052751 
L 202.244793 101.463495 
L 203.114403 196.826993 
L 203.984014 159.80302 
L 204.853624 194.694757 
L 205.723235 134.019706 
L 206.592845 83.054961 
L 207.462455 99.633295 
L 208.332066 113.426875 
L 209.201676 196.477872 
L 210.071287 167.897786 
L 210.940897 128.324941 
L 211.810507 65.917933 
L 212.680118 74.890047 
L 213.549728 174.355434 
L 214.419338 144.078781 
L 215.288949 179.401187 
L 216.158559 137.63653 
L 217.02817 85.625202 
L 217.89778 84.43864 
L 218.76739 137.629972 
L 219.637001 181.463915 
L 220.506611 173.472973 
L 221.376222 125.260225 
L 222.245832 66.139947 
L 223.115442 87.428592 
L 223.985053 168.697295 
L 224.854663 184.078143 
L 225.724274 189.617738 
L 226.593884 130.193851 
L 227.463494 97.116688 
L 228.333105 69.959148 
L 229.202715 122.083827 
L 230.072325 196.013201 
L 230.941936 171.191092 
L 231.811546 119.819175 
L 232.681157 49.16505 
L 233.550767 83.209475 
L 234.420377 170.959857 
L 235.289988 190.977516 
L 236.159598 185.241732 
L 237.029209 120.246348 
L 237.898819 96.71291 
L 238.768429 97.856248 
L 239.63804 139.3033 
L 240.50765 167.689349 
L 241.377261 172.004636 
L 242.246871 120.378339 
L 243.116481 43.913585 
L 243.986092 104.421226 
L 244.855702 178.552418 
L 245.725313 149.544678 
L 246.594923 205.611603 
L 247.464533 127.053506 
L 248.334144 63.03539 
L 249.203754 89.287574 
L 250.073364 130.984669 
L 250.942975 188.988704 
L 251.812585 187.56395 
L 252.682196 128.835877 
L 253.551806 36.440477 
L 254.421416 148.974307 
L 255.291027 148.070642 
L 256.160637 149.300261 
L 257.030248 196.794921 
L 257.899858 118.710676 
L 258.769468 73.254247 
L 259.639079 80.191302 
L 260.508689 130.694987 
L 261.3783 213.68818 
L 262.24791 164.360499 
L 263.11752 121.805619 
L 263.987131 70.929739 
L 264.856741 90.44288 
L 265.726351 138.067304 
L 266.595962 198.081149 
L 267.465572 182.151781 
L 268.335183 126.287616 
L 269.204793 82.73968 
L 270.074403 96.893319 
L 270.944014 101.687319 
L 271.813624 198.589862 
L 272.683235 181.49558 
L 273.552845 128.13606 
L 274.422455 64.725924 
L 275.292066 94.17279 
L 276.161676 163.247154 
L 277.031287 173.746115 
L 277.900897 186.278861 
L 278.770507 130.799995 
L 279.640118 63.154963 
L 280.509728 99.573251 
L 281.379338 145.85253 
L 282.248949 182.981363 
L 283.118559 170.292278 
L 283.98817 116.10489 
L 284.85778 50.242208 
L 285.72739 97.883436 
L 286.597001 191.92417 
L 287.466611 166.686705 
L 288.336222 187.567734 
L 289.205832 134.845023 
L 290.075442 72.612633 
L 290.945053 93.770713 
L 291.814663 122.347484 
L 292.684274 190.109023 
L 293.553884 164.683002 
L 294.423494 130.073025 
L 295.293105 17.083636 
L 297.032325 175.312599 
L 297.901936 196.618442 
L 298.771546 202.081048 
L 299.641157 106.525918 
L 300.510767 60.5936 
L 301.380377 94.109949 
L 302.249988 135.139555 
L 303.119598 200.218913 
L 303.989209 196.759269 
L 305.728429 20.818452 
L 307.46765 189.294098 
L 308.337261 176.49938 
L 309.206871 190.343586 
L 310.946092 60.164973 
L 311.815702 74.064198 
L 313.554923 204.351969 
L 314.424533 185.478543 
L 315.294144 112.800024 
L 316.163754 56.757844 
L 317.033364 106.777608 
L 317.902975 174.243603 
L 318.772585 184.009874 
L 319.642196 167.781961 
L 320.511806 102.657195 
L 321.381416 84.988448 
L 322.251027 71.66849 
L 323.120637 146.580021 
L 323.990248 200.336295 
L 324.859858 169.543749 
L 325.729468 109.62995 
L 326.599079 72.308826 
L 327.468689 83.752859 
L 328.3383 176.89624 
L 329.20791 156.31087 
L 330.07752 201.480347 
L 330.947131 132.026111 
L 331.816741 77.313125 
L 332.686351 82.809246 
L 333.555962 141.738162 
L 334.425572 180.340331 
L 335.295183 175.897552 
L 336.164793 102.475373 
L 337.034403 52.553505 
L 337.904014 86.712879 
L 338.773624 187.231028 
L 339.643235 173.882087 
L 340.512845 212.92688 
L 341.382455 122.230881 
L 342.252066 78.643728 
L 343.121676 97.575778 
L 344.860897 173.604812 
L 345.730507 178.150626 
L 346.600118 92.395418 
L 347.469728 80.888483 
L 348.339338 79.532848 
L 349.208949 151.850905 
L 350.078559 191.051913 
L 350.94817 214.756364 
L 351.81778 124.044955 
L 352.68739 68.203223 
L 353.557001 88.39318 
L 354.426611 138.718335 
L 355.296222 177.595028 
L 356.165832 190.173472 
L 357.035442 120.905763 
L 357.905053 73.851004 
L 358.774663 63.078178 
L 359.644274 179.223001 
L 360.513884 189.318596 
L 361.383494 167.84883 
L 362.253105 123.957467 
L 363.122715 59.061026 
L 363.992325 81.642477 
L 364.861936 130.003086 
L 365.731546 196.448573 
L 366.601157 195.622334 
L 367.470767 124.297702 
L 368.340377 31.463362 
L 370.079598 207.351789 
L 370.949209 126.872957 
L 371.818819 204.907509 
L 372.688429 110.890972 
L 373.55804 75.512147 
L 374.42765 81.034049 
L 375.297261 145.795974 
L 376.166871 184.730369 
L 377.036481 161.904258 
L 377.906092 113.604204 
L 378.775702 44.288677 
L 379.645313 72.711479 
L 379.645313 72.711479 
" style="fill:none;stroke:#1f77b4;stroke-linecap:square;stroke-width:1.5;"/>
   </g>
   <g id="line2d_43">
    <path clip-path="url(#pb99e99e040)" d="M 55.280637 133.439655 
L 57.019858 131.942235 
L 57.889468 131.118386 
L 59.628689 131.499468 
L 60.4983 131.123561 
L 61.36791 131.943769 
L 62.23752 130.513816 
L 63.107131 132.179316 
L 63.976741 132.348617 
L 64.846351 132.320619 
L 65.715962 133.211192 
L 66.585572 131.510583 
L 67.455183 131.501828 
L 69.194403 133.065469 
L 70.064014 133.375679 
L 71.803235 132.645353 
L 72.672845 131.714197 
L 73.542455 132.919783 
L 75.281676 133.339843 
L 76.151287 133.195531 
L 77.020897 135.979674 
L 78.760118 132.548292 
L 79.629728 133.078628 
L 80.499338 132.724717 
L 81.368949 133.356535 
L 82.238559 133.455535 
L 83.10817 134.201669 
L 83.97778 132.491006 
L 85.717001 131.043969 
L 86.586611 128.119135 
L 87.456222 130.838772 
L 88.325832 134.138506 
L 89.195442 134.354297 
L 90.065053 132.79017 
L 90.934663 132.769959 
L 91.804274 132.410263 
L 93.543494 133.333302 
L 94.413105 132.272568 
L 96.152325 134.675764 
L 97.021936 137.186002 
L 97.891546 132.441353 
L 98.761157 133.092853 
L 100.500377 133.289738 
L 101.369988 131.236529 
L 102.239598 131.171887 
L 103.109209 131.291135 
L 104.848429 132.806296 
L 105.71804 132.232943 
L 106.58765 130.814411 
L 107.457261 132.697074 
L 108.326871 134.017902 
L 109.196481 132.241237 
L 110.066092 133.075443 
L 110.935702 132.282295 
L 111.805313 134.760803 
L 112.674923 135.56188 
L 113.544533 134.502318 
L 114.414144 134.316801 
L 117.022975 131.8781 
L 117.892585 129.85966 
L 118.762196 131.390333 
L 119.631806 130.44469 
L 120.501416 130.133403 
L 121.371027 132.068167 
L 122.240637 132.76123 
L 123.110248 131.504909 
L 123.979858 131.180824 
L 124.849468 131.024972 
L 125.719079 132.968836 
L 126.588689 133.947491 
L 127.4583 133.801027 
L 128.32791 134.279525 
L 129.19752 131.191059 
L 130.067131 132.808351 
L 130.936741 134.056996 
L 131.806351 133.899206 
L 133.545572 131.763167 
L 134.415183 133.127375 
L 135.284793 133.593205 
L 136.154403 132.787222 
L 137.024014 132.469224 
L 137.893624 132.986368 
L 138.763235 133.204972 
L 139.632845 134.010632 
L 141.372066 132.058236 
L 143.111287 130.998114 
L 143.980897 133.109484 
L 144.850507 131.91561 
L 145.720118 129.664963 
L 146.589728 132.135933 
L 147.459338 132.31015 
L 148.328949 131.432081 
L 149.198559 131.142689 
L 150.06817 131.481851 
L 150.93778 132.029703 
L 151.80739 131.891763 
L 152.677001 132.923676 
L 153.546611 132.869464 
L 154.416222 133.036228 
L 155.285832 134.973976 
L 156.155442 136.032008 
L 157.025053 133.997423 
L 158.764274 133.368758 
L 159.633884 134.064499 
L 160.503494 133.853374 
L 161.373105 134.800034 
L 162.242715 134.920586 
L 163.112325 133.243993 
L 163.981936 134.000514 
L 164.851546 133.237136 
L 165.721157 130.843664 
L 166.590767 131.679809 
L 167.460377 130.870357 
L 168.329988 130.829485 
L 169.199598 131.941035 
L 170.069209 131.759979 
L 170.938819 134.152626 
L 171.808429 133.478636 
L 172.67804 130.924071 
L 173.54765 132.537775 
L 174.417261 130.754351 
L 175.286871 130.007262 
L 176.156481 131.09255 
L 177.895702 131.081329 
L 178.765313 132.5696 
L 179.634923 134.31932 
L 180.504533 134.10341 
L 181.374144 130.950556 
L 182.243754 132.848731 
L 183.113364 132.43433 
L 183.982975 132.553448 
L 184.852585 133.795496 
L 185.722196 133.613537 
L 186.591806 132.527386 
L 187.461416 132.75578 
L 188.331027 134.029589 
L 189.200637 133.459317 
L 190.070248 133.4072 
L 190.939858 132.590111 
L 191.809468 133.643041 
L 192.679079 132.15161 
L 193.548689 134.718206 
L 195.28791 130.615739 
L 196.15752 131.870623 
L 197.027131 133.982677 
L 197.896741 131.919554 
L 198.766351 131.5795 
L 199.635962 132.163083 
L 200.505572 130.664863 
L 201.375183 130.30783 
L 202.244793 131.254524 
L 203.114403 132.827431 
L 203.984014 132.125899 
L 205.723235 135.230817 
L 206.592845 134.357656 
L 207.462455 134.060688 
L 208.332066 133.907631 
L 209.201676 135.053863 
L 210.071287 133.836033 
L 210.940897 135.806371 
L 211.810507 136.795136 
L 212.680118 134.580682 
L 213.549728 132.708052 
L 215.288949 130.123235 
L 217.02817 130.638824 
L 217.89778 129.372602 
L 218.76739 131.389527 
L 219.637001 130.138364 
L 220.506611 130.602963 
L 221.376222 130.34757 
L 222.245832 130.366071 
L 223.115442 131.41095 
L 223.985053 130.939438 
L 224.854663 134.272718 
L 225.724274 135.124098 
L 226.593884 134.503874 
L 227.463494 135.461498 
L 229.202715 132.959362 
L 230.072325 134.171802 
L 230.941936 133.981646 
L 231.811546 133.528225 
L 232.681157 132.11365 
L 233.550767 131.762057 
L 234.420377 131.950604 
L 235.289988 132.525551 
L 236.159598 132.160884 
L 237.029209 131.331926 
L 237.898819 131.298278 
L 238.768429 133.623036 
L 239.63804 135.057992 
L 240.50765 132.697671 
L 242.246871 132.812063 
L 243.116481 132.374441 
L 243.986092 134.142087 
L 244.855702 134.774801 
L 245.725313 131.322064 
L 246.594923 133.019553 
L 247.464533 133.586817 
L 248.334144 130.780357 
L 250.073364 129.373081 
L 250.942975 131.148027 
L 251.812585 132.444637 
L 252.682196 133.149432 
L 253.551806 132.526673 
L 254.421416 136.239429 
L 255.291027 133.699281 
L 256.160637 133.678913 
L 257.899858 132.248954 
L 258.769468 133.100525 
L 259.639079 132.342503 
L 260.508689 132.318362 
L 261.3783 134.376652 
L 262.24791 132.443031 
L 263.11752 131.857176 
L 263.987131 134.731282 
L 264.856741 129.853663 
L 265.726351 129.020051 
L 266.595962 133.085125 
L 267.465572 131.864864 
L 268.335183 132.496275 
L 269.204793 133.286728 
L 270.074403 134.678563 
L 270.944014 132.261257 
L 271.813624 131.003064 
L 272.683235 132.430987 
L 273.552845 132.958524 
L 274.422455 132.44154 
L 275.292066 132.752365 
L 276.161676 134.850686 
L 277.031287 132.822767 
L 278.770507 133.542722 
L 279.640118 131.910662 
L 280.509728 132.13399 
L 281.379338 135.814424 
L 282.248949 134.513716 
L 283.98817 132.57751 
L 284.85778 131.370533 
L 285.72739 131.679754 
L 286.597001 134.069505 
L 287.466611 133.481221 
L 288.336222 133.588627 
L 289.205832 133.925713 
L 290.075442 134.713852 
L 290.945053 134.230307 
L 291.814663 132.271553 
L 292.684274 132.865525 
L 293.553884 132.398085 
L 294.423494 133.562096 
L 295.293105 130.798882 
L 296.162715 130.484647 
L 297.032325 129.100349 
L 297.901936 131.594661 
L 298.771546 132.804104 
L 299.641157 130.444178 
L 300.510767 129.442592 
L 301.380377 129.470862 
L 302.249988 130.536868 
L 303.119598 131.379358 
L 303.989209 134.052381 
L 304.858819 132.491933 
L 305.728429 132.803168 
L 307.46765 135.197955 
L 308.337261 133.521367 
L 309.206871 132.543245 
L 310.076481 134.328842 
L 310.946092 134.293123 
L 311.815702 132.622644 
L 313.554923 133.221487 
L 314.424533 132.281426 
L 315.294144 132.402457 
L 316.163754 135.397406 
L 317.033364 135.22316 
L 317.902975 133.968953 
L 318.772585 134.594827 
L 320.511806 130.606701 
L 321.381416 132.675324 
L 322.251027 132.475681 
L 323.120637 133.174632 
L 323.990248 132.839992 
L 324.859858 131.512093 
L 325.729468 131.24792 
L 326.599079 132.543835 
L 327.468689 130.625106 
L 328.3383 130.846159 
L 329.20791 128.537909 
L 330.947131 133.793517 
L 331.816741 133.153907 
L 332.686351 134.082303 
L 333.555962 133.678815 
L 334.425572 132.012485 
L 335.295183 132.541968 
L 336.164793 131.945753 
L 337.034403 130.299477 
L 337.904014 130.546145 
L 338.773624 131.407377 
L 339.643235 132.871645 
L 340.512845 133.825523 
L 341.382455 133.009254 
L 342.252066 133.120138 
L 343.121676 134.350682 
L 344.860897 133.17995 
L 345.730507 133.367706 
L 346.600118 132.52771 
L 347.469728 134.888958 
L 348.339338 134.290622 
L 349.208949 131.342278 
L 350.078559 132.773097 
L 351.81778 133.076727 
L 353.557001 131.441468 
L 355.296222 132.131773 
L 356.165832 133.133677 
L 357.035442 135.509539 
L 357.905053 134.923083 
L 358.774663 133.55186 
L 359.644274 135.832868 
L 360.513884 135.688425 
L 361.383494 131.779464 
L 362.253105 131.772173 
L 363.122715 131.010324 
L 363.992325 130.447765 
L 364.861936 129.721494 
L 365.731546 131.292623 
L 366.601157 131.746695 
L 367.470767 132.029356 
L 368.340377 128.497053 
L 369.209988 133.394684 
L 370.079598 135.73875 
L 370.949209 130.534947 
L 371.818819 133.62317 
L 372.688429 132.534295 
L 373.55804 133.905222 
L 374.42765 133.85452 
L 375.297261 135.170594 
L 376.166871 134.194077 
L 377.036481 131.384237 
L 377.906092 130.493112 
L 378.775702 131.561888 
L 379.645313 127.467032 
L 379.645313 127.467032 
" style="fill:none;stroke:#ff0000;stroke-linecap:square;stroke-width:1.5;"/>
   </g>
   <g id="line2d_44">
    <path clip-path="url(#pb99e99e040)" d="M 55.280637 90.949571 
L 56.150248 90.225025 
L 57.019858 90.932648 
L 57.889468 91.893017 
L 58.759079 91.609256 
L 59.628689 91.545768 
L 60.4983 91.169592 
L 61.36791 92.095229 
L 62.23752 92.264633 
L 63.107131 90.430085 
L 63.976741 90.281126 
L 64.846351 90.269859 
L 65.715962 91.909255 
L 66.585572 89.561041 
L 67.455183 89.567857 
L 68.324793 88.792179 
L 69.194403 87.658517 
L 70.064014 87.542788 
L 71.803235 86.795834 
L 72.672845 86.558808 
L 73.542455 84.933536 
L 74.412066 84.765204 
L 75.281676 84.840065 
L 76.151287 84.622736 
L 77.020897 87.813316 
L 77.890507 88.519099 
L 78.760118 90.054642 
L 79.629728 89.212225 
L 80.499338 89.349879 
L 81.368949 90.0329 
L 82.238559 90.142153 
L 83.10817 90.401202 
L 83.97778 92.853356 
L 84.84739 93.46565 
L 85.717001 93.091058 
L 86.586611 87.031138 
L 87.456222 87.728075 
L 88.325832 85.466112 
L 89.195442 85.338089 
L 90.065053 87.390398 
L 90.934663 87.396897 
L 91.804274 87.047194 
L 92.673884 87.476451 
L 93.543494 87.538109 
L 94.413105 88.518703 
L 95.282715 87.388679 
L 96.152325 87.876892 
L 97.021936 93.749979 
L 97.891546 90.172242 
L 98.761157 89.304775 
L 100.500377 89.134885 
L 101.369988 89.207615 
L 102.239598 89.140064 
L 103.109209 89.242036 
L 103.978819 89.168614 
L 104.848429 88.540824 
L 105.71804 89.128883 
L 106.58765 88.537467 
L 107.457261 91.384877 
L 108.326871 93.06796 
L 109.196481 95.349998 
L 110.066092 94.499973 
L 110.935702 95.491128 
L 111.805313 95.294771 
L 112.674923 96.271073 
L 113.544533 94.913816 
L 114.414144 94.938785 
L 116.153364 96.715057 
L 117.022975 96.193099 
L 117.892585 92.782284 
L 118.762196 93.945637 
L 119.631806 94.784576 
L 120.501416 95.151773 
L 121.371027 92.353813 
L 122.240637 91.927373 
L 123.110248 90.573755 
L 123.979858 90.171303 
L 124.849468 90.194976 
L 125.719079 88.144507 
L 126.588689 87.412706 
L 127.4583 87.287314 
L 128.32791 88.117977 
L 129.19752 85.271202 
L 130.936741 82.822654 
L 131.806351 83.028098 
L 132.675962 83.505116 
L 133.545572 82.278393 
L 134.415183 83.564773 
L 135.284793 83.507709 
L 136.154403 84.368279 
L 137.024014 84.624398 
L 138.763235 85.337388 
L 141.372066 88.253648 
L 142.241676 88.944967 
L 143.111287 89.107964 
L 143.980897 91.723223 
L 144.850507 90.406846 
L 145.720118 90.254484 
L 146.589728 86.59955 
L 147.459338 86.45494 
L 148.328949 85.76568 
L 149.198559 85.329941 
L 150.06817 85.677089 
L 150.93778 85.236813 
L 151.80739 85.365466 
L 152.677001 83.949817 
L 153.546611 83.957011 
L 154.416222 84.088625 
L 155.285832 85.819689 
L 156.155442 86.178385 
L 157.025053 89.060084 
L 157.894663 89.291354 
L 158.764274 88.920814 
L 159.633884 90.064015 
L 160.503494 89.815335 
L 161.373105 88.834118 
L 162.242715 88.721776 
L 163.112325 91.066448 
L 163.981936 90.880055 
L 164.851546 90.101238 
L 165.721157 87.723538 
L 166.590767 87.700948 
L 167.460377 88.596591 
L 168.329988 88.630914 
L 169.199598 89.62775 
L 170.069209 89.352943 
L 170.938819 91.328306 
L 171.808429 92.106327 
L 172.67804 93.900817 
L 173.54765 91.401582 
L 174.417261 91.648826 
L 175.286871 90.758931 
L 176.156481 92.085379 
L 177.895702 92.089088 
L 178.765313 90.456394 
L 179.634923 91.401808 
L 180.504533 91.033463 
L 181.374144 88.145749 
L 182.243754 85.763246 
L 183.113364 85.833386 
L 183.982975 85.649389 
L 184.852585 85.636475 
L 185.722196 85.408381 
L 186.591806 84.201956 
L 187.461416 84.171055 
L 188.331027 82.876099 
L 189.200637 83.44426 
L 190.070248 83.432171 
L 190.939858 82.18428 
L 191.809468 83.320175 
L 192.679079 85.135198 
L 193.548689 84.005893 
L 194.4183 86.477613 
L 195.28791 86.31483 
L 196.15752 87.671668 
L 197.027131 89.899566 
L 197.896741 89.620897 
L 198.766351 90.080539 
L 201.375183 88.061834 
L 202.244793 88.880204 
L 203.114403 86.761065 
L 203.984014 87.290193 
L 204.853624 85.343026 
L 205.723235 85.681396 
L 206.592845 84.747386 
L 207.462455 84.526052 
L 208.332066 84.457943 
L 209.201676 83.048006 
L 210.071287 84.152296 
L 210.940897 84.971311 
L 211.810507 86.73076 
L 212.680118 84.295157 
L 213.549728 86.542604 
L 214.419338 87.16355 
L 215.288949 88.91836 
L 216.158559 88.876608 
L 217.02817 89.123946 
L 217.89778 87.93484 
L 218.76739 88.174332 
L 219.637001 89.998572 
L 220.506611 89.522023 
L 222.245832 89.528339 
L 223.115442 90.86395 
L 223.985053 91.363806 
L 224.854663 88.67836 
L 225.724274 87.63824 
L 226.593884 87.624728 
L 227.463494 88.648543 
L 228.333105 86.955717 
L 229.202715 86.83984 
L 230.072325 85.273198 
L 230.941936 85.441046 
L 231.811546 85.32365 
L 232.681157 82.932393 
L 233.550767 82.573943 
L 234.420377 82.418174 
L 235.289988 81.73231 
L 236.159598 82.164644 
L 237.898819 82.022893 
L 238.768429 84.517166 
L 239.63804 84.635953 
L 240.50765 87.282306 
L 242.246871 87.233178 
L 243.116481 86.337194 
L 243.986092 88.010171 
L 244.855702 87.391191 
L 245.725313 90.603057 
L 246.594923 87.903047 
L 247.464533 88.036786 
L 248.334144 84.579968 
L 249.203754 83.986302 
L 250.073364 84.070692 
L 250.942975 82.190248 
L 251.812585 80.862193 
L 252.682196 80.983958 
L 253.551806 79.779274 
L 254.421416 80.371482 
L 255.291027 81.896399 
L 256.160637 81.90329 
L 257.030248 82.987457 
L 257.899858 82.839282 
L 258.769468 84.05801 
L 259.639079 83.247994 
L 260.508689 83.247199 
L 261.3783 80.247249 
L 262.24791 81.98953 
L 263.11752 81.903424 
L 263.987131 87.088271 
L 264.856741 85.641205 
L 265.726351 85.905737 
L 266.595962 82.021017 
L 267.465572 83.542942 
L 268.335183 83.678965 
L 269.204793 84.655576 
L 270.074403 86.115741 
L 270.944014 85.146396 
L 271.813624 87.350955 
L 272.683235 85.954916 
L 273.552845 86.050233 
L 274.422455 85.271398 
L 275.292066 85.560704 
L 276.161676 84.748114 
L 277.031287 87.217518 
L 277.900897 86.796363 
L 278.770507 86.839435 
L 279.640118 84.571607 
L 280.509728 84.74318 
L 281.379338 85.606398 
L 282.248949 87.3156 
L 283.118559 88.265965 
L 283.98817 87.996661 
L 284.85778 85.851093 
L 285.72739 86.107733 
L 286.597001 83.666649 
L 287.466611 84.146565 
L 288.336222 84.017731 
L 289.205832 84.024801 
L 290.075442 85.214383 
L 290.945053 84.795765 
L 291.814663 84.833703 
L 292.684274 84.107573 
L 294.423494 84.736718 
L 295.293105 78.893342 
L 296.162715 78.672821 
L 297.032325 80.200719 
L 297.901936 77.602723 
L 298.771546 76.121294 
L 299.641157 75.625183 
L 300.510767 74.423917 
L 302.249988 74.467927 
L 303.119598 73.462162 
L 303.989209 71.142043 
L 304.858819 70.795285 
L 306.59804 72.126392 
L 307.46765 71.13285 
L 308.337261 72.705243 
L 309.206871 73.840874 
L 310.076481 74.379937 
L 310.946092 74.330508 
L 311.815702 72.807347 
L 312.685313 72.789182 
L 313.554923 72.356077 
L 314.424533 73.357358 
L 315.294144 73.402518 
L 316.163754 78.904104 
L 317.033364 78.806953 
L 317.902975 80.019624 
L 318.772585 79.42642 
L 319.642196 81.206487 
L 320.511806 80.480306 
L 321.381416 83.101728 
L 323.120637 82.693712 
L 323.990248 83.203127 
L 324.859858 84.549977 
L 325.729468 84.429278 
L 326.599079 86.446949 
L 327.468689 84.829426 
L 328.3383 84.603808 
L 329.20791 86.774353 
L 330.07752 83.256231 
L 330.947131 84.086559 
L 331.816741 83.340323 
L 332.686351 84.512563 
L 333.555962 84.606667 
L 334.425572 86.834253 
L 335.295183 86.327031 
L 336.164793 85.960631 
L 337.034403 83.38851 
L 337.904014 83.636048 
L 339.643235 81.623499 
L 340.512845 80.138591 
L 341.382455 80.032028 
L 342.252066 80.15885 
L 343.121676 81.284769 
L 343.991287 81.337043 
L 344.860897 81.859059 
L 345.730507 81.682888 
L 346.600118 81.048189 
L 347.469728 84.509043 
L 348.339338 83.81602 
L 349.208949 86.298578 
L 350.078559 84.630585 
L 350.94817 84.350806 
L 351.81778 84.384505 
L 352.68739 83.233404 
L 353.557001 82.581429 
L 354.426611 82.542836 
L 355.296222 82.227857 
L 356.165832 81.122702 
L 357.035442 82.534253 
L 357.905053 81.800969 
L 358.774663 79.981719 
L 359.644274 78.543713 
L 360.513884 78.702485 
L 361.383494 83.464333 
L 362.253105 83.463075 
L 363.122715 82.330888 
L 363.992325 81.776302 
L 364.861936 81.842957 
L 365.731546 79.970483 
L 366.601157 79.396326 
L 367.470767 79.450137 
L 368.340377 74.096945 
L 369.209988 77.721323 
L 370.079598 75.051869 
L 370.949209 77.56731 
L 371.818819 74.340055 
L 372.688429 74.021946 
L 373.55804 75.729078 
L 375.297261 75.592725 
L 376.166871 76.64651 
L 377.036481 79.222688 
L 377.906092 79.004957 
L 378.775702 81.069771 
L 379.645313 78.349223 
L 379.645313 78.349223 
" style="fill:none;stroke:#008000;stroke-linecap:square;stroke-width:1.5;"/>
   </g>
   <g id="patch_3">
    <path d="M 44.845313 224.64 
L 44.845313 7.2 
" style="fill:none;stroke:#000000;stroke-linecap:square;stroke-linejoin:miter;stroke-width:0.8;"/>
   </g>
   <g id="patch_4">
    <path d="M 379.645313 224.64 
L 379.645313 7.2 
" style="fill:none;stroke:#000000;stroke-linecap:square;stroke-linejoin:miter;stroke-width:0.8;"/>
   </g>
   <g id="patch_5">
    <path d="M 44.845313 224.64 
L 379.645313 224.64 
" style="fill:none;stroke:#000000;stroke-linecap:square;stroke-linejoin:miter;stroke-width:0.8;"/>
   </g>
   <g id="patch_6">
    <path d="M 44.845313 7.2 
L 379.645313 7.2 
" style="fill:none;stroke:#000000;stroke-linecap:square;stroke-linejoin:miter;stroke-width:0.8;"/>
   </g>
  </g>
 </g>
 <defs>
  <clipPath id="pb99e99e040">
   <rect height="217.44" width="334.8" x="44.845313" y="7.2"/>
  </clipPath>
 </defs>
</svg>
