<?xml version="1.0" encoding="utf-8" standalone="no"?>
<!DOCTYPE svg PUBLIC "-//W3C//DTD SVG 1.1//EN"
  "http://www.w3.org/Graphics/SVG/1.1/DTD/svg11.dtd">
<!-- Created with matplotlib (https://matplotlib.org/) -->
<svg height="280.15625pt" version="1.1" viewBox="0 0 424.828125 280.15625" width="424.828125pt" xmlns="http://www.w3.org/2000/svg" xmlns:xlink="http://www.w3.org/1999/xlink">
 <defs>
  <style type="text/css">
*{stroke-linecap:butt;stroke-linejoin:round;}
  </style>
 </defs>
 <g id="figure_1">
  <g id="patch_1">
   <path d="M 0 280.15625 
L 424.828125 280.15625 
L 424.828125 0 
L 0 0 
z
" style="fill:none;"/>
  </g>
  <g id="axes_1">
   <g id="patch_2">
    <path d="M 30.103125 242.6 
L 417.628125 242.6 
L 417.628125 7.2 
L 30.103125 7.2 
z
" style="fill:#ffffff;"/>
   </g>
   <g id="matplotlib.axis_1">
    <g id="xtick_1">
     <g id="line2d_1">
      <defs>
       <path d="M 0 0 
L 0 3.5 
" id="m57f35a0a98" style="stroke:#000000;stroke-width:0.8;"/>
      </defs>
      <g>
       <use style="stroke:#000000;stroke-width:0.8;" x="77.075852" xlink:href="#m57f35a0a98" y="242.6"/>
      </g>
     </g>
     <g id="text_1">
      <!-- 1989 -->
      <defs>
       <path d="M 12.40625 8.296875 
L 28.515625 8.296875 
L 28.515625 63.921875 
L 10.984375 60.40625 
L 10.984375 69.390625 
L 28.421875 72.90625 
L 38.28125 72.90625 
L 38.28125 8.296875 
L 54.390625 8.296875 
L 54.390625 0 
L 12.40625 0 
z
" id="DejaVuSans-49"/>
       <path d="M 10.984375 1.515625 
L 10.984375 10.5 
Q 14.703125 8.734375 18.5 7.8125 
Q 22.3125 6.890625 25.984375 6.890625 
Q 35.75 6.890625 40.890625 13.453125 
Q 46.046875 20.015625 46.78125 33.40625 
Q 43.953125 29.203125 39.59375 26.953125 
Q 35.25 24.703125 29.984375 24.703125 
Q 19.046875 24.703125 12.671875 31.3125 
Q 6.296875 37.9375 6.296875 49.421875 
Q 6.296875 60.640625 12.9375 67.421875 
Q 19.578125 74.21875 30.609375 74.21875 
Q 43.265625 74.21875 49.921875 64.515625 
Q 56.59375 54.828125 56.59375 36.375 
Q 56.59375 19.140625 48.40625 8.859375 
Q 40.234375 -1.421875 26.421875 -1.421875 
Q 22.703125 -1.421875 18.890625 -0.6875 
Q 15.09375 0.046875 10.984375 1.515625 
z
M 30.609375 32.421875 
Q 37.25 32.421875 41.125 36.953125 
Q 45.015625 41.5 45.015625 49.421875 
Q 45.015625 57.28125 41.125 61.84375 
Q 37.25 66.40625 30.609375 66.40625 
Q 23.96875 66.40625 20.09375 61.84375 
Q 16.21875 57.28125 16.21875 49.421875 
Q 16.21875 41.5 20.09375 36.953125 
Q 23.96875 32.421875 30.609375 32.421875 
z
" id="DejaVuSans-57"/>
       <path d="M 31.78125 34.625 
Q 24.75 34.625 20.71875 30.859375 
Q 16.703125 27.09375 16.703125 20.515625 
Q 16.703125 13.921875 20.71875 10.15625 
Q 24.75 6.390625 31.78125 6.390625 
Q 38.8125 6.390625 42.859375 10.171875 
Q 46.921875 13.96875 46.921875 20.515625 
Q 46.921875 27.09375 42.890625 30.859375 
Q 38.875 34.625 31.78125 34.625 
z
M 21.921875 38.8125 
Q 15.578125 40.375 12.03125 44.71875 
Q 8.5 49.078125 8.5 55.328125 
Q 8.5 64.0625 14.71875 69.140625 
Q 20.953125 74.21875 31.78125 74.21875 
Q 42.671875 74.21875 48.875 69.140625 
Q 55.078125 64.0625 55.078125 55.328125 
Q 55.078125 49.078125 51.53125 44.71875 
Q 48 40.375 41.703125 38.8125 
Q 48.828125 37.15625 52.796875 32.3125 
Q 56.78125 27.484375 56.78125 20.515625 
Q 56.78125 9.90625 50.3125 4.234375 
Q 43.84375 -1.421875 31.78125 -1.421875 
Q 19.734375 -1.421875 13.25 4.234375 
Q 6.78125 9.90625 6.78125 20.515625 
Q 6.78125 27.484375 10.78125 32.3125 
Q 14.796875 37.15625 21.921875 38.8125 
z
M 18.3125 54.390625 
Q 18.3125 48.734375 21.84375 45.5625 
Q 25.390625 42.390625 31.78125 42.390625 
Q 38.140625 42.390625 41.71875 45.5625 
Q 45.3125 48.734375 45.3125 54.390625 
Q 45.3125 60.0625 41.71875 63.234375 
Q 38.140625 66.40625 31.78125 66.40625 
Q 25.390625 66.40625 21.84375 63.234375 
Q 18.3125 60.0625 18.3125 54.390625 
z
" id="DejaVuSans-56"/>
      </defs>
      <g transform="translate(64.350852 257.198438)scale(0.1 -0.1)">
       <use xlink:href="#DejaVuSans-49"/>
       <use x="63.623047" xlink:href="#DejaVuSans-57"/>
       <use x="127.246094" xlink:href="#DejaVuSans-56"/>
       <use x="190.869141" xlink:href="#DejaVuSans-57"/>
      </g>
     </g>
    </g>
    <g id="xtick_2">
     <g id="line2d_2">
      <g>
       <use style="stroke:#000000;stroke-width:0.8;" x="135.791761" xlink:href="#m57f35a0a98" y="242.6"/>
      </g>
     </g>
     <g id="text_2">
      <!-- 1994 -->
      <defs>
       <path d="M 37.796875 64.3125 
L 12.890625 25.390625 
L 37.796875 25.390625 
z
M 35.203125 72.90625 
L 47.609375 72.90625 
L 47.609375 25.390625 
L 58.015625 25.390625 
L 58.015625 17.1875 
L 47.609375 17.1875 
L 47.609375 0 
L 37.796875 0 
L 37.796875 17.1875 
L 4.890625 17.1875 
L 4.890625 26.703125 
z
" id="DejaVuSans-52"/>
      </defs>
      <g transform="translate(123.066761 257.198438)scale(0.1 -0.1)">
       <use xlink:href="#DejaVuSans-49"/>
       <use x="63.623047" xlink:href="#DejaVuSans-57"/>
       <use x="127.246094" xlink:href="#DejaVuSans-57"/>
       <use x="190.869141" xlink:href="#DejaVuSans-52"/>
      </g>
     </g>
    </g>
    <g id="xtick_3">
     <g id="line2d_3">
      <g>
       <use style="stroke:#000000;stroke-width:0.8;" x="194.50767" xlink:href="#m57f35a0a98" y="242.6"/>
      </g>
     </g>
     <g id="text_3">
      <!-- 1999 -->
      <g transform="translate(181.78267 257.198438)scale(0.1 -0.1)">
       <use xlink:href="#DejaVuSans-49"/>
       <use x="63.623047" xlink:href="#DejaVuSans-57"/>
       <use x="127.246094" xlink:href="#DejaVuSans-57"/>
       <use x="190.869141" xlink:href="#DejaVuSans-57"/>
      </g>
     </g>
    </g>
    <g id="xtick_4">
     <g id="line2d_4">
      <g>
       <use style="stroke:#000000;stroke-width:0.8;" x="253.22358" xlink:href="#m57f35a0a98" y="242.6"/>
      </g>
     </g>
     <g id="text_4">
      <!-- 2004 -->
      <defs>
       <path d="M 19.1875 8.296875 
L 53.609375 8.296875 
L 53.609375 0 
L 7.328125 0 
L 7.328125 8.296875 
Q 12.9375 14.109375 22.625 23.890625 
Q 32.328125 33.6875 34.8125 36.53125 
Q 39.546875 41.84375 41.421875 45.53125 
Q 43.3125 49.21875 43.3125 52.78125 
Q 43.3125 58.59375 39.234375 62.25 
Q 35.15625 65.921875 28.609375 65.921875 
Q 23.96875 65.921875 18.8125 64.3125 
Q 13.671875 62.703125 7.8125 59.421875 
L 7.8125 69.390625 
Q 13.765625 71.78125 18.9375 73 
Q 24.125 74.21875 28.421875 74.21875 
Q 39.75 74.21875 46.484375 68.546875 
Q 53.21875 62.890625 53.21875 53.421875 
Q 53.21875 48.921875 51.53125 44.890625 
Q 49.859375 40.875 45.40625 35.40625 
Q 44.1875 33.984375 37.640625 27.21875 
Q 31.109375 20.453125 19.1875 8.296875 
z
" id="DejaVuSans-50"/>
       <path d="M 31.78125 66.40625 
Q 24.171875 66.40625 20.328125 58.90625 
Q 16.5 51.421875 16.5 36.375 
Q 16.5 21.390625 20.328125 13.890625 
Q 24.171875 6.390625 31.78125 6.390625 
Q 39.453125 6.390625 43.28125 13.890625 
Q 47.125 21.390625 47.125 36.375 
Q 47.125 51.421875 43.28125 58.90625 
Q 39.453125 66.40625 31.78125 66.40625 
z
M 31.78125 74.21875 
Q 44.046875 74.21875 50.515625 64.515625 
Q 56.984375 54.828125 56.984375 36.375 
Q 56.984375 17.96875 50.515625 8.265625 
Q 44.046875 -1.421875 31.78125 -1.421875 
Q 19.53125 -1.421875 13.0625 8.265625 
Q 6.59375 17.96875 6.59375 36.375 
Q 6.59375 54.828125 13.0625 64.515625 
Q 19.53125 74.21875 31.78125 74.21875 
z
" id="DejaVuSans-48"/>
      </defs>
      <g transform="translate(240.49858 257.198438)scale(0.1 -0.1)">
       <use xlink:href="#DejaVuSans-50"/>
       <use x="63.623047" xlink:href="#DejaVuSans-48"/>
       <use x="127.246094" xlink:href="#DejaVuSans-48"/>
       <use x="190.869141" xlink:href="#DejaVuSans-52"/>
      </g>
     </g>
    </g>
    <g id="xtick_5">
     <g id="line2d_5">
      <g>
       <use style="stroke:#000000;stroke-width:0.8;" x="311.939489" xlink:href="#m57f35a0a98" y="242.6"/>
      </g>
     </g>
     <g id="text_5">
      <!-- 2009 -->
      <g transform="translate(299.214489 257.198438)scale(0.1 -0.1)">
       <use xlink:href="#DejaVuSans-50"/>
       <use x="63.623047" xlink:href="#DejaVuSans-48"/>
       <use x="127.246094" xlink:href="#DejaVuSans-48"/>
       <use x="190.869141" xlink:href="#DejaVuSans-57"/>
      </g>
     </g>
    </g>
    <g id="xtick_6">
     <g id="line2d_6">
      <g>
       <use style="stroke:#000000;stroke-width:0.8;" x="370.655398" xlink:href="#m57f35a0a98" y="242.6"/>
      </g>
     </g>
     <g id="text_6">
      <!-- 2014 -->
      <g transform="translate(357.930398 257.198438)scale(0.1 -0.1)">
       <use xlink:href="#DejaVuSans-50"/>
       <use x="63.623047" xlink:href="#DejaVuSans-48"/>
       <use x="127.246094" xlink:href="#DejaVuSans-49"/>
       <use x="190.869141" xlink:href="#DejaVuSans-52"/>
      </g>
     </g>
    </g>
    <g id="xtick_7">
     <g id="line2d_7">
      <defs>
       <path d="M 0 0 
L 0 2 
" id="m9053b5756f" style="stroke:#000000;stroke-width:0.6;"/>
      </defs>
      <g>
       <use style="stroke:#000000;stroke-width:0.6;" x="30.103125" xlink:href="#m9053b5756f" y="242.6"/>
      </g>
     </g>
    </g>
    <g id="xtick_8">
     <g id="line2d_8">
      <g>
       <use style="stroke:#000000;stroke-width:0.6;" x="41.846307" xlink:href="#m9053b5756f" y="242.6"/>
      </g>
     </g>
    </g>
    <g id="xtick_9">
     <g id="line2d_9">
      <g>
       <use style="stroke:#000000;stroke-width:0.6;" x="53.589489" xlink:href="#m9053b5756f" y="242.6"/>
      </g>
     </g>
    </g>
    <g id="xtick_10">
     <g id="line2d_10">
      <g>
       <use style="stroke:#000000;stroke-width:0.6;" x="65.33267" xlink:href="#m9053b5756f" y="242.6"/>
      </g>
     </g>
    </g>
    <g id="xtick_11">
     <g id="line2d_11">
      <g>
       <use style="stroke:#000000;stroke-width:0.6;" x="88.819034" xlink:href="#m9053b5756f" y="242.6"/>
      </g>
     </g>
    </g>
    <g id="xtick_12">
     <g id="line2d_12">
      <g>
       <use style="stroke:#000000;stroke-width:0.6;" x="100.562216" xlink:href="#m9053b5756f" y="242.6"/>
      </g>
     </g>
    </g>
    <g id="xtick_13">
     <g id="line2d_13">
      <g>
       <use style="stroke:#000000;stroke-width:0.6;" x="112.305398" xlink:href="#m9053b5756f" y="242.6"/>
      </g>
     </g>
    </g>
    <g id="xtick_14">
     <g id="line2d_14">
      <g>
       <use style="stroke:#000000;stroke-width:0.6;" x="124.04858" xlink:href="#m9053b5756f" y="242.6"/>
      </g>
     </g>
    </g>
    <g id="xtick_15">
     <g id="line2d_15">
      <g>
       <use style="stroke:#000000;stroke-width:0.6;" x="147.534943" xlink:href="#m9053b5756f" y="242.6"/>
      </g>
     </g>
    </g>
    <g id="xtick_16">
     <g id="line2d_16">
      <g>
       <use style="stroke:#000000;stroke-width:0.6;" x="159.278125" xlink:href="#m9053b5756f" y="242.6"/>
      </g>
     </g>
    </g>
    <g id="xtick_17">
     <g id="line2d_17">
      <g>
       <use style="stroke:#000000;stroke-width:0.6;" x="171.021307" xlink:href="#m9053b5756f" y="242.6"/>
      </g>
     </g>
    </g>
    <g id="xtick_18">
     <g id="line2d_18">
      <g>
       <use style="stroke:#000000;stroke-width:0.6;" x="182.764489" xlink:href="#m9053b5756f" y="242.6"/>
      </g>
     </g>
    </g>
    <g id="xtick_19">
     <g id="line2d_19">
      <g>
       <use style="stroke:#000000;stroke-width:0.6;" x="206.250852" xlink:href="#m9053b5756f" y="242.6"/>
      </g>
     </g>
    </g>
    <g id="xtick_20">
     <g id="line2d_20">
      <g>
       <use style="stroke:#000000;stroke-width:0.6;" x="217.994034" xlink:href="#m9053b5756f" y="242.6"/>
      </g>
     </g>
    </g>
    <g id="xtick_21">
     <g id="line2d_21">
      <g>
       <use style="stroke:#000000;stroke-width:0.6;" x="229.737216" xlink:href="#m9053b5756f" y="242.6"/>
      </g>
     </g>
    </g>
    <g id="xtick_22">
     <g id="line2d_22">
      <g>
       <use style="stroke:#000000;stroke-width:0.6;" x="241.480398" xlink:href="#m9053b5756f" y="242.6"/>
      </g>
     </g>
    </g>
    <g id="xtick_23">
     <g id="line2d_23">
      <g>
       <use style="stroke:#000000;stroke-width:0.6;" x="264.966761" xlink:href="#m9053b5756f" y="242.6"/>
      </g>
     </g>
    </g>
    <g id="xtick_24">
     <g id="line2d_24">
      <g>
       <use style="stroke:#000000;stroke-width:0.6;" x="276.709943" xlink:href="#m9053b5756f" y="242.6"/>
      </g>
     </g>
    </g>
    <g id="xtick_25">
     <g id="line2d_25">
      <g>
       <use style="stroke:#000000;stroke-width:0.6;" x="288.453125" xlink:href="#m9053b5756f" y="242.6"/>
      </g>
     </g>
    </g>
    <g id="xtick_26">
     <g id="line2d_26">
      <g>
       <use style="stroke:#000000;stroke-width:0.6;" x="300.196307" xlink:href="#m9053b5756f" y="242.6"/>
      </g>
     </g>
    </g>
    <g id="xtick_27">
     <g id="line2d_27">
      <g>
       <use style="stroke:#000000;stroke-width:0.6;" x="323.68267" xlink:href="#m9053b5756f" y="242.6"/>
      </g>
     </g>
    </g>
    <g id="xtick_28">
     <g id="line2d_28">
      <g>
       <use style="stroke:#000000;stroke-width:0.6;" x="335.425852" xlink:href="#m9053b5756f" y="242.6"/>
      </g>
     </g>
    </g>
    <g id="xtick_29">
     <g id="line2d_29">
      <g>
       <use style="stroke:#000000;stroke-width:0.6;" x="347.169034" xlink:href="#m9053b5756f" y="242.6"/>
      </g>
     </g>
    </g>
    <g id="xtick_30">
     <g id="line2d_30">
      <g>
       <use style="stroke:#000000;stroke-width:0.6;" x="358.912216" xlink:href="#m9053b5756f" y="242.6"/>
      </g>
     </g>
    </g>
    <g id="xtick_31">
     <g id="line2d_31">
      <g>
       <use style="stroke:#000000;stroke-width:0.6;" x="382.39858" xlink:href="#m9053b5756f" y="242.6"/>
      </g>
     </g>
    </g>
    <g id="xtick_32">
     <g id="line2d_32">
      <g>
       <use style="stroke:#000000;stroke-width:0.6;" x="394.141761" xlink:href="#m9053b5756f" y="242.6"/>
      </g>
     </g>
    </g>
    <g id="xtick_33">
     <g id="line2d_33">
      <g>
       <use style="stroke:#000000;stroke-width:0.6;" x="405.884943" xlink:href="#m9053b5756f" y="242.6"/>
      </g>
     </g>
    </g>
    <g id="xtick_34">
     <g id="line2d_34">
      <g>
       <use style="stroke:#000000;stroke-width:0.6;" x="417.628125" xlink:href="#m9053b5756f" y="242.6"/>
      </g>
     </g>
    </g>
    <g id="text_7">
     <!-- DATE -->
     <defs>
      <path d="M 19.671875 64.796875 
L 19.671875 8.109375 
L 31.59375 8.109375 
Q 46.6875 8.109375 53.6875 14.9375 
Q 60.6875 21.78125 60.6875 36.53125 
Q 60.6875 51.171875 53.6875 57.984375 
Q 46.6875 64.796875 31.59375 64.796875 
z
M 9.8125 72.90625 
L 30.078125 72.90625 
Q 51.265625 72.90625 61.171875 64.09375 
Q 71.09375 55.28125 71.09375 36.53125 
Q 71.09375 17.671875 61.125 8.828125 
Q 51.171875 0 30.078125 0 
L 9.8125 0 
z
" id="DejaVuSans-68"/>
      <path d="M 34.1875 63.1875 
L 20.796875 26.90625 
L 47.609375 26.90625 
z
M 28.609375 72.90625 
L 39.796875 72.90625 
L 67.578125 0 
L 57.328125 0 
L 50.6875 18.703125 
L 17.828125 18.703125 
L 11.1875 0 
L 0.78125 0 
z
" id="DejaVuSans-65"/>
      <path d="M -0.296875 72.90625 
L 61.375 72.90625 
L 61.375 64.59375 
L 35.5 64.59375 
L 35.5 0 
L 25.59375 0 
L 25.59375 64.59375 
L -0.296875 64.59375 
z
" id="DejaVuSans-84"/>
      <path d="M 9.8125 72.90625 
L 55.90625 72.90625 
L 55.90625 64.59375 
L 19.671875 64.59375 
L 19.671875 43.015625 
L 54.390625 43.015625 
L 54.390625 34.71875 
L 19.671875 34.71875 
L 19.671875 8.296875 
L 56.78125 8.296875 
L 56.78125 0 
L 9.8125 0 
z
" id="DejaVuSans-69"/>
     </defs>
     <g transform="translate(210.857031 270.876562)scale(0.1 -0.1)">
      <use xlink:href="#DejaVuSans-68"/>
      <use x="75.251953" xlink:href="#DejaVuSans-65"/>
      <use x="135.910156" xlink:href="#DejaVuSans-84"/>
      <use x="196.994141" xlink:href="#DejaVuSans-69"/>
     </g>
    </g>
   </g>
   <g id="matplotlib.axis_2">
    <g id="ytick_1">
     <g id="line2d_35">
      <defs>
       <path d="M 0 0 
L -3.5 0 
" id="m4cfc43837d" style="stroke:#000000;stroke-width:0.8;"/>
      </defs>
      <g>
       <use style="stroke:#000000;stroke-width:0.8;" x="30.103125" xlink:href="#m4cfc43837d" y="235.184892"/>
      </g>
     </g>
     <g id="text_8">
      <!-- 4.0 -->
      <defs>
       <path d="M 10.6875 12.40625 
L 21 12.40625 
L 21 0 
L 10.6875 0 
z
" id="DejaVuSans-46"/>
      </defs>
      <g transform="translate(7.2 238.984111)scale(0.1 -0.1)">
       <use xlink:href="#DejaVuSans-52"/>
       <use x="63.623047" xlink:href="#DejaVuSans-46"/>
       <use x="95.410156" xlink:href="#DejaVuSans-48"/>
      </g>
     </g>
    </g>
    <g id="ytick_2">
     <g id="line2d_36">
      <g>
       <use style="stroke:#000000;stroke-width:0.8;" x="30.103125" xlink:href="#m4cfc43837d" y="184.826"/>
      </g>
     </g>
     <g id="text_9">
      <!-- 4.2 -->
      <g transform="translate(7.2 188.625218)scale(0.1 -0.1)">
       <use xlink:href="#DejaVuSans-52"/>
       <use x="63.623047" xlink:href="#DejaVuSans-46"/>
       <use x="95.410156" xlink:href="#DejaVuSans-50"/>
      </g>
     </g>
    </g>
    <g id="ytick_3">
     <g id="line2d_37">
      <g>
       <use style="stroke:#000000;stroke-width:0.8;" x="30.103125" xlink:href="#m4cfc43837d" y="134.467107"/>
      </g>
     </g>
     <g id="text_10">
      <!-- 4.4 -->
      <g transform="translate(7.2 138.266326)scale(0.1 -0.1)">
       <use xlink:href="#DejaVuSans-52"/>
       <use x="63.623047" xlink:href="#DejaVuSans-46"/>
       <use x="95.410156" xlink:href="#DejaVuSans-52"/>
      </g>
     </g>
    </g>
    <g id="ytick_4">
     <g id="line2d_38">
      <g>
       <use style="stroke:#000000;stroke-width:0.8;" x="30.103125" xlink:href="#m4cfc43837d" y="84.108215"/>
      </g>
     </g>
     <g id="text_11">
      <!-- 4.6 -->
      <defs>
       <path d="M 33.015625 40.375 
Q 26.375 40.375 22.484375 35.828125 
Q 18.609375 31.296875 18.609375 23.390625 
Q 18.609375 15.53125 22.484375 10.953125 
Q 26.375 6.390625 33.015625 6.390625 
Q 39.65625 6.390625 43.53125 10.953125 
Q 47.40625 15.53125 47.40625 23.390625 
Q 47.40625 31.296875 43.53125 35.828125 
Q 39.65625 40.375 33.015625 40.375 
z
M 52.59375 71.296875 
L 52.59375 62.3125 
Q 48.875 64.0625 45.09375 64.984375 
Q 41.3125 65.921875 37.59375 65.921875 
Q 27.828125 65.921875 22.671875 59.328125 
Q 17.53125 52.734375 16.796875 39.40625 
Q 19.671875 43.65625 24.015625 45.921875 
Q 28.375 48.1875 33.59375 48.1875 
Q 44.578125 48.1875 50.953125 41.515625 
Q 57.328125 34.859375 57.328125 23.390625 
Q 57.328125 12.15625 50.6875 5.359375 
Q 44.046875 -1.421875 33.015625 -1.421875 
Q 20.359375 -1.421875 13.671875 8.265625 
Q 6.984375 17.96875 6.984375 36.375 
Q 6.984375 53.65625 15.1875 63.9375 
Q 23.390625 74.21875 37.203125 74.21875 
Q 40.921875 74.21875 44.703125 73.484375 
Q 48.484375 72.75 52.59375 71.296875 
z
" id="DejaVuSans-54"/>
      </defs>
      <g transform="translate(7.2 87.907433)scale(0.1 -0.1)">
       <use xlink:href="#DejaVuSans-52"/>
       <use x="63.623047" xlink:href="#DejaVuSans-46"/>
       <use x="95.410156" xlink:href="#DejaVuSans-54"/>
      </g>
     </g>
    </g>
    <g id="ytick_5">
     <g id="line2d_39">
      <g>
       <use style="stroke:#000000;stroke-width:0.8;" x="30.103125" xlink:href="#m4cfc43837d" y="33.749322"/>
      </g>
     </g>
     <g id="text_12">
      <!-- 4.8 -->
      <g transform="translate(7.2 37.548541)scale(0.1 -0.1)">
       <use xlink:href="#DejaVuSans-52"/>
       <use x="63.623047" xlink:href="#DejaVuSans-46"/>
       <use x="95.410156" xlink:href="#DejaVuSans-56"/>
      </g>
     </g>
    </g>
   </g>
   <g id="line2d_40">
    <path clip-path="url(#p9854e493d1)" d="M 30.103125 163.761307 
L 31.081723 170.209468 
L 32.060322 201.351412 
L 33.03892 222.271001 
L 34.017519 231.9 
L 34.996117 219.57353 
L 35.974716 200.666916 
L 36.953314 198.153125 
L 37.931913 208.988011 
L 38.910511 227.387313 
L 39.88911 219.963506 
L 40.867708 177.282177 
L 41.846307 160.996583 
L 42.824905 179.96258 
L 44.782102 224.199529 
L 45.760701 229.64054 
L 46.739299 211.84736 
L 47.717898 188.327105 
L 48.696496 193.291352 
L 50.653693 222.004764 
L 51.632292 214.207326 
L 52.61089 179.413199 
L 53.589489 159.252578 
L 54.568087 172.392247 
L 55.546686 188.923168 
L 56.525284 210.764755 
L 57.503883 216.202265 
L 59.46108 176.715207 
L 60.439678 172.374638 
L 61.418277 194.726582 
L 62.396875 209.844372 
L 63.375473 201.294568 
L 65.33267 139.401254 
L 66.311269 151.371259 
L 67.289867 171.564143 
L 68.268466 198.193337 
L 69.247064 205.595092 
L 71.204261 162.112287 
L 72.18286 152.686188 
L 73.161458 181.715644 
L 74.140057 198.015021 
L 75.118655 190.857898 
L 76.097254 159.089237 
L 77.075852 145.629846 
L 78.054451 149.657966 
L 79.033049 160.836569 
L 80.011648 190.856738 
L 80.990246 196.404767 
L 82.947443 158.520587 
L 83.926042 155.092783 
L 84.90464 175.126529 
L 85.883239 187.913948 
L 86.861837 175.980669 
L 87.840436 126.124062 
L 88.819034 125.631392 
L 89.797633 148.05281 
L 90.776231 161.372292 
L 91.75483 182.601452 
L 92.733428 188.111643 
L 93.712027 167.398445 
L 94.690625 149.882008 
L 95.669223 148.272816 
L 96.647822 161.838498 
L 97.62642 182.009323 
L 98.605019 177.825087 
L 99.583617 146.390071 
L 100.562216 120.720111 
L 101.540814 146.800751 
L 102.519413 160.792978 
L 103.498011 183.081335 
L 104.47661 176.909788 
L 105.455208 155.76473 
L 106.433807 138.700789 
L 107.412405 141.648613 
L 109.369602 177.138209 
L 110.348201 163.721721 
L 111.326799 140.60493 
L 112.305398 122.883441 
L 113.283996 138.476109 
L 115.241193 173.898627 
L 116.219792 182.974865 
L 117.19839 168.307688 
L 118.176989 146.960532 
L 119.155587 150.133882 
L 120.134186 164.286592 
L 121.112784 176.133825 
L 122.091383 160.332814 
L 123.069981 125.1659 
L 124.04858 115.147538 
L 125.027178 125.046162 
L 126.005777 140.651499 
L 126.984375 168.838655 
L 127.962973 181.115917 
L 129.92017 132.453638 
L 130.898769 132.589531 
L 131.877367 156.579178 
L 132.855966 173.765252 
L 133.834564 157.166797 
L 135.791761 98.015285 
L 136.77036 117.407141 
L 137.748958 141.378389 
L 138.727557 169.132584 
L 139.706155 174.839313 
L 140.684754 145.422146 
L 141.663352 128.88422 
L 142.641951 133.121847 
L 143.620549 152.961844 
L 144.599148 168.101621 
L 145.577746 154.419278 
L 146.556345 124.277268 
L 147.534943 102.564102 
L 148.513542 116.707278 
L 149.49214 135.038944 
L 150.470739 159.247461 
L 151.449337 161.125423 
L 152.427936 144.392641 
L 153.406534 120.829316 
L 154.385133 110.606994 
L 155.363731 143.747443 
L 156.34233 159.623301 
L 157.320928 140.083126 
L 158.299527 107.037706 
L 159.278125 85.405181 
L 161.235322 118.058263 
L 162.21392 147.893639 
L 163.192519 149.656652 
L 164.171117 132.988432 
L 165.149716 120.898142 
L 166.128314 119.159536 
L 167.106913 141.549073 
L 168.085511 156.289085 
L 169.06411 135.63485 
L 170.042708 107.980944 
L 171.021307 86.710869 
L 171.999905 109.953238 
L 173.957102 151.419531 
L 174.935701 159.143786 
L 175.914299 139.735014 
L 176.892898 113.704412 
L 177.871496 115.616368 
L 178.850095 132.963847 
L 179.828693 146.978075 
L 180.807292 132.63771 
L 181.78589 103.525143 
L 182.764489 96.27366 
L 183.743087 115.509687 
L 184.721686 119.163318 
L 185.700284 149.428546 
L 186.678883 145.269791 
L 187.657481 119.445656 
L 188.63608 98.820861 
L 189.614678 99.645713 
L 190.593277 116.309749 
L 191.571875 138.702046 
L 192.550473 134.516477 
L 194.50767 77.487655 
L 195.486269 106.047726 
L 196.464867 107.279012 
L 197.443466 137.368838 
L 198.422064 140.924114 
L 200.379261 89.206326 
L 201.35786 91.997174 
L 202.336458 117.222033 
L 203.315057 136.98355 
L 204.293655 132.154195 
L 205.272254 97.020385 
L 206.250852 77.25282 
L 207.229451 97.586892 
L 208.208049 114.729023 
L 209.186648 134.492979 
L 210.165246 125.346806 
L 211.143845 106.440983 
L 212.122443 93.096421 
L 213.101042 84.3967 
L 215.058239 129.296368 
L 216.036837 114.87684 
L 217.015436 76.69753 
L 217.994034 60.857732 
L 218.972633 90.030542 
L 219.951231 101.544591 
L 220.92983 129.98114 
L 221.908428 131.102687 
L 222.887027 108.231512 
L 223.865625 92.891126 
L 224.844223 83.933423 
L 225.822822 114.191381 
L 226.80142 130.677525 
L 227.780019 129.929824 
L 228.758617 100.976156 
L 229.737216 75.374649 
L 230.715814 95.172386 
L 231.694413 100.38821 
L 232.673011 121.383683 
L 233.65161 123.032285 
L 235.608807 76.851914 
L 236.587405 78.736966 
L 237.566004 100.244338 
L 238.544602 118.160814 
L 239.523201 113.354514 
L 240.501799 80.7993 
L 241.480398 58.394525 
L 242.458996 73.315354 
L 243.437595 96.908781 
L 244.416193 123.544162 
L 245.394792 122.353163 
L 246.37339 106.342819 
L 247.351989 77.277697 
L 248.330587 71.799817 
L 249.309186 101.313594 
L 250.287784 119.309396 
L 251.266383 113.358494 
L 252.244981 74.0402 
L 253.22358 50.427646 
L 254.202178 67.757193 
L 256.159375 118.673906 
L 257.137973 112.063534 
L 259.09517 78.32726 
L 260.073769 82.297022 
L 261.052367 98.321995 
L 262.030966 116.353473 
L 263.009564 110.416702 
L 263.988163 68.785595 
L 264.966761 56.16326 
L 265.94536 78.365108 
L 266.923958 85.447671 
L 267.902557 119.38829 
L 268.881155 117.226075 
L 269.859754 84.049289 
L 270.838352 62.613113 
L 271.816951 59.986679 
L 273.774148 110.017191 
L 274.752746 108.055532 
L 275.731345 62.902372 
L 276.709943 71.789694 
L 278.66714 86.86333 
L 279.645739 116.402095 
L 280.624337 109.273483 
L 282.581534 56.641882 
L 283.560133 55.3541 
L 284.538731 93.707003 
L 285.51733 108.291964 
L 286.495928 102.827327 
L 287.474527 75.202355 
L 288.453125 54.141394 
L 289.431723 54.631044 
L 290.410322 84.847884 
L 291.38892 107.058222 
L 292.367519 103.640813 
L 293.346117 80.381739 
L 295.303314 49.58548 
L 296.281913 78.979141 
L 297.260511 101.060879 
L 298.23911 98.620499 
L 299.217708 66.352706 
L 300.196307 47.980803 
L 301.174905 62.880038 
L 302.153504 81.704435 
L 303.132102 106.568793 
L 304.110701 105.904449 
L 305.089299 73.032297 
L 306.067898 57.067079 
L 307.046496 64.440735 
L 308.025095 88.618143 
L 309.003693 106.559108 
L 309.982292 98.907278 
L 310.96089 60.134139 
L 311.939489 43.636389 
L 312.918087 71.915535 
L 313.896686 88.271553 
L 314.875284 114.430223 
L 315.853883 116.323556 
L 316.832481 89.856989 
L 317.81108 73.152218 
L 318.789678 68.732492 
L 319.768277 96.033912 
L 320.746875 111.308127 
L 321.725473 111.136747 
L 322.704072 57.246049 
L 323.68267 38.970789 
L 324.661269 57.590703 
L 326.618466 119.905935 
L 327.597064 107.006381 
L 328.575663 72.0757 
L 329.554261 52.463984 
L 330.53286 52.252471 
L 332.490057 112.360953 
L 333.468655 101.689207 
L 334.447254 49.093862 
L 335.425852 37.975454 
L 336.404451 64.8887 
L 337.383049 85.075686 
L 338.361648 111.13731 
L 339.340246 109.14038 
L 340.318845 75.803082 
L 341.297443 48.257894 
L 342.276042 50.708552 
L 343.25464 84.141413 
L 344.233239 108.339891 
L 345.211837 98.897078 
L 346.190436 64.992135 
L 347.169034 54.350453 
L 348.147633 74.465879 
L 349.126231 99.521369 
L 350.10483 116.266033 
L 351.083428 101.729107 
L 352.062027 79.952172 
L 353.040625 51.953131 
L 354.019223 59.128256 
L 354.997822 91.143601 
L 355.97642 108.273298 
L 356.955019 97.472634 
L 357.933617 69.869395 
L 358.912216 46.520542 
L 359.890814 66.397053 
L 360.869413 75.37636 
L 361.848011 106.527843 
L 362.82661 106.654589 
L 363.805208 81.060722 
L 364.783807 58.469265 
L 365.762405 63.01896 
L 367.719602 104.384778 
L 368.698201 89.73635 
L 369.676799 50.980452 
L 370.655398 28.125468 
L 371.633996 52.297748 
L 372.612595 71.090035 
L 373.591193 108.534755 
L 374.569792 103.434941 
L 375.54839 78.121545 
L 376.526989 62.14969 
L 377.505587 62.976135 
L 378.484186 81.758089 
L 379.462784 102.753455 
L 380.441383 83.554575 
L 382.39858 36.333768 
L 383.377178 44.614156 
L 384.355777 71.794032 
L 385.334375 110.046929 
L 386.312973 106.2961 
L 387.291572 76.221944 
L 388.27017 55.091873 
L 389.248769 57.455198 
L 390.227367 78.016774 
L 391.205966 104.909834 
L 392.184564 100.909318 
L 393.163163 74.825676 
L 394.141761 43.09365 
L 395.12036 66.550912 
L 396.098958 94.783124 
L 397.077557 111.230033 
L 398.056155 107.282342 
L 399.034754 72.840057 
L 400.013352 48.624964 
L 400.991951 46.488062 
L 402.949148 105.210201 
L 403.927746 101.377287 
L 404.906345 52.547031 
L 405.884943 47.942653 
L 406.863542 84.093575 
L 407.84214 80.202248 
L 408.820739 113.986107 
L 409.799337 103.581194 
L 411.756534 53.925325 
L 412.735133 61.266305 
L 413.713731 86.317098 
L 414.69233 99.423175 
L 415.670928 89.605421 
L 416.649527 48.226286 
L 417.628125 17.9 
L 417.628125 17.9 
" style="fill:none;stroke:#1f77b4;stroke-linecap:square;stroke-width:1.5;"/>
   </g>
   <g id="line2d_41">
    <path clip-path="url(#p9854e493d1)" d="M 40.867708 203.458981 
L 41.846307 203.228587 
L 42.824905 204.041346 
L 44.782102 204.278837 
L 45.760701 204.090549 
L 46.739299 203.446701 
L 47.717898 202.418384 
L 48.696496 202.013236 
L 49.675095 201.869685 
L 51.632292 200.941458 
L 52.61089 201.119043 
L 53.589489 200.973709 
L 54.568087 200.342848 
L 57.503883 196.99096 
L 58.482481 195.637435 
L 59.46108 194.669777 
L 60.439678 192.926718 
L 63.375473 189.792387 
L 64.354072 189.053426 
L 67.289867 184.200815 
L 68.268466 183.153196 
L 70.225663 181.238218 
L 71.204261 180.021308 
L 72.18286 178.380604 
L 74.140057 176.31058 
L 76.097254 174.486154 
L 77.075852 175.005204 
L 78.054451 174.862429 
L 79.033049 173.968465 
L 80.011648 173.357082 
L 80.990246 172.591221 
L 81.968845 172.169482 
L 82.947443 171.870173 
L 83.926042 172.070723 
L 84.90464 171.52163 
L 85.883239 170.679874 
L 86.861837 169.440105 
L 87.840436 166.693007 
L 88.819034 165.026469 
L 89.797633 164.892706 
L 90.776231 164.93735 
L 92.733428 163.558316 
L 93.712027 162.660551 
L 94.690625 161.940669 
L 95.669223 161.372339 
L 96.647822 160.265003 
L 97.62642 159.772951 
L 98.605019 159.926652 
L 99.583617 161.615486 
L 100.562216 161.206213 
L 102.519413 161.053598 
L 103.498011 161.093589 
L 106.433807 158.258856 
L 107.412405 157.706839 
L 108.391004 157.559937 
L 109.369602 157.154011 
L 110.348201 155.97873 
L 111.326799 155.496635 
L 112.305398 155.676913 
L 113.283996 154.983192 
L 114.262595 154.653316 
L 115.241193 153.888091 
L 116.219792 154.393514 
L 117.19839 155.43876 
L 119.155587 156.834178 
L 120.134186 157.185088 
L 121.112784 157.10139 
L 122.091383 156.818981 
L 123.069981 155.532395 
L 124.04858 154.887737 
L 125.027178 153.768574 
L 126.005777 152.419994 
L 126.984375 151.998329 
L 127.962973 151.843417 
L 128.941572 150.943079 
L 129.92017 149.734171 
L 130.898769 148.272142 
L 131.877367 147.629857 
L 133.834564 147.168641 
L 134.813163 147.240141 
L 135.791761 145.812453 
L 136.77036 145.175868 
L 138.727557 145.260937 
L 139.706155 144.737886 
L 140.684754 143.731096 
L 141.663352 143.433644 
L 142.641951 143.478004 
L 143.620549 143.176559 
L 144.599148 142.70459 
L 146.556345 142.330078 
L 147.534943 142.709146 
L 148.513542 142.650824 
L 149.49214 142.122537 
L 150.470739 141.298777 
L 151.449337 140.155953 
L 152.427936 140.070161 
L 153.406534 139.398919 
L 154.385133 137.522681 
L 156.34233 136.048287 
L 157.320928 134.853608 
L 161.235322 129.294896 
L 164.171117 126.442662 
L 165.149716 126.448398 
L 166.128314 127.16111 
L 168.085511 126.700061 
L 169.06411 126.329371 
L 171.021307 126.516782 
L 171.999905 127.23106 
L 172.978504 128.199974 
L 173.957102 128.493799 
L 174.935701 129.284393 
L 175.914299 129.846608 
L 176.892898 129.247131 
L 177.871496 128.951867 
L 179.828693 127.460514 
L 180.807292 127.210752 
L 181.78589 126.839435 
L 182.764489 127.636335 
L 183.743087 128.099372 
L 184.721686 127.222546 
L 185.700284 127.056631 
L 186.678883 125.900464 
L 187.657481 124.209685 
L 189.614678 121.638501 
L 190.593277 120.250659 
L 191.571875 119.56099 
L 193.529072 119.81275 
L 194.50767 118.247249 
L 195.486269 117.458753 
L 197.443466 115.463418 
L 199.400663 114.767762 
L 200.379261 113.966551 
L 201.35786 113.329173 
L 202.336458 113.405196 
L 204.293655 113.065132 
L 205.272254 112.427873 
L 206.250852 112.408303 
L 207.229451 111.703234 
L 208.208049 112.324068 
L 209.186648 112.084413 
L 210.165246 110.786304 
L 211.143845 110.036097 
L 212.122443 110.360272 
L 213.101042 109.726899 
L 214.07964 108.8568 
L 215.058239 108.216201 
L 216.036837 106.776422 
L 217.015436 105.08285 
L 217.994034 103.716593 
L 218.972633 103.086897 
L 219.951231 101.988195 
L 220.92983 101.612208 
L 221.908428 102.091865 
L 222.887027 102.241076 
L 224.844223 102.185361 
L 225.822822 102.802906 
L 226.80142 102.918002 
L 227.780019 104.172418 
L 228.758617 106.195637 
L 229.737216 107.40538 
L 230.715814 107.833867 
L 231.694413 107.737502 
L 234.630208 105.70976 
L 235.608807 104.373159 
L 236.587405 103.940121 
L 239.523201 100.353532 
L 240.501799 98.672128 
L 241.480398 97.257117 
L 242.458996 95.435698 
L 243.437595 95.145746 
L 244.416193 95.325786 
L 245.394792 95.269192 
L 246.37339 95.750554 
L 247.351989 95.786036 
L 248.330587 95.20794 
L 251.266383 95.393092 
L 254.202178 93.702747 
L 255.180777 93.515027 
L 256.159375 93.109172 
L 258.116572 91.25548 
L 259.09517 91.342943 
L 260.073769 92.21771 
L 263.009564 91.476934 
L 263.988163 91.03905 
L 264.966761 91.517018 
L 265.94536 92.401011 
L 266.923958 91.633638 
L 267.902557 91.69317 
L 268.881155 92.123382 
L 269.859754 91.261812 
L 270.838352 89.952299 
L 271.816951 88.093104 
L 272.795549 86.986556 
L 273.774148 86.458533 
L 274.752746 86.261769 
L 275.731345 85.7715 
L 276.709943 87.073703 
L 278.66714 87.245324 
L 279.645739 86.996474 
L 280.624337 86.333758 
L 281.602936 86.120437 
L 283.560133 85.236786 
L 284.538731 85.958751 
L 285.51733 85.814982 
L 286.495928 85.379299 
L 287.474527 86.404297 
L 288.453125 84.933606 
L 289.431723 82.902117 
L 290.410322 82.734164 
L 291.38892 81.955508 
L 292.367519 81.486118 
L 293.346117 81.393811 
L 294.324716 82.043306 
L 295.303314 81.562587 
L 296.281913 80.335265 
L 297.260511 79.732675 
L 298.23911 79.382106 
L 299.217708 78.644635 
L 300.196307 78.131253 
L 301.174905 78.818669 
L 302.153504 78.556715 
L 303.132102 78.515929 
L 304.110701 78.704565 
L 306.067898 77.47805 
L 307.046496 78.715988 
L 308.025095 79.519238 
L 309.003693 79.977424 
L 309.982292 80.001322 
L 310.96089 79.483108 
L 311.939489 79.121074 
L 312.918087 79.874032 
L 314.875284 81.076411 
L 315.853883 81.94467 
L 317.81108 84.687156 
L 318.789678 85.044802 
L 319.768277 85.662783 
L 320.746875 86.058534 
L 321.725473 87.077657 
L 322.704072 86.836982 
L 323.68267 86.448183 
L 324.661269 85.254446 
L 325.639867 85.165794 
L 326.618466 85.622104 
L 327.597064 84.845673 
L 328.575663 83.363899 
L 329.554261 81.639879 
L 330.53286 80.266544 
L 331.511458 79.138898 
L 332.490057 79.226633 
L 334.447254 77.759989 
L 335.425852 77.677044 
L 336.404451 78.285211 
L 337.383049 78.107541 
L 338.361648 77.376822 
L 339.340246 77.554655 
L 340.318845 77.86527 
L 341.297443 77.514763 
L 342.276042 77.386103 
L 343.25464 77.522708 
L 345.211837 76.954942 
L 347.169034 79.644381 
L 348.147633 80.442479 
L 349.126231 81.646286 
L 350.10483 82.07368 
L 351.083428 81.456074 
L 353.040625 82.109768 
L 354.997822 83.394925 
L 355.97642 83.389376 
L 356.955019 83.270672 
L 357.933617 83.677111 
L 359.890814 82.352216 
L 360.869413 80.340132 
L 361.848011 79.528616 
L 362.82661 79.939073 
L 363.805208 80.031452 
L 364.783807 80.574463 
L 365.762405 80.898688 
L 366.741004 80.355354 
L 367.719602 80.031311 
L 368.698201 79.38662 
L 370.655398 76.279619 
L 371.633996 75.104677 
L 372.612595 74.747483 
L 373.591193 74.914726 
L 375.54839 74.40149 
L 376.526989 74.708192 
L 377.505587 74.704624 
L 379.462784 74.329888 
L 380.441383 73.814741 
L 382.39858 75.275845 
L 383.377178 74.635545 
L 385.334375 74.820226 
L 386.312973 75.058656 
L 387.291572 74.900356 
L 389.248769 73.852127 
L 390.227367 73.54035 
L 391.205966 73.720049 
L 392.184564 75.166277 
L 393.163163 76.3763 
L 394.141761 76.939624 
L 396.098958 80.683444 
L 398.056155 80.864223 
L 399.034754 80.582399 
L 400.013352 80.04349 
L 400.991951 79.129562 
L 401.970549 78.956662 
L 403.927746 79.02069 
L 404.906345 77.164136 
L 405.884943 77.56822 
L 406.863542 79.030108 
L 407.84214 77.815035 
L 408.820739 78.044708 
L 409.799337 77.736279 
L 411.756534 78.561496 
L 412.735133 79.793016 
L 413.713731 80.65761 
L 414.69233 80.175358 
L 415.670928 79.194369 
L 416.649527 78.834307 
L 417.628125 76.330752 
L 417.628125 76.330752 
" style="fill:none;stroke:#ff0000;stroke-linecap:square;stroke-width:1.5;"/>
   </g>
   <g id="patch_3">
    <path d="M 30.103125 242.6 
L 30.103125 7.2 
" style="fill:none;stroke:#000000;stroke-linecap:square;stroke-linejoin:miter;stroke-width:0.8;"/>
   </g>
   <g id="patch_4">
    <path d="M 417.628125 242.6 
L 417.628125 7.2 
" style="fill:none;stroke:#000000;stroke-linecap:square;stroke-linejoin:miter;stroke-width:0.8;"/>
   </g>
   <g id="patch_5">
    <path d="M 30.103125 242.6 
L 417.628125 242.6 
" style="fill:none;stroke:#000000;stroke-linecap:square;stroke-linejoin:miter;stroke-width:0.8;"/>
   </g>
   <g id="patch_6">
    <path d="M 30.103125 7.2 
L 417.628125 7.2 
" style="fill:none;stroke:#000000;stroke-linecap:square;stroke-linejoin:miter;stroke-width:0.8;"/>
   </g>
  </g>
 </g>
 <defs>
  <clipPath id="p9854e493d1">
   <rect height="235.4" width="387.525" x="30.103125" y="7.2"/>
  </clipPath>
 </defs>
</svg>
