<?xml version="1.0" encoding="utf-8" standalone="no"?>
<!DOCTYPE svg PUBLIC "-//W3C//DTD SVG 1.1//EN"
  "http://www.w3.org/Graphics/SVG/1.1/DTD/svg11.dtd">
<!-- Created with matplotlib (https://matplotlib.org/) -->
<svg height="712.15625pt" version="1.1" viewBox="0 0 568.904688 712.15625" width="568.904688pt" xmlns="http://www.w3.org/2000/svg" xmlns:xlink="http://www.w3.org/1999/xlink">
 <defs>
  <style type="text/css">
*{stroke-linecap:butt;stroke-linejoin:round;}
  </style>
 </defs>
 <g id="figure_1">
  <g id="patch_1">
   <path d="M 0 712.15625 
L 568.904688 712.15625 
L 568.904688 0 
L 0 0 
z
" style="fill:none;"/>
  </g>
  <g id="axes_1">
   <g id="patch_2">
    <path d="M 35.304688 142.7 
L 561.704687 142.7 
L 561.704687 7.2 
L 35.304688 7.2 
z
" style="fill:#ffffff;"/>
   </g>
   <g id="matplotlib.axis_1">
    <g id="xtick_1">
     <g id="line2d_1">
      <defs>
       <path d="M 0 0 
L 0 3.5 
" id="m784883b2b5" style="stroke:#000000;stroke-width:0.8;"/>
      </defs>
      <g>
       <use style="stroke:#000000;stroke-width:0.8;" x="111.640639" xlink:href="#m784883b2b5" y="142.7"/>
      </g>
     </g>
     <g id="text_1">
      <!-- 1989 -->
      <defs>
       <path d="M 12.40625 8.296875 
L 28.515625 8.296875 
L 28.515625 63.921875 
L 10.984375 60.40625 
L 10.984375 69.390625 
L 28.421875 72.90625 
L 38.28125 72.90625 
L 38.28125 8.296875 
L 54.390625 8.296875 
L 54.390625 0 
L 12.40625 0 
z
" id="DejaVuSans-49"/>
       <path d="M 10.984375 1.515625 
L 10.984375 10.5 
Q 14.703125 8.734375 18.5 7.8125 
Q 22.3125 6.890625 25.984375 6.890625 
Q 35.75 6.890625 40.890625 13.453125 
Q 46.046875 20.015625 46.78125 33.40625 
Q 43.953125 29.203125 39.59375 26.953125 
Q 35.25 24.703125 29.984375 24.703125 
Q 19.046875 24.703125 12.671875 31.3125 
Q 6.296875 37.9375 6.296875 49.421875 
Q 6.296875 60.640625 12.9375 67.421875 
Q 19.578125 74.21875 30.609375 74.21875 
Q 43.265625 74.21875 49.921875 64.515625 
Q 56.59375 54.828125 56.59375 36.375 
Q 56.59375 19.140625 48.40625 8.859375 
Q 40.234375 -1.421875 26.421875 -1.421875 
Q 22.703125 -1.421875 18.890625 -0.6875 
Q 15.09375 0.046875 10.984375 1.515625 
z
M 30.609375 32.421875 
Q 37.25 32.421875 41.125 36.953125 
Q 45.015625 41.5 45.015625 49.421875 
Q 45.015625 57.28125 41.125 61.84375 
Q 37.25 66.40625 30.609375 66.40625 
Q 23.96875 66.40625 20.09375 61.84375 
Q 16.21875 57.28125 16.21875 49.421875 
Q 16.21875 41.5 20.09375 36.953125 
Q 23.96875 32.421875 30.609375 32.421875 
z
" id="DejaVuSans-57"/>
       <path d="M 31.78125 34.625 
Q 24.75 34.625 20.71875 30.859375 
Q 16.703125 27.09375 16.703125 20.515625 
Q 16.703125 13.921875 20.71875 10.15625 
Q 24.75 6.390625 31.78125 6.390625 
Q 38.8125 6.390625 42.859375 10.171875 
Q 46.921875 13.96875 46.921875 20.515625 
Q 46.921875 27.09375 42.890625 30.859375 
Q 38.875 34.625 31.78125 34.625 
z
M 21.921875 38.8125 
Q 15.578125 40.375 12.03125 44.71875 
Q 8.5 49.078125 8.5 55.328125 
Q 8.5 64.0625 14.71875 69.140625 
Q 20.953125 74.21875 31.78125 74.21875 
Q 42.671875 74.21875 48.875 69.140625 
Q 55.078125 64.0625 55.078125 55.328125 
Q 55.078125 49.078125 51.53125 44.71875 
Q 48 40.375 41.703125 38.8125 
Q 48.828125 37.15625 52.796875 32.3125 
Q 56.78125 27.484375 56.78125 20.515625 
Q 56.78125 9.90625 50.3125 4.234375 
Q 43.84375 -1.421875 31.78125 -1.421875 
Q 19.734375 -1.421875 13.25 4.234375 
Q 6.78125 9.90625 6.78125 20.515625 
Q 6.78125 27.484375 10.78125 32.3125 
Q 14.796875 37.15625 21.921875 38.8125 
z
M 18.3125 54.390625 
Q 18.3125 48.734375 21.84375 45.5625 
Q 25.390625 42.390625 31.78125 42.390625 
Q 38.140625 42.390625 41.71875 45.5625 
Q 45.3125 48.734375 45.3125 54.390625 
Q 45.3125 60.0625 41.71875 63.234375 
Q 38.140625 66.40625 31.78125 66.40625 
Q 25.390625 66.40625 21.84375 63.234375 
Q 18.3125 60.0625 18.3125 54.390625 
z
" id="DejaVuSans-56"/>
      </defs>
      <g transform="translate(98.915639 157.298437)scale(0.1 -0.1)">
       <use xlink:href="#DejaVuSans-49"/>
       <use x="63.623047" xlink:href="#DejaVuSans-57"/>
       <use x="127.246094" xlink:href="#DejaVuSans-56"/>
       <use x="190.869141" xlink:href="#DejaVuSans-57"/>
      </g>
     </g>
    </g>
    <g id="xtick_2">
     <g id="line2d_2">
      <g>
       <use style="stroke:#000000;stroke-width:0.8;" x="207.060579" xlink:href="#m784883b2b5" y="142.7"/>
      </g>
     </g>
     <g id="text_2">
      <!-- 1994 -->
      <defs>
       <path d="M 37.796875 64.3125 
L 12.890625 25.390625 
L 37.796875 25.390625 
z
M 35.203125 72.90625 
L 47.609375 72.90625 
L 47.609375 25.390625 
L 58.015625 25.390625 
L 58.015625 17.1875 
L 47.609375 17.1875 
L 47.609375 0 
L 37.796875 0 
L 37.796875 17.1875 
L 4.890625 17.1875 
L 4.890625 26.703125 
z
" id="DejaVuSans-52"/>
      </defs>
      <g transform="translate(194.335579 157.298437)scale(0.1 -0.1)">
       <use xlink:href="#DejaVuSans-49"/>
       <use x="63.623047" xlink:href="#DejaVuSans-57"/>
       <use x="127.246094" xlink:href="#DejaVuSans-57"/>
       <use x="190.869141" xlink:href="#DejaVuSans-52"/>
      </g>
     </g>
    </g>
    <g id="xtick_3">
     <g id="line2d_3">
      <g>
       <use style="stroke:#000000;stroke-width:0.8;" x="302.480518" xlink:href="#m784883b2b5" y="142.7"/>
      </g>
     </g>
     <g id="text_3">
      <!-- 1999 -->
      <g transform="translate(289.755518 157.298437)scale(0.1 -0.1)">
       <use xlink:href="#DejaVuSans-49"/>
       <use x="63.623047" xlink:href="#DejaVuSans-57"/>
       <use x="127.246094" xlink:href="#DejaVuSans-57"/>
       <use x="190.869141" xlink:href="#DejaVuSans-57"/>
      </g>
     </g>
    </g>
    <g id="xtick_4">
     <g id="line2d_4">
      <g>
       <use style="stroke:#000000;stroke-width:0.8;" x="397.900458" xlink:href="#m784883b2b5" y="142.7"/>
      </g>
     </g>
     <g id="text_4">
      <!-- 2004 -->
      <defs>
       <path d="M 19.1875 8.296875 
L 53.609375 8.296875 
L 53.609375 0 
L 7.328125 0 
L 7.328125 8.296875 
Q 12.9375 14.109375 22.625 23.890625 
Q 32.328125 33.6875 34.8125 36.53125 
Q 39.546875 41.84375 41.421875 45.53125 
Q 43.3125 49.21875 43.3125 52.78125 
Q 43.3125 58.59375 39.234375 62.25 
Q 35.15625 65.921875 28.609375 65.921875 
Q 23.96875 65.921875 18.8125 64.3125 
Q 13.671875 62.703125 7.8125 59.421875 
L 7.8125 69.390625 
Q 13.765625 71.78125 18.9375 73 
Q 24.125 74.21875 28.421875 74.21875 
Q 39.75 74.21875 46.484375 68.546875 
Q 53.21875 62.890625 53.21875 53.421875 
Q 53.21875 48.921875 51.53125 44.890625 
Q 49.859375 40.875 45.40625 35.40625 
Q 44.1875 33.984375 37.640625 27.21875 
Q 31.109375 20.453125 19.1875 8.296875 
z
" id="DejaVuSans-50"/>
       <path d="M 31.78125 66.40625 
Q 24.171875 66.40625 20.328125 58.90625 
Q 16.5 51.421875 16.5 36.375 
Q 16.5 21.390625 20.328125 13.890625 
Q 24.171875 6.390625 31.78125 6.390625 
Q 39.453125 6.390625 43.28125 13.890625 
Q 47.125 21.390625 47.125 36.375 
Q 47.125 51.421875 43.28125 58.90625 
Q 39.453125 66.40625 31.78125 66.40625 
z
M 31.78125 74.21875 
Q 44.046875 74.21875 50.515625 64.515625 
Q 56.984375 54.828125 56.984375 36.375 
Q 56.984375 17.96875 50.515625 8.265625 
Q 44.046875 -1.421875 31.78125 -1.421875 
Q 19.53125 -1.421875 13.0625 8.265625 
Q 6.59375 17.96875 6.59375 36.375 
Q 6.59375 54.828125 13.0625 64.515625 
Q 19.53125 74.21875 31.78125 74.21875 
z
" id="DejaVuSans-48"/>
      </defs>
      <g transform="translate(385.175458 157.298437)scale(0.1 -0.1)">
       <use xlink:href="#DejaVuSans-50"/>
       <use x="63.623047" xlink:href="#DejaVuSans-48"/>
       <use x="127.246094" xlink:href="#DejaVuSans-48"/>
       <use x="190.869141" xlink:href="#DejaVuSans-52"/>
      </g>
     </g>
    </g>
    <g id="xtick_5">
     <g id="line2d_5">
      <g>
       <use style="stroke:#000000;stroke-width:0.8;" x="493.320397" xlink:href="#m784883b2b5" y="142.7"/>
      </g>
     </g>
     <g id="text_5">
      <!-- 2009 -->
      <g transform="translate(480.595397 157.298437)scale(0.1 -0.1)">
       <use xlink:href="#DejaVuSans-50"/>
       <use x="63.623047" xlink:href="#DejaVuSans-48"/>
       <use x="127.246094" xlink:href="#DejaVuSans-48"/>
       <use x="190.869141" xlink:href="#DejaVuSans-57"/>
      </g>
     </g>
    </g>
    <g id="xtick_6">
     <g id="line2d_6">
      <defs>
       <path d="M 0 0 
L 0 2 
" id="m30deebbfbd" style="stroke:#000000;stroke-width:0.6;"/>
      </defs>
      <g>
       <use style="stroke:#000000;stroke-width:0.6;" x="35.304688" xlink:href="#m30deebbfbd" y="142.7"/>
      </g>
     </g>
    </g>
    <g id="xtick_7">
     <g id="line2d_7">
      <g>
       <use style="stroke:#000000;stroke-width:0.6;" x="54.388675" xlink:href="#m30deebbfbd" y="142.7"/>
      </g>
     </g>
    </g>
    <g id="xtick_8">
     <g id="line2d_8">
      <g>
       <use style="stroke:#000000;stroke-width:0.6;" x="73.472663" xlink:href="#m30deebbfbd" y="142.7"/>
      </g>
     </g>
    </g>
    <g id="xtick_9">
     <g id="line2d_9">
      <g>
       <use style="stroke:#000000;stroke-width:0.6;" x="92.556651" xlink:href="#m30deebbfbd" y="142.7"/>
      </g>
     </g>
    </g>
    <g id="xtick_10">
     <g id="line2d_10">
      <g>
       <use style="stroke:#000000;stroke-width:0.6;" x="130.724627" xlink:href="#m30deebbfbd" y="142.7"/>
      </g>
     </g>
    </g>
    <g id="xtick_11">
     <g id="line2d_11">
      <g>
       <use style="stroke:#000000;stroke-width:0.6;" x="149.808615" xlink:href="#m30deebbfbd" y="142.7"/>
      </g>
     </g>
    </g>
    <g id="xtick_12">
     <g id="line2d_12">
      <g>
       <use style="stroke:#000000;stroke-width:0.6;" x="168.892603" xlink:href="#m30deebbfbd" y="142.7"/>
      </g>
     </g>
    </g>
    <g id="xtick_13">
     <g id="line2d_13">
      <g>
       <use style="stroke:#000000;stroke-width:0.6;" x="187.976591" xlink:href="#m30deebbfbd" y="142.7"/>
      </g>
     </g>
    </g>
    <g id="xtick_14">
     <g id="line2d_14">
      <g>
       <use style="stroke:#000000;stroke-width:0.6;" x="226.144567" xlink:href="#m30deebbfbd" y="142.7"/>
      </g>
     </g>
    </g>
    <g id="xtick_15">
     <g id="line2d_15">
      <g>
       <use style="stroke:#000000;stroke-width:0.6;" x="245.228555" xlink:href="#m30deebbfbd" y="142.7"/>
      </g>
     </g>
    </g>
    <g id="xtick_16">
     <g id="line2d_16">
      <g>
       <use style="stroke:#000000;stroke-width:0.6;" x="264.312542" xlink:href="#m30deebbfbd" y="142.7"/>
      </g>
     </g>
    </g>
    <g id="xtick_17">
     <g id="line2d_17">
      <g>
       <use style="stroke:#000000;stroke-width:0.6;" x="283.39653" xlink:href="#m30deebbfbd" y="142.7"/>
      </g>
     </g>
    </g>
    <g id="xtick_18">
     <g id="line2d_18">
      <g>
       <use style="stroke:#000000;stroke-width:0.6;" x="321.564506" xlink:href="#m30deebbfbd" y="142.7"/>
      </g>
     </g>
    </g>
    <g id="xtick_19">
     <g id="line2d_19">
      <g>
       <use style="stroke:#000000;stroke-width:0.6;" x="340.648494" xlink:href="#m30deebbfbd" y="142.7"/>
      </g>
     </g>
    </g>
    <g id="xtick_20">
     <g id="line2d_20">
      <g>
       <use style="stroke:#000000;stroke-width:0.6;" x="359.732482" xlink:href="#m30deebbfbd" y="142.7"/>
      </g>
     </g>
    </g>
    <g id="xtick_21">
     <g id="line2d_21">
      <g>
       <use style="stroke:#000000;stroke-width:0.6;" x="378.81647" xlink:href="#m30deebbfbd" y="142.7"/>
      </g>
     </g>
    </g>
    <g id="xtick_22">
     <g id="line2d_22">
      <g>
       <use style="stroke:#000000;stroke-width:0.6;" x="416.984446" xlink:href="#m30deebbfbd" y="142.7"/>
      </g>
     </g>
    </g>
    <g id="xtick_23">
     <g id="line2d_23">
      <g>
       <use style="stroke:#000000;stroke-width:0.6;" x="436.068434" xlink:href="#m30deebbfbd" y="142.7"/>
      </g>
     </g>
    </g>
    <g id="xtick_24">
     <g id="line2d_24">
      <g>
       <use style="stroke:#000000;stroke-width:0.6;" x="455.152422" xlink:href="#m30deebbfbd" y="142.7"/>
      </g>
     </g>
    </g>
    <g id="xtick_25">
     <g id="line2d_25">
      <g>
       <use style="stroke:#000000;stroke-width:0.6;" x="474.23641" xlink:href="#m30deebbfbd" y="142.7"/>
      </g>
     </g>
    </g>
    <g id="xtick_26">
     <g id="line2d_26">
      <g>
       <use style="stroke:#000000;stroke-width:0.6;" x="512.404385" xlink:href="#m30deebbfbd" y="142.7"/>
      </g>
     </g>
    </g>
    <g id="xtick_27">
     <g id="line2d_27">
      <g>
       <use style="stroke:#000000;stroke-width:0.6;" x="531.488373" xlink:href="#m30deebbfbd" y="142.7"/>
      </g>
     </g>
    </g>
    <g id="xtick_28">
     <g id="line2d_28">
      <g>
       <use style="stroke:#000000;stroke-width:0.6;" x="550.572361" xlink:href="#m30deebbfbd" y="142.7"/>
      </g>
     </g>
    </g>
    <g id="text_6">
     <!-- DATE -->
     <defs>
      <path d="M 19.671875 64.796875 
L 19.671875 8.109375 
L 31.59375 8.109375 
Q 46.6875 8.109375 53.6875 14.9375 
Q 60.6875 21.78125 60.6875 36.53125 
Q 60.6875 51.171875 53.6875 57.984375 
Q 46.6875 64.796875 31.59375 64.796875 
z
M 9.8125 72.90625 
L 30.078125 72.90625 
Q 51.265625 72.90625 61.171875 64.09375 
Q 71.09375 55.28125 71.09375 36.53125 
Q 71.09375 17.671875 61.125 8.828125 
Q 51.171875 0 30.078125 0 
L 9.8125 0 
z
" id="DejaVuSans-68"/>
      <path d="M 34.1875 63.1875 
L 20.796875 26.90625 
L 47.609375 26.90625 
z
M 28.609375 72.90625 
L 39.796875 72.90625 
L 67.578125 0 
L 57.328125 0 
L 50.6875 18.703125 
L 17.828125 18.703125 
L 11.1875 0 
L 0.78125 0 
z
" id="DejaVuSans-65"/>
      <path d="M -0.296875 72.90625 
L 61.375 72.90625 
L 61.375 64.59375 
L 35.5 64.59375 
L 35.5 0 
L 25.59375 0 
L 25.59375 64.59375 
L -0.296875 64.59375 
z
" id="DejaVuSans-84"/>
      <path d="M 9.8125 72.90625 
L 55.90625 72.90625 
L 55.90625 64.59375 
L 19.671875 64.59375 
L 19.671875 43.015625 
L 54.390625 43.015625 
L 54.390625 34.71875 
L 19.671875 34.71875 
L 19.671875 8.296875 
L 56.78125 8.296875 
L 56.78125 0 
L 9.8125 0 
z
" id="DejaVuSans-69"/>
     </defs>
     <g transform="translate(285.496094 170.976562)scale(0.1 -0.1)">
      <use xlink:href="#DejaVuSans-68"/>
      <use x="75.251953" xlink:href="#DejaVuSans-65"/>
      <use x="135.910156" xlink:href="#DejaVuSans-84"/>
      <use x="196.994141" xlink:href="#DejaVuSans-69"/>
     </g>
    </g>
   </g>
   <g id="matplotlib.axis_2">
    <g id="ytick_1">
     <g id="line2d_29">
      <defs>
       <path d="M 0 0 
L -3.5 0 
" id="m5cd781ec18" style="stroke:#000000;stroke-width:0.8;"/>
      </defs>
      <g>
       <use style="stroke:#000000;stroke-width:0.8;" x="35.304688" xlink:href="#m5cd781ec18" y="127.548102"/>
      </g>
     </g>
     <g id="text_7">
      <!-- 60 -->
      <defs>
       <path d="M 33.015625 40.375 
Q 26.375 40.375 22.484375 35.828125 
Q 18.609375 31.296875 18.609375 23.390625 
Q 18.609375 15.53125 22.484375 10.953125 
Q 26.375 6.390625 33.015625 6.390625 
Q 39.65625 6.390625 43.53125 10.953125 
Q 47.40625 15.53125 47.40625 23.390625 
Q 47.40625 31.296875 43.53125 35.828125 
Q 39.65625 40.375 33.015625 40.375 
z
M 52.59375 71.296875 
L 52.59375 62.3125 
Q 48.875 64.0625 45.09375 64.984375 
Q 41.3125 65.921875 37.59375 65.921875 
Q 27.828125 65.921875 22.671875 59.328125 
Q 17.53125 52.734375 16.796875 39.40625 
Q 19.671875 43.65625 24.015625 45.921875 
Q 28.375 48.1875 33.59375 48.1875 
Q 44.578125 48.1875 50.953125 41.515625 
Q 57.328125 34.859375 57.328125 23.390625 
Q 57.328125 12.15625 50.6875 5.359375 
Q 44.046875 -1.421875 33.015625 -1.421875 
Q 20.359375 -1.421875 13.671875 8.265625 
Q 6.984375 17.96875 6.984375 36.375 
Q 6.984375 53.65625 15.1875 63.9375 
Q 23.390625 74.21875 37.203125 74.21875 
Q 40.921875 74.21875 44.703125 73.484375 
Q 48.484375 72.75 52.59375 71.296875 
z
" id="DejaVuSans-54"/>
      </defs>
      <g transform="translate(15.579687 131.347321)scale(0.1 -0.1)">
       <use xlink:href="#DejaVuSans-54"/>
       <use x="63.623047" xlink:href="#DejaVuSans-48"/>
      </g>
     </g>
    </g>
    <g id="ytick_2">
     <g id="line2d_30">
      <g>
       <use style="stroke:#000000;stroke-width:0.8;" x="35.304688" xlink:href="#m5cd781ec18" y="89.157499"/>
      </g>
     </g>
     <g id="text_8">
      <!-- 80 -->
      <g transform="translate(15.579687 92.956717)scale(0.1 -0.1)">
       <use xlink:href="#DejaVuSans-56"/>
       <use x="63.623047" xlink:href="#DejaVuSans-48"/>
      </g>
     </g>
    </g>
    <g id="ytick_3">
     <g id="line2d_31">
      <g>
       <use style="stroke:#000000;stroke-width:0.8;" x="35.304688" xlink:href="#m5cd781ec18" y="50.766895"/>
      </g>
     </g>
     <g id="text_9">
      <!-- 100 -->
      <g transform="translate(9.217187 54.566114)scale(0.1 -0.1)">
       <use xlink:href="#DejaVuSans-49"/>
       <use x="63.623047" xlink:href="#DejaVuSans-48"/>
       <use x="127.246094" xlink:href="#DejaVuSans-48"/>
      </g>
     </g>
    </g>
    <g id="ytick_4">
     <g id="line2d_32">
      <g>
       <use style="stroke:#000000;stroke-width:0.8;" x="35.304688" xlink:href="#m5cd781ec18" y="12.376291"/>
      </g>
     </g>
     <g id="text_10">
      <!-- 120 -->
      <g transform="translate(9.217187 16.17551)scale(0.1 -0.1)">
       <use xlink:href="#DejaVuSans-49"/>
       <use x="63.623047" xlink:href="#DejaVuSans-50"/>
       <use x="127.246094" xlink:href="#DejaVuSans-48"/>
      </g>
     </g>
    </g>
   </g>
   <g id="line2d_33">
    <path clip-path="url(#p17d2cfae71)" d="M 35.304688 103.543993 
L 36.89502 107.062876 
L 38.485352 122.844869 
L 40.075684 132.401826 
L 41.666017 136.540909 
L 43.256349 131.213637 
L 44.846681 122.518549 
L 46.437014 121.312508 
L 48.027346 126.425945 
L 49.617678 134.620803 
L 51.208011 131.386203 
L 52.798343 110.820356 
L 54.388675 102.007409 
L 55.979008 112.217007 
L 57.56934 123.282714 
L 59.159672 133.24354 
L 60.750005 135.583831 
L 62.340337 127.739095 
L 63.930669 116.481051 
L 65.521002 118.945536 
L 68.701666 132.285119 
L 70.291999 128.811729 
L 71.882331 111.931956 
L 73.472663 101.029409 
L 75.062996 108.23379 
L 76.653328 116.779538 
L 78.24366 127.243665 
L 79.833993 129.710645 
L 83.014657 110.523021 
L 84.60499 108.224384 
L 86.195322 119.649044 
L 87.785654 126.820792 
L 89.375987 122.817804 
L 90.966319 107.243888 
L 92.556651 89.406462 
L 94.146984 96.524272 
L 95.737316 107.790762 
L 97.327648 121.331896 
L 98.917981 124.848283 
L 102.098645 102.629529 
L 103.688978 97.285749 
L 105.27931 113.122449 
L 106.869642 121.245901 
L 108.459975 117.743526 
L 110.050307 100.937463 
L 111.640639 93.152425 
L 113.230971 95.526116 
L 114.821304 101.917959 
L 116.411636 117.74295 
L 118.001968 120.466571 
L 119.592301 111.285459 
L 121.182633 100.616902 
L 122.772965 98.669155 
L 124.363298 109.686298 
L 125.95363 116.273742 
L 127.543962 110.136812 
L 129.134295 81.105261 
L 130.724627 80.788731 
L 132.314959 94.584778 
L 133.905292 102.217214 
L 135.495624 113.57757 
L 137.085956 116.372981 
L 138.676289 105.539921 
L 140.266621 95.657028 
L 141.856953 94.714155 
L 143.447286 102.477118 
L 145.037618 113.273516 
L 146.62795 111.104447 
L 148.218283 93.603322 
L 149.808615 77.59924 
L 151.398947 93.846335 
L 152.98928 101.893581 
L 154.579612 113.823461 
L 156.169944 110.62514 
L 157.760277 99.053061 
L 159.350609 88.979366 
L 160.940941 90.768752 
L 162.531274 101.491824 
L 164.121606 110.744919 
L 165.711938 103.522111 
L 167.302271 90.137611 
L 168.892603 79.011822 
L 170.482935 88.84212 
L 172.073268 99.662127 
L 173.6636 109.035961 
L 175.253932 113.768947 
L 176.844265 106.034392 
L 178.434597 93.940776 
L 180.024929 95.804064 
L 181.615262 103.834034 
L 183.205594 110.217432 
L 184.795926 101.63598 
L 186.386258 80.489092 
L 187.976591 73.904144 
L 189.566923 80.411927 
L 191.157255 90.165828 
L 192.747588 106.322321 
L 194.33792 112.813405 
L 195.928252 100.041811 
L 197.518585 85.117271 
L 199.108917 85.202307 
L 200.699249 99.517011 
L 202.289582 108.965131 
L 203.879914 99.850817 
L 207.060579 62.018029 
L 208.650911 75.412319 
L 211.831576 106.48145 
L 213.421908 109.534463 
L 215.01224 93.028999 
L 216.602573 82.867198 
L 218.192905 85.534961 
L 219.783237 97.444878 
L 221.37357 105.922483 
L 222.963902 98.283329 
L 224.554234 79.915537 
L 226.144567 65.253205 
L 227.734899 74.946641 
L 229.325231 86.727181 
L 230.915564 101.02653 
L 232.505896 102.079392 
L 234.096228 92.415709 
L 235.686561 77.670838 
L 237.276893 70.83232 
L 238.867225 92.030076 
L 240.457558 101.23787 
L 242.04789 89.82108 
L 243.638222 68.378392 
L 245.228555 52.737869 
L 248.409219 75.844405 
L 249.999552 94.491105 
L 251.589884 95.525348 
L 253.180216 85.451654 
L 254.770549 77.715947 
L 256.360881 76.572675 
L 257.951213 90.708671 
L 259.541546 99.351931 
L 261.131878 87.095923 
L 262.72221 69.030265 
L 264.312542 53.720476 
L 265.902875 70.385453 
L 269.083539 96.552297 
L 270.673872 100.968176 
L 272.264204 89.609548 
L 273.854536 72.933821 
L 275.444869 74.218179 
L 277.035201 85.436297 
L 278.625533 93.951141 
L 280.215866 85.232443 
L 281.806198 65.929264 
L 283.39653 60.763808 
L 284.986863 74.146773 
L 286.577195 76.57517 
L 288.167527 95.391941 
L 289.75786 92.938397 
L 291.348192 76.761365 
L 292.938524 62.595232 
L 294.528857 63.184336 
L 296.119189 74.681554 
L 297.709521 88.980134 
L 299.299854 86.403165 
L 302.480518 46.669082 
L 304.070851 67.691585 
L 305.661183 68.545392 
L 307.251515 88.16395 
L 308.841848 90.330907 
L 310.43218 74.102431 
L 312.022512 55.58434 
L 313.612845 57.647067 
L 315.203177 75.289277 
L 316.793509 87.927272 
L 318.383842 84.929733 
L 319.974174 61.30262 
L 321.564506 46.486151 
L 323.154839 61.710329 
L 324.745171 73.623317 
L 326.335503 86.388576 
L 327.925836 80.605608 
L 329.516168 67.964734 
L 331.1065 58.45327 
L 332.696833 51.975431 
L 334.287165 68.200452 
L 335.877497 83.128638 
L 337.467829 73.722556 
L 339.058162 46.052913 
L 340.648494 33.283622 
L 342.238826 56.195902 
L 343.829159 64.53319 
L 345.419491 83.562068 
L 347.009823 84.269415 
L 348.600156 69.203023 
L 350.190488 58.302971 
L 351.78082 51.624157 
L 353.371153 73.261869 
L 354.961485 84.001641 
L 356.551817 83.529628 
L 359.732482 45.016942 
L 361.322814 59.966243 
L 362.913147 63.712974 
L 364.503479 78.033821 
L 366.093811 79.108566 
L 367.684144 63.839663 
L 369.274476 46.173459 
L 370.864808 47.639405 
L 372.455141 63.610663 
L 374.045473 75.912356 
L 375.635805 72.697719 
L 377.226138 49.230695 
L 378.81647 31.224734 
L 380.406802 43.393404 
L 383.587467 79.440837 
L 385.177799 78.66669 
L 386.768132 67.89659 
L 388.358464 46.505538 
L 389.948796 42.19005 
L 391.539129 64.369646 
L 393.129461 76.671531 
L 394.719793 72.700407 
L 396.310126 43.966384 
L 397.900458 24.42595 
L 399.49079 38.944509 
L 401.081123 59.591167 
L 402.671455 76.251921 
L 404.261787 71.823757 
L 407.442452 47.321722 
L 409.032784 50.37819 
L 412.213449 74.710731 
L 413.803781 70.702368 
L 415.394113 39.775089 
L 416.984446 29.342251 
L 418.574778 47.351091 
L 420.16511 52.769925 
L 421.755443 76.72355 
L 423.345775 75.291964 
L 424.936107 51.712072 
L 426.52644 34.738626 
L 428.116772 32.557848 
L 429.707104 52.464719 
L 431.297437 70.429219 
L 432.887769 69.081708 
L 434.478101 34.977416 
L 436.068434 42.181988 
L 439.249098 53.83488 
L 440.839431 74.743171 
L 442.429763 69.919583 
L 445.610428 29.747464 
L 447.20076 28.655443 
L 448.791092 58.89956 
L 450.381425 69.244676 
L 451.971757 65.438632 
L 453.562089 44.881615 
L 455.152422 27.621968 
L 456.742754 28.03985 
L 458.333086 52.316916 
L 459.923419 68.392597 
L 461.513751 66.01046 
L 463.104083 48.909558 
L 466.284748 23.694609 
L 467.87508 47.826943 
L 469.465413 64.190553 
L 471.055745 62.451843 
L 472.646077 37.804692 
L 474.23641 22.294312 
L 475.826742 34.958988 
L 477.417074 49.924989 
L 479.007407 68.053416 
L 480.597739 67.591961 
L 482.188071 43.169203 
L 483.778404 30.1068 
L 485.368736 36.24277 
L 486.959068 55.146687 
L 488.5494 68.046698 
L 490.139733 62.657041 
L 491.730065 32.68089 
L 493.320397 18.458131 
L 494.91073 42.282188 
L 496.501062 54.888318 
L 498.091394 73.422534 
L 499.681727 74.690767 
L 501.272059 56.067294 
L 502.862391 43.264219 
L 504.452724 39.732284 
L 506.043056 60.590475 
L 507.633388 71.310283 
L 509.223721 71.193575 
L 510.814053 30.257867 
L 512.404385 14.263957 
L 513.994718 30.548484 
L 517.175382 77.064458 
L 518.765715 68.356702 
L 520.356047 42.409645 
L 521.946379 26.18424 
L 523.536712 26.002268 
L 525.127044 50.534824 
L 526.717376 72.0255 
L 528.307709 64.635501 
L 529.898041 23.266554 
L 531.488373 13.359091 
L 533.078706 36.609784 
L 534.669038 52.489098 
L 536.25937 71.193959 
L 537.849703 69.828214 
L 541.030367 22.536749 
L 542.6207 24.669347 
L 544.211032 51.781943 
L 545.801364 69.277692 
L 547.391697 62.649747 
L 548.982029 36.694435 
L 550.572361 27.800484 
L 552.162694 44.302109 
L 553.753026 63.095653 
L 555.343358 74.652377 
L 556.933691 64.663718 
L 558.524023 48.578631 
L 560.114355 25.744475 
L 561.704688 31.840136 
L 561.704688 31.840136 
" style="fill:none;stroke:#1f77b4;stroke-linecap:square;stroke-width:1.5;"/>
   </g>
   <g id="patch_3">
    <path d="M 35.304688 142.7 
L 35.304688 7.2 
" style="fill:none;stroke:#000000;stroke-linecap:square;stroke-linejoin:miter;stroke-width:0.8;"/>
   </g>
   <g id="patch_4">
    <path d="M 561.704687 142.7 
L 561.704687 7.2 
" style="fill:none;stroke:#000000;stroke-linecap:square;stroke-linejoin:miter;stroke-width:0.8;"/>
   </g>
   <g id="patch_5">
    <path d="M 35.304688 142.7 
L 561.704688 142.7 
" style="fill:none;stroke:#000000;stroke-linecap:square;stroke-linejoin:miter;stroke-width:0.8;"/>
   </g>
   <g id="patch_6">
    <path d="M 35.304688 7.2 
L 561.704688 7.2 
" style="fill:none;stroke:#000000;stroke-linecap:square;stroke-linejoin:miter;stroke-width:0.8;"/>
   </g>
  </g>
  <g id="axes_2">
   <g id="patch_7">
    <path d="M 35.304688 320 
L 561.704687 320 
L 561.704687 184.5 
L 35.304688 184.5 
z
" style="fill:#ffffff;"/>
   </g>
   <g id="matplotlib.axis_3">
    <g id="xtick_29">
     <g id="line2d_34">
      <g>
       <use style="stroke:#000000;stroke-width:0.8;" x="111.640639" xlink:href="#m784883b2b5" y="320"/>
      </g>
     </g>
     <g id="text_11">
      <!-- 1989 -->
      <g transform="translate(98.915639 334.598437)scale(0.1 -0.1)">
       <use xlink:href="#DejaVuSans-49"/>
       <use x="63.623047" xlink:href="#DejaVuSans-57"/>
       <use x="127.246094" xlink:href="#DejaVuSans-56"/>
       <use x="190.869141" xlink:href="#DejaVuSans-57"/>
      </g>
     </g>
    </g>
    <g id="xtick_30">
     <g id="line2d_35">
      <g>
       <use style="stroke:#000000;stroke-width:0.8;" x="207.060579" xlink:href="#m784883b2b5" y="320"/>
      </g>
     </g>
     <g id="text_12">
      <!-- 1994 -->
      <g transform="translate(194.335579 334.598437)scale(0.1 -0.1)">
       <use xlink:href="#DejaVuSans-49"/>
       <use x="63.623047" xlink:href="#DejaVuSans-57"/>
       <use x="127.246094" xlink:href="#DejaVuSans-57"/>
       <use x="190.869141" xlink:href="#DejaVuSans-52"/>
      </g>
     </g>
    </g>
    <g id="xtick_31">
     <g id="line2d_36">
      <g>
       <use style="stroke:#000000;stroke-width:0.8;" x="302.480518" xlink:href="#m784883b2b5" y="320"/>
      </g>
     </g>
     <g id="text_13">
      <!-- 1999 -->
      <g transform="translate(289.755518 334.598437)scale(0.1 -0.1)">
       <use xlink:href="#DejaVuSans-49"/>
       <use x="63.623047" xlink:href="#DejaVuSans-57"/>
       <use x="127.246094" xlink:href="#DejaVuSans-57"/>
       <use x="190.869141" xlink:href="#DejaVuSans-57"/>
      </g>
     </g>
    </g>
    <g id="xtick_32">
     <g id="line2d_37">
      <g>
       <use style="stroke:#000000;stroke-width:0.8;" x="397.900458" xlink:href="#m784883b2b5" y="320"/>
      </g>
     </g>
     <g id="text_14">
      <!-- 2004 -->
      <g transform="translate(385.175458 334.598437)scale(0.1 -0.1)">
       <use xlink:href="#DejaVuSans-50"/>
       <use x="63.623047" xlink:href="#DejaVuSans-48"/>
       <use x="127.246094" xlink:href="#DejaVuSans-48"/>
       <use x="190.869141" xlink:href="#DejaVuSans-52"/>
      </g>
     </g>
    </g>
    <g id="xtick_33">
     <g id="line2d_38">
      <g>
       <use style="stroke:#000000;stroke-width:0.8;" x="493.320397" xlink:href="#m784883b2b5" y="320"/>
      </g>
     </g>
     <g id="text_15">
      <!-- 2009 -->
      <g transform="translate(480.595397 334.598437)scale(0.1 -0.1)">
       <use xlink:href="#DejaVuSans-50"/>
       <use x="63.623047" xlink:href="#DejaVuSans-48"/>
       <use x="127.246094" xlink:href="#DejaVuSans-48"/>
       <use x="190.869141" xlink:href="#DejaVuSans-57"/>
      </g>
     </g>
    </g>
    <g id="xtick_34">
     <g id="line2d_39">
      <g>
       <use style="stroke:#000000;stroke-width:0.6;" x="35.304688" xlink:href="#m30deebbfbd" y="320"/>
      </g>
     </g>
    </g>
    <g id="xtick_35">
     <g id="line2d_40">
      <g>
       <use style="stroke:#000000;stroke-width:0.6;" x="54.388675" xlink:href="#m30deebbfbd" y="320"/>
      </g>
     </g>
    </g>
    <g id="xtick_36">
     <g id="line2d_41">
      <g>
       <use style="stroke:#000000;stroke-width:0.6;" x="73.472663" xlink:href="#m30deebbfbd" y="320"/>
      </g>
     </g>
    </g>
    <g id="xtick_37">
     <g id="line2d_42">
      <g>
       <use style="stroke:#000000;stroke-width:0.6;" x="92.556651" xlink:href="#m30deebbfbd" y="320"/>
      </g>
     </g>
    </g>
    <g id="xtick_38">
     <g id="line2d_43">
      <g>
       <use style="stroke:#000000;stroke-width:0.6;" x="130.724627" xlink:href="#m30deebbfbd" y="320"/>
      </g>
     </g>
    </g>
    <g id="xtick_39">
     <g id="line2d_44">
      <g>
       <use style="stroke:#000000;stroke-width:0.6;" x="149.808615" xlink:href="#m30deebbfbd" y="320"/>
      </g>
     </g>
    </g>
    <g id="xtick_40">
     <g id="line2d_45">
      <g>
       <use style="stroke:#000000;stroke-width:0.6;" x="168.892603" xlink:href="#m30deebbfbd" y="320"/>
      </g>
     </g>
    </g>
    <g id="xtick_41">
     <g id="line2d_46">
      <g>
       <use style="stroke:#000000;stroke-width:0.6;" x="187.976591" xlink:href="#m30deebbfbd" y="320"/>
      </g>
     </g>
    </g>
    <g id="xtick_42">
     <g id="line2d_47">
      <g>
       <use style="stroke:#000000;stroke-width:0.6;" x="226.144567" xlink:href="#m30deebbfbd" y="320"/>
      </g>
     </g>
    </g>
    <g id="xtick_43">
     <g id="line2d_48">
      <g>
       <use style="stroke:#000000;stroke-width:0.6;" x="245.228555" xlink:href="#m30deebbfbd" y="320"/>
      </g>
     </g>
    </g>
    <g id="xtick_44">
     <g id="line2d_49">
      <g>
       <use style="stroke:#000000;stroke-width:0.6;" x="264.312542" xlink:href="#m30deebbfbd" y="320"/>
      </g>
     </g>
    </g>
    <g id="xtick_45">
     <g id="line2d_50">
      <g>
       <use style="stroke:#000000;stroke-width:0.6;" x="283.39653" xlink:href="#m30deebbfbd" y="320"/>
      </g>
     </g>
    </g>
    <g id="xtick_46">
     <g id="line2d_51">
      <g>
       <use style="stroke:#000000;stroke-width:0.6;" x="321.564506" xlink:href="#m30deebbfbd" y="320"/>
      </g>
     </g>
    </g>
    <g id="xtick_47">
     <g id="line2d_52">
      <g>
       <use style="stroke:#000000;stroke-width:0.6;" x="340.648494" xlink:href="#m30deebbfbd" y="320"/>
      </g>
     </g>
    </g>
    <g id="xtick_48">
     <g id="line2d_53">
      <g>
       <use style="stroke:#000000;stroke-width:0.6;" x="359.732482" xlink:href="#m30deebbfbd" y="320"/>
      </g>
     </g>
    </g>
    <g id="xtick_49">
     <g id="line2d_54">
      <g>
       <use style="stroke:#000000;stroke-width:0.6;" x="378.81647" xlink:href="#m30deebbfbd" y="320"/>
      </g>
     </g>
    </g>
    <g id="xtick_50">
     <g id="line2d_55">
      <g>
       <use style="stroke:#000000;stroke-width:0.6;" x="416.984446" xlink:href="#m30deebbfbd" y="320"/>
      </g>
     </g>
    </g>
    <g id="xtick_51">
     <g id="line2d_56">
      <g>
       <use style="stroke:#000000;stroke-width:0.6;" x="436.068434" xlink:href="#m30deebbfbd" y="320"/>
      </g>
     </g>
    </g>
    <g id="xtick_52">
     <g id="line2d_57">
      <g>
       <use style="stroke:#000000;stroke-width:0.6;" x="455.152422" xlink:href="#m30deebbfbd" y="320"/>
      </g>
     </g>
    </g>
    <g id="xtick_53">
     <g id="line2d_58">
      <g>
       <use style="stroke:#000000;stroke-width:0.6;" x="474.23641" xlink:href="#m30deebbfbd" y="320"/>
      </g>
     </g>
    </g>
    <g id="xtick_54">
     <g id="line2d_59">
      <g>
       <use style="stroke:#000000;stroke-width:0.6;" x="512.404385" xlink:href="#m30deebbfbd" y="320"/>
      </g>
     </g>
    </g>
    <g id="xtick_55">
     <g id="line2d_60">
      <g>
       <use style="stroke:#000000;stroke-width:0.6;" x="531.488373" xlink:href="#m30deebbfbd" y="320"/>
      </g>
     </g>
    </g>
    <g id="xtick_56">
     <g id="line2d_61">
      <g>
       <use style="stroke:#000000;stroke-width:0.6;" x="550.572361" xlink:href="#m30deebbfbd" y="320"/>
      </g>
     </g>
    </g>
    <g id="text_16">
     <!-- DATE -->
     <g transform="translate(285.496094 348.276562)scale(0.1 -0.1)">
      <use xlink:href="#DejaVuSans-68"/>
      <use x="75.251953" xlink:href="#DejaVuSans-65"/>
      <use x="135.910156" xlink:href="#DejaVuSans-84"/>
      <use x="196.994141" xlink:href="#DejaVuSans-69"/>
     </g>
    </g>
   </g>
   <g id="matplotlib.axis_4">
    <g id="ytick_5">
     <g id="line2d_62">
      <g>
       <use style="stroke:#000000;stroke-width:0.8;" x="35.304688" xlink:href="#m5cd781ec18" y="319.784105"/>
      </g>
     </g>
     <g id="text_17">
      <!-- 60 -->
      <g transform="translate(15.579687 323.583324)scale(0.1 -0.1)">
       <use xlink:href="#DejaVuSans-54"/>
       <use x="63.623047" xlink:href="#DejaVuSans-48"/>
      </g>
     </g>
    </g>
    <g id="ytick_6">
     <g id="line2d_63">
      <g>
       <use style="stroke:#000000;stroke-width:0.8;" x="35.304688" xlink:href="#m5cd781ec18" y="289.636067"/>
      </g>
     </g>
     <g id="text_18">
      <!-- 70 -->
      <defs>
       <path d="M 8.203125 72.90625 
L 55.078125 72.90625 
L 55.078125 68.703125 
L 28.609375 0 
L 18.3125 0 
L 43.21875 64.59375 
L 8.203125 64.59375 
z
" id="DejaVuSans-55"/>
      </defs>
      <g transform="translate(15.579687 293.435286)scale(0.1 -0.1)">
       <use xlink:href="#DejaVuSans-55"/>
       <use x="63.623047" xlink:href="#DejaVuSans-48"/>
      </g>
     </g>
    </g>
    <g id="ytick_7">
     <g id="line2d_64">
      <g>
       <use style="stroke:#000000;stroke-width:0.8;" x="35.304688" xlink:href="#m5cd781ec18" y="259.488029"/>
      </g>
     </g>
     <g id="text_19">
      <!-- 80 -->
      <g transform="translate(15.579687 263.287248)scale(0.1 -0.1)">
       <use xlink:href="#DejaVuSans-56"/>
       <use x="63.623047" xlink:href="#DejaVuSans-48"/>
      </g>
     </g>
    </g>
    <g id="ytick_8">
     <g id="line2d_65">
      <g>
       <use style="stroke:#000000;stroke-width:0.8;" x="35.304688" xlink:href="#m5cd781ec18" y="229.339991"/>
      </g>
     </g>
     <g id="text_20">
      <!-- 90 -->
      <g transform="translate(15.579687 233.13921)scale(0.1 -0.1)">
       <use xlink:href="#DejaVuSans-57"/>
       <use x="63.623047" xlink:href="#DejaVuSans-48"/>
      </g>
     </g>
    </g>
    <g id="ytick_9">
     <g id="line2d_66">
      <g>
       <use style="stroke:#000000;stroke-width:0.8;" x="35.304688" xlink:href="#m5cd781ec18" y="199.191953"/>
      </g>
     </g>
     <g id="text_21">
      <!-- 100 -->
      <g transform="translate(9.217187 202.991172)scale(0.1 -0.1)">
       <use xlink:href="#DejaVuSans-49"/>
       <use x="63.623047" xlink:href="#DejaVuSans-48"/>
       <use x="127.246094" xlink:href="#DejaVuSans-48"/>
      </g>
     </g>
    </g>
   </g>
   <g id="line2d_67">
    <path clip-path="url(#pe36eb47a3b)" d="M 44.846681 313.154489 
L 46.437014 313.391226 
L 48.027346 313.757173 
L 51.208011 313.83336 
L 52.798343 313.543348 
L 55.979008 312.370866 
L 59.159672 311.958629 
L 60.750005 311.637301 
L 63.930669 311.550311 
L 65.521002 311.225642 
L 67.111334 310.539397 
L 73.472663 307.167189 
L 76.653328 304.982825 
L 81.424325 302.785096 
L 83.014657 301.71768 
L 84.60499 300.190769 
L 86.195322 298.836243 
L 87.785654 297.86113 
L 90.966319 296.433633 
L 92.556651 295.512849 
L 95.737316 293.137498 
L 98.917981 291.648662 
L 100.508313 290.903892 
L 102.098645 290.736332 
L 103.688978 290.916153 
L 105.27931 290.466507 
L 108.459975 289.325705 
L 110.050307 288.867807 
L 111.640639 288.564945 
L 114.821304 288.389433 
L 116.411636 287.839181 
L 118.001968 287.016001 
L 119.592301 285.220359 
L 121.182633 283.113413 
L 122.772965 282.242713 
L 124.363298 282.200694 
L 125.95363 281.947689 
L 129.134295 280.763323 
L 135.495624 278.080625 
L 137.085956 277.94761 
L 138.676289 278.828824 
L 140.266621 279.437991 
L 141.856953 279.180941 
L 145.037618 279.10635 
L 146.62795 278.746294 
L 151.398947 276.388944 
L 154.579612 275.836318 
L 157.760277 274.451643 
L 160.940941 274.082242 
L 164.121606 273.149399 
L 165.711938 273.041833 
L 172.073268 275.622982 
L 173.6636 275.741741 
L 175.253932 275.58379 
L 176.844265 274.828946 
L 183.205594 271.00517 
L 184.795926 270.765053 
L 186.386258 270.310358 
L 187.976591 269.340772 
L 189.566923 268.069555 
L 191.157255 267.093248 
L 192.747588 266.728784 
L 194.33792 266.530008 
L 195.928252 266.449299 
L 197.518585 265.707569 
L 199.108917 264.602543 
L 200.699249 264.30414 
L 202.289582 264.343333 
L 203.879914 264.139168 
L 207.060579 262.859484 
L 210.241243 262.620171 
L 213.421908 261.983759 
L 215.01224 261.807531 
L 218.192905 262.126836 
L 219.783237 261.842553 
L 221.37357 261.231766 
L 222.963902 260.386918 
L 224.554234 259.858913 
L 226.144567 259.478721 
L 229.325231 256.859987 
L 230.915564 256.199066 
L 232.505896 255.338717 
L 234.096228 254.029928 
L 237.276893 250.947869 
L 238.867225 249.546676 
L 240.457558 248.406803 
L 243.638222 246.665566 
L 245.228555 246.21278 
L 248.409219 246.880572 
L 253.180216 246.233243 
L 254.770549 246.340206 
L 256.360881 246.795027 
L 257.951213 247.678352 
L 259.541546 248.306046 
L 261.131878 248.79712 
L 262.72221 249.425405 
L 264.312542 249.384555 
L 267.493207 248.41841 
L 269.083539 247.719943 
L 270.673872 247.244559 
L 272.264204 246.919676 
L 273.854536 247.177668 
L 275.444869 247.88474 
L 277.035201 247.685901 
L 280.215866 246.563565 
L 281.806198 245.197281 
L 284.986863 242.281262 
L 286.577195 240.855386 
L 288.167527 239.82627 
L 289.75786 239.577574 
L 291.348192 239.706557 
L 292.938524 238.836547 
L 294.528857 237.491731 
L 297.709521 235.545324 
L 299.299854 234.901676 
L 300.890186 234.557034 
L 302.480518 233.924226 
L 304.070851 233.103056 
L 305.661183 232.78046 
L 307.251515 232.751329 
L 308.841848 232.586005 
L 312.022512 231.767322 
L 313.612845 231.363929 
L 315.203177 231.304814 
L 316.793509 231.520938 
L 318.383842 230.768317 
L 319.974174 229.73022 
L 323.154839 229.332894 
L 326.335503 227.719898 
L 327.925836 226.672455 
L 331.1065 223.079123 
L 332.696833 221.854258 
L 334.287165 220.898515 
L 335.877497 220.118673 
L 337.467829 220.173467 
L 339.058162 220.494268 
L 342.238826 220.532644 
L 345.419491 221.229239 
L 347.009823 221.928159 
L 350.190488 225.703836 
L 351.78082 226.718418 
L 353.371153 226.911479 
L 354.961485 226.496026 
L 358.14215 225.107797 
L 361.322814 222.908497 
L 362.913147 222.016141 
L 366.093811 219.616947 
L 367.684144 217.933029 
L 370.864808 214.068251 
L 372.455141 212.8207 
L 374.045473 212.749777 
L 375.635805 212.812937 
L 378.81647 213.336734 
L 381.997135 212.694907 
L 385.177799 212.844115 
L 386.768132 212.499787 
L 389.948796 210.974296 
L 393.129461 210.260993 
L 394.719793 209.604495 
L 396.310126 208.600402 
L 397.900458 208.097533 
L 399.49079 208.686789 
L 401.081123 209.083135 
L 404.261787 208.556248 
L 405.85212 208.151209 
L 407.442452 208.198654 
L 409.032784 209.070523 
L 410.623117 209.17427 
L 412.213449 208.758742 
L 413.803781 209.01657 
L 415.394113 208.740678 
L 416.984446 207.414365 
L 418.574778 205.424721 
L 420.16511 203.618954 
L 421.755443 202.699187 
L 424.936107 201.892916 
L 426.52644 202.4192 
L 428.116772 203.292099 
L 429.707104 203.394439 
L 431.297437 203.334532 
L 437.658766 201.337689 
L 439.249098 201.503416 
L 440.839431 201.847003 
L 442.429763 201.531076 
L 444.020095 201.940813 
L 445.610428 201.63613 
L 447.20076 199.386898 
L 448.791092 197.991157 
L 450.381425 197.476228 
L 451.971757 196.804819 
L 453.562089 196.493327 
L 455.152422 196.862452 
L 456.742754 196.962606 
L 459.923419 194.857997 
L 461.513751 194.331788 
L 463.104083 193.673204 
L 464.694416 192.86143 
L 466.284748 192.965579 
L 467.87508 193.261846 
L 469.465413 193.083119 
L 471.055745 193.164418 
L 472.646077 192.892257 
L 474.23641 192.115317 
L 475.826742 192.535203 
L 477.417074 193.835388 
L 479.007407 194.566754 
L 480.597739 194.832534 
L 482.188071 194.510654 
L 483.778404 193.924299 
L 485.368736 194.152495 
L 486.959068 194.956543 
L 488.5494 195.632713 
L 490.139733 196.448632 
L 491.730065 197.757258 
L 493.320397 199.462368 
L 494.91073 200.551768 
L 498.091394 201.706199 
L 499.681727 202.478416 
L 501.272059 202.878493 
L 502.862391 202.445454 
L 504.452724 201.403111 
L 506.043056 200.583197 
L 507.633388 200.769487 
L 509.223721 200.593309 
L 510.814053 199.285022 
L 513.994718 195.257257 
L 515.58505 193.700689 
L 517.175382 193.089437 
L 518.765715 192.707072 
L 520.356047 191.820381 
L 521.946379 191.303643 
L 525.127044 191.932783 
L 526.717376 191.443643 
L 528.307709 191.155767 
L 529.898041 191.444686 
L 531.488373 191.39861 
L 533.078706 191.072684 
L 536.25937 190.968862 
L 537.849703 190.659091 
L 539.440035 191.40788 
L 541.030367 193.231686 
L 542.6207 194.680148 
L 544.211032 195.877653 
L 545.801364 196.798086 
L 548.982029 196.559552 
L 550.572361 196.980557 
L 552.162694 197.659742 
L 552.162694 197.659742 
" style="fill:none;stroke:#1f77b4;stroke-linecap:square;stroke-width:1.5;"/>
   </g>
   <g id="patch_8">
    <path d="M 35.304688 320 
L 35.304688 184.5 
" style="fill:none;stroke:#000000;stroke-linecap:square;stroke-linejoin:miter;stroke-width:0.8;"/>
   </g>
   <g id="patch_9">
    <path d="M 561.704687 320 
L 561.704687 184.5 
" style="fill:none;stroke:#000000;stroke-linecap:square;stroke-linejoin:miter;stroke-width:0.8;"/>
   </g>
   <g id="patch_10">
    <path d="M 35.304688 320 
L 561.704688 320 
" style="fill:none;stroke:#000000;stroke-linecap:square;stroke-linejoin:miter;stroke-width:0.8;"/>
   </g>
   <g id="patch_11">
    <path d="M 35.304688 184.5 
L 561.704688 184.5 
" style="fill:none;stroke:#000000;stroke-linecap:square;stroke-linejoin:miter;stroke-width:0.8;"/>
   </g>
  </g>
  <g id="axes_3">
   <g id="patch_12">
    <path d="M 35.304688 497.3 
L 561.704687 497.3 
L 561.704687 361.8 
L 35.304688 361.8 
z
" style="fill:#ffffff;"/>
   </g>
   <g id="matplotlib.axis_5">
    <g id="xtick_57">
     <g id="line2d_68">
      <g>
       <use style="stroke:#000000;stroke-width:0.8;" x="111.640639" xlink:href="#m784883b2b5" y="497.3"/>
      </g>
     </g>
     <g id="text_22">
      <!-- 1989 -->
      <g transform="translate(98.915639 511.898437)scale(0.1 -0.1)">
       <use xlink:href="#DejaVuSans-49"/>
       <use x="63.623047" xlink:href="#DejaVuSans-57"/>
       <use x="127.246094" xlink:href="#DejaVuSans-56"/>
       <use x="190.869141" xlink:href="#DejaVuSans-57"/>
      </g>
     </g>
    </g>
    <g id="xtick_58">
     <g id="line2d_69">
      <g>
       <use style="stroke:#000000;stroke-width:0.8;" x="207.060579" xlink:href="#m784883b2b5" y="497.3"/>
      </g>
     </g>
     <g id="text_23">
      <!-- 1994 -->
      <g transform="translate(194.335579 511.898437)scale(0.1 -0.1)">
       <use xlink:href="#DejaVuSans-49"/>
       <use x="63.623047" xlink:href="#DejaVuSans-57"/>
       <use x="127.246094" xlink:href="#DejaVuSans-57"/>
       <use x="190.869141" xlink:href="#DejaVuSans-52"/>
      </g>
     </g>
    </g>
    <g id="xtick_59">
     <g id="line2d_70">
      <g>
       <use style="stroke:#000000;stroke-width:0.8;" x="302.480518" xlink:href="#m784883b2b5" y="497.3"/>
      </g>
     </g>
     <g id="text_24">
      <!-- 1999 -->
      <g transform="translate(289.755518 511.898437)scale(0.1 -0.1)">
       <use xlink:href="#DejaVuSans-49"/>
       <use x="63.623047" xlink:href="#DejaVuSans-57"/>
       <use x="127.246094" xlink:href="#DejaVuSans-57"/>
       <use x="190.869141" xlink:href="#DejaVuSans-57"/>
      </g>
     </g>
    </g>
    <g id="xtick_60">
     <g id="line2d_71">
      <g>
       <use style="stroke:#000000;stroke-width:0.8;" x="397.900458" xlink:href="#m784883b2b5" y="497.3"/>
      </g>
     </g>
     <g id="text_25">
      <!-- 2004 -->
      <g transform="translate(385.175458 511.898437)scale(0.1 -0.1)">
       <use xlink:href="#DejaVuSans-50"/>
       <use x="63.623047" xlink:href="#DejaVuSans-48"/>
       <use x="127.246094" xlink:href="#DejaVuSans-48"/>
       <use x="190.869141" xlink:href="#DejaVuSans-52"/>
      </g>
     </g>
    </g>
    <g id="xtick_61">
     <g id="line2d_72">
      <g>
       <use style="stroke:#000000;stroke-width:0.8;" x="493.320397" xlink:href="#m784883b2b5" y="497.3"/>
      </g>
     </g>
     <g id="text_26">
      <!-- 2009 -->
      <g transform="translate(480.595397 511.898437)scale(0.1 -0.1)">
       <use xlink:href="#DejaVuSans-50"/>
       <use x="63.623047" xlink:href="#DejaVuSans-48"/>
       <use x="127.246094" xlink:href="#DejaVuSans-48"/>
       <use x="190.869141" xlink:href="#DejaVuSans-57"/>
      </g>
     </g>
    </g>
    <g id="xtick_62">
     <g id="line2d_73">
      <g>
       <use style="stroke:#000000;stroke-width:0.6;" x="35.304688" xlink:href="#m30deebbfbd" y="497.3"/>
      </g>
     </g>
    </g>
    <g id="xtick_63">
     <g id="line2d_74">
      <g>
       <use style="stroke:#000000;stroke-width:0.6;" x="54.388675" xlink:href="#m30deebbfbd" y="497.3"/>
      </g>
     </g>
    </g>
    <g id="xtick_64">
     <g id="line2d_75">
      <g>
       <use style="stroke:#000000;stroke-width:0.6;" x="73.472663" xlink:href="#m30deebbfbd" y="497.3"/>
      </g>
     </g>
    </g>
    <g id="xtick_65">
     <g id="line2d_76">
      <g>
       <use style="stroke:#000000;stroke-width:0.6;" x="92.556651" xlink:href="#m30deebbfbd" y="497.3"/>
      </g>
     </g>
    </g>
    <g id="xtick_66">
     <g id="line2d_77">
      <g>
       <use style="stroke:#000000;stroke-width:0.6;" x="130.724627" xlink:href="#m30deebbfbd" y="497.3"/>
      </g>
     </g>
    </g>
    <g id="xtick_67">
     <g id="line2d_78">
      <g>
       <use style="stroke:#000000;stroke-width:0.6;" x="149.808615" xlink:href="#m30deebbfbd" y="497.3"/>
      </g>
     </g>
    </g>
    <g id="xtick_68">
     <g id="line2d_79">
      <g>
       <use style="stroke:#000000;stroke-width:0.6;" x="168.892603" xlink:href="#m30deebbfbd" y="497.3"/>
      </g>
     </g>
    </g>
    <g id="xtick_69">
     <g id="line2d_80">
      <g>
       <use style="stroke:#000000;stroke-width:0.6;" x="187.976591" xlink:href="#m30deebbfbd" y="497.3"/>
      </g>
     </g>
    </g>
    <g id="xtick_70">
     <g id="line2d_81">
      <g>
       <use style="stroke:#000000;stroke-width:0.6;" x="226.144567" xlink:href="#m30deebbfbd" y="497.3"/>
      </g>
     </g>
    </g>
    <g id="xtick_71">
     <g id="line2d_82">
      <g>
       <use style="stroke:#000000;stroke-width:0.6;" x="245.228555" xlink:href="#m30deebbfbd" y="497.3"/>
      </g>
     </g>
    </g>
    <g id="xtick_72">
     <g id="line2d_83">
      <g>
       <use style="stroke:#000000;stroke-width:0.6;" x="264.312542" xlink:href="#m30deebbfbd" y="497.3"/>
      </g>
     </g>
    </g>
    <g id="xtick_73">
     <g id="line2d_84">
      <g>
       <use style="stroke:#000000;stroke-width:0.6;" x="283.39653" xlink:href="#m30deebbfbd" y="497.3"/>
      </g>
     </g>
    </g>
    <g id="xtick_74">
     <g id="line2d_85">
      <g>
       <use style="stroke:#000000;stroke-width:0.6;" x="321.564506" xlink:href="#m30deebbfbd" y="497.3"/>
      </g>
     </g>
    </g>
    <g id="xtick_75">
     <g id="line2d_86">
      <g>
       <use style="stroke:#000000;stroke-width:0.6;" x="340.648494" xlink:href="#m30deebbfbd" y="497.3"/>
      </g>
     </g>
    </g>
    <g id="xtick_76">
     <g id="line2d_87">
      <g>
       <use style="stroke:#000000;stroke-width:0.6;" x="359.732482" xlink:href="#m30deebbfbd" y="497.3"/>
      </g>
     </g>
    </g>
    <g id="xtick_77">
     <g id="line2d_88">
      <g>
       <use style="stroke:#000000;stroke-width:0.6;" x="378.81647" xlink:href="#m30deebbfbd" y="497.3"/>
      </g>
     </g>
    </g>
    <g id="xtick_78">
     <g id="line2d_89">
      <g>
       <use style="stroke:#000000;stroke-width:0.6;" x="416.984446" xlink:href="#m30deebbfbd" y="497.3"/>
      </g>
     </g>
    </g>
    <g id="xtick_79">
     <g id="line2d_90">
      <g>
       <use style="stroke:#000000;stroke-width:0.6;" x="436.068434" xlink:href="#m30deebbfbd" y="497.3"/>
      </g>
     </g>
    </g>
    <g id="xtick_80">
     <g id="line2d_91">
      <g>
       <use style="stroke:#000000;stroke-width:0.6;" x="455.152422" xlink:href="#m30deebbfbd" y="497.3"/>
      </g>
     </g>
    </g>
    <g id="xtick_81">
     <g id="line2d_92">
      <g>
       <use style="stroke:#000000;stroke-width:0.6;" x="474.23641" xlink:href="#m30deebbfbd" y="497.3"/>
      </g>
     </g>
    </g>
    <g id="xtick_82">
     <g id="line2d_93">
      <g>
       <use style="stroke:#000000;stroke-width:0.6;" x="512.404385" xlink:href="#m30deebbfbd" y="497.3"/>
      </g>
     </g>
    </g>
    <g id="xtick_83">
     <g id="line2d_94">
      <g>
       <use style="stroke:#000000;stroke-width:0.6;" x="531.488373" xlink:href="#m30deebbfbd" y="497.3"/>
      </g>
     </g>
    </g>
    <g id="xtick_84">
     <g id="line2d_95">
      <g>
       <use style="stroke:#000000;stroke-width:0.6;" x="550.572361" xlink:href="#m30deebbfbd" y="497.3"/>
      </g>
     </g>
    </g>
    <g id="text_27">
     <!-- DATE -->
     <g transform="translate(285.496094 525.576562)scale(0.1 -0.1)">
      <use xlink:href="#DejaVuSans-68"/>
      <use x="75.251953" xlink:href="#DejaVuSans-65"/>
      <use x="135.910156" xlink:href="#DejaVuSans-84"/>
      <use x="196.994141" xlink:href="#DejaVuSans-69"/>
     </g>
    </g>
   </g>
   <g id="matplotlib.axis_6">
    <g id="ytick_10">
     <g id="line2d_96">
      <g>
       <use style="stroke:#000000;stroke-width:0.8;" x="35.304688" xlink:href="#m5cd781ec18" y="497.269636"/>
      </g>
     </g>
     <g id="text_28">
      <!-- 10 -->
      <defs>
       <path d="M 10.59375 35.5 
L 73.1875 35.5 
L 73.1875 27.203125 
L 10.59375 27.203125 
z
" id="DejaVuSans-8722"/>
      </defs>
      <g transform="translate(7.2 501.068855)scale(0.1 -0.1)">
       <use xlink:href="#DejaVuSans-8722"/>
       <use x="83.789062" xlink:href="#DejaVuSans-49"/>
       <use x="147.412109" xlink:href="#DejaVuSans-48"/>
      </g>
     </g>
    </g>
    <g id="ytick_11">
     <g id="line2d_97">
      <g>
       <use style="stroke:#000000;stroke-width:0.8;" x="35.304688" xlink:href="#m5cd781ec18" y="468.798441"/>
      </g>
     </g>
     <g id="text_29">
      <!-- 5 -->
      <defs>
       <path d="M 10.796875 72.90625 
L 49.515625 72.90625 
L 49.515625 64.59375 
L 19.828125 64.59375 
L 19.828125 46.734375 
Q 21.96875 47.46875 24.109375 47.828125 
Q 26.265625 48.1875 28.421875 48.1875 
Q 40.625 48.1875 47.75 41.5 
Q 54.890625 34.8125 54.890625 23.390625 
Q 54.890625 11.625 47.5625 5.09375 
Q 40.234375 -1.421875 26.90625 -1.421875 
Q 22.3125 -1.421875 17.546875 -0.640625 
Q 12.796875 0.140625 7.71875 1.703125 
L 7.71875 11.625 
Q 12.109375 9.234375 16.796875 8.0625 
Q 21.484375 6.890625 26.703125 6.890625 
Q 35.15625 6.890625 40.078125 11.328125 
Q 45.015625 15.765625 45.015625 23.390625 
Q 45.015625 31 40.078125 35.4375 
Q 35.15625 39.890625 26.703125 39.890625 
Q 22.75 39.890625 18.8125 39.015625 
Q 14.890625 38.140625 10.796875 36.28125 
z
" id="DejaVuSans-53"/>
      </defs>
      <g transform="translate(13.5625 472.59766)scale(0.1 -0.1)">
       <use xlink:href="#DejaVuSans-8722"/>
       <use x="83.789062" xlink:href="#DejaVuSans-53"/>
      </g>
     </g>
    </g>
    <g id="ytick_12">
     <g id="line2d_98">
      <g>
       <use style="stroke:#000000;stroke-width:0.8;" x="35.304688" xlink:href="#m5cd781ec18" y="440.327246"/>
      </g>
     </g>
     <g id="text_30">
      <!-- 0 -->
      <g transform="translate(21.942187 444.126465)scale(0.1 -0.1)">
       <use xlink:href="#DejaVuSans-48"/>
      </g>
     </g>
    </g>
    <g id="ytick_13">
     <g id="line2d_99">
      <g>
       <use style="stroke:#000000;stroke-width:0.8;" x="35.304688" xlink:href="#m5cd781ec18" y="411.856051"/>
      </g>
     </g>
     <g id="text_31">
      <!-- 5 -->
      <g transform="translate(21.942187 415.65527)scale(0.1 -0.1)">
       <use xlink:href="#DejaVuSans-53"/>
      </g>
     </g>
    </g>
    <g id="ytick_14">
     <g id="line2d_100">
      <g>
       <use style="stroke:#000000;stroke-width:0.8;" x="35.304688" xlink:href="#m5cd781ec18" y="383.384856"/>
      </g>
     </g>
     <g id="text_32">
      <!-- 10 -->
      <g transform="translate(15.579687 387.184074)scale(0.1 -0.1)">
       <use xlink:href="#DejaVuSans-49"/>
       <use x="63.623047" xlink:href="#DejaVuSans-48"/>
      </g>
     </g>
    </g>
   </g>
   <g id="line2d_101">
    <path clip-path="url(#p3da1159cfc)" d="M 35.304688 367.959091 
L 36.89502 407.87231 
L 38.485352 441.536053 
L 40.075684 490.043624 
L 41.666017 491.140909 
L 43.256349 448.349003 
L 44.846681 409.324624 
L 46.437014 406.538806 
L 48.027346 454.570933 
L 49.617678 488.555271 
L 51.208011 473.708527 
L 52.798343 404.327799 
L 54.388675 367.959091 
L 55.979008 407.87231 
L 57.56934 441.536053 
L 59.159672 490.043624 
L 60.750005 491.140909 
L 62.340337 448.349003 
L 63.930669 409.324624 
L 65.521002 406.538806 
L 67.111334 454.570933 
L 68.701666 488.555271 
L 70.291999 473.708527 
L 71.882331 404.327799 
L 73.472663 367.959091 
L 75.062996 407.87231 
L 76.653328 441.536053 
L 78.24366 490.043624 
L 79.833993 491.140909 
L 81.424325 448.349003 
L 83.014657 409.324624 
L 84.60499 406.538806 
L 86.195322 454.570933 
L 87.785654 488.555271 
L 89.375987 473.708527 
L 90.966319 404.327799 
L 92.556651 367.959091 
L 94.146984 407.87231 
L 95.737316 441.536053 
L 97.327648 490.043624 
L 98.917981 491.140909 
L 100.508313 448.349003 
L 102.098645 409.324624 
L 103.688978 406.538806 
L 105.27931 454.570933 
L 106.869642 488.555271 
L 108.459975 473.708527 
L 110.050307 404.327799 
L 111.640639 367.959091 
L 113.230971 407.87231 
L 114.821304 441.536053 
L 116.411636 490.043624 
L 118.001968 491.140909 
L 119.592301 448.349003 
L 121.182633 409.324624 
L 122.772965 406.538806 
L 124.363298 454.570933 
L 125.95363 488.555271 
L 127.543962 473.708527 
L 129.134295 404.327799 
L 130.724627 367.959091 
L 132.314959 407.87231 
L 133.905292 441.536053 
L 135.495624 490.043624 
L 137.085956 491.140909 
L 138.676289 448.349003 
L 140.266621 409.324624 
L 141.856953 406.538806 
L 143.447286 454.570933 
L 145.037618 488.555271 
L 146.62795 473.708527 
L 148.218283 404.327799 
L 149.808615 367.959091 
L 151.398947 407.87231 
L 152.98928 441.536053 
L 154.579612 490.043624 
L 156.169944 491.140909 
L 157.760277 448.349003 
L 159.350609 409.324624 
L 160.940941 406.538806 
L 162.531274 454.570933 
L 164.121606 488.555271 
L 165.711938 473.708527 
L 167.302271 404.327799 
L 168.892603 367.959091 
L 170.482935 407.87231 
L 172.073268 441.536053 
L 173.6636 490.043624 
L 175.253932 491.140909 
L 176.844265 448.349003 
L 178.434597 409.324624 
L 180.024929 406.538806 
L 181.615262 454.570933 
L 183.205594 488.555271 
L 184.795926 473.708527 
L 186.386258 404.327799 
L 187.976591 367.959091 
L 189.566923 407.87231 
L 191.157255 441.536053 
L 192.747588 490.043624 
L 194.33792 491.140909 
L 195.928252 448.349003 
L 197.518585 409.324624 
L 199.108917 406.538806 
L 200.699249 454.570933 
L 202.289582 488.555271 
L 203.879914 473.708527 
L 205.470246 404.327799 
L 207.060579 367.959091 
L 208.650911 407.87231 
L 210.241243 441.536053 
L 211.831576 490.043624 
L 213.421908 491.140909 
L 215.01224 448.349003 
L 216.602573 409.324624 
L 218.192905 406.538806 
L 219.783237 454.570933 
L 221.37357 488.555271 
L 222.963902 473.708527 
L 224.554234 404.327799 
L 226.144567 367.959091 
L 227.734899 407.87231 
L 229.325231 441.536053 
L 230.915564 490.043624 
L 232.505896 491.140909 
L 234.096228 448.349003 
L 235.686561 409.324624 
L 237.276893 406.538806 
L 238.867225 454.570933 
L 240.457558 488.555271 
L 242.04789 473.708527 
L 243.638222 404.327799 
L 245.228555 367.959091 
L 246.818887 407.87231 
L 248.409219 441.536053 
L 249.999552 490.043624 
L 251.589884 491.140909 
L 253.180216 448.349003 
L 254.770549 409.324624 
L 256.360881 406.538806 
L 257.951213 454.570933 
L 259.541546 488.555271 
L 261.131878 473.708527 
L 262.72221 404.327799 
L 264.312542 367.959091 
L 265.902875 407.87231 
L 267.493207 441.536053 
L 269.083539 490.043624 
L 270.673872 491.140909 
L 272.264204 448.349003 
L 273.854536 409.324624 
L 275.444869 406.538806 
L 277.035201 454.570933 
L 278.625533 488.555271 
L 280.215866 473.708527 
L 281.806198 404.327799 
L 283.39653 367.959091 
L 284.986863 407.87231 
L 286.577195 441.536053 
L 288.167527 490.043624 
L 289.75786 491.140909 
L 291.348192 448.349003 
L 292.938524 409.324624 
L 294.528857 406.538806 
L 296.119189 454.570933 
L 297.709521 488.555271 
L 299.299854 473.708527 
L 300.890186 404.327799 
L 302.480518 367.959091 
L 304.070851 407.87231 
L 305.661183 441.536053 
L 307.251515 490.043624 
L 308.841848 491.140909 
L 310.43218 448.349003 
L 312.022512 409.324624 
L 313.612845 406.538806 
L 315.203177 454.570933 
L 316.793509 488.555271 
L 318.383842 473.708527 
L 319.974174 404.327799 
L 321.564506 367.959091 
L 323.154839 407.87231 
L 324.745171 441.536053 
L 326.335503 490.043624 
L 327.925836 491.140909 
L 329.516168 448.349003 
L 331.1065 409.324624 
L 332.696833 406.538806 
L 334.287165 454.570933 
L 335.877497 488.555271 
L 337.467829 473.708527 
L 339.058162 404.327799 
L 340.648494 367.959091 
L 342.238826 407.87231 
L 343.829159 441.536053 
L 345.419491 490.043624 
L 347.009823 491.140909 
L 348.600156 448.349003 
L 350.190488 409.324624 
L 351.78082 406.538806 
L 353.371153 454.570933 
L 354.961485 488.555271 
L 356.551817 473.708527 
L 358.14215 404.327799 
L 359.732482 367.959091 
L 361.322814 407.87231 
L 362.913147 441.536053 
L 364.503479 490.043624 
L 366.093811 491.140909 
L 367.684144 448.349003 
L 369.274476 409.324624 
L 370.864808 406.538806 
L 372.455141 454.570933 
L 374.045473 488.555271 
L 375.635805 473.708527 
L 377.226138 404.327799 
L 378.81647 367.959091 
L 380.406802 407.87231 
L 381.997135 441.536053 
L 383.587467 490.043624 
L 385.177799 491.140909 
L 386.768132 448.349003 
L 388.358464 409.324624 
L 389.948796 406.538806 
L 391.539129 454.570933 
L 393.129461 488.555271 
L 394.719793 473.708527 
L 396.310126 404.327799 
L 397.900458 367.959091 
L 399.49079 407.87231 
L 401.081123 441.536053 
L 402.671455 490.043624 
L 404.261787 491.140909 
L 405.85212 448.349003 
L 407.442452 409.324624 
L 409.032784 406.538806 
L 410.623117 454.570933 
L 412.213449 488.555271 
L 413.803781 473.708527 
L 415.394113 404.327799 
L 416.984446 367.959091 
L 418.574778 407.87231 
L 420.16511 441.536053 
L 421.755443 490.043624 
L 423.345775 491.140909 
L 424.936107 448.349003 
L 426.52644 409.324624 
L 428.116772 406.538806 
L 429.707104 454.570933 
L 431.297437 488.555271 
L 432.887769 473.708527 
L 434.478101 404.327799 
L 436.068434 367.959091 
L 437.658766 407.87231 
L 439.249098 441.536053 
L 440.839431 490.043624 
L 442.429763 491.140909 
L 444.020095 448.349003 
L 445.610428 409.324624 
L 447.20076 406.538806 
L 448.791092 454.570933 
L 450.381425 488.555271 
L 451.971757 473.708527 
L 453.562089 404.327799 
L 455.152422 367.959091 
L 456.742754 407.87231 
L 458.333086 441.536053 
L 459.923419 490.043624 
L 461.513751 491.140909 
L 463.104083 448.349003 
L 464.694416 409.324624 
L 466.284748 406.538806 
L 467.87508 454.570933 
L 469.465413 488.555271 
L 471.055745 473.708527 
L 472.646077 404.327799 
L 474.23641 367.959091 
L 475.826742 407.87231 
L 477.417074 441.536053 
L 479.007407 490.043624 
L 480.597739 491.140909 
L 482.188071 448.349003 
L 483.778404 409.324624 
L 485.368736 406.538806 
L 486.959068 454.570933 
L 488.5494 488.555271 
L 490.139733 473.708527 
L 491.730065 404.327799 
L 493.320397 367.959091 
L 494.91073 407.87231 
L 496.501062 441.536053 
L 498.091394 490.043624 
L 499.681727 491.140909 
L 501.272059 448.349003 
L 502.862391 409.324624 
L 504.452724 406.538806 
L 506.043056 454.570933 
L 507.633388 488.555271 
L 509.223721 473.708527 
L 510.814053 404.327799 
L 512.404385 367.959091 
L 513.994718 407.87231 
L 515.58505 441.536053 
L 517.175382 490.043624 
L 518.765715 491.140909 
L 520.356047 448.349003 
L 521.946379 409.324624 
L 523.536712 406.538806 
L 525.127044 454.570933 
L 526.717376 488.555271 
L 528.307709 473.708527 
L 529.898041 404.327799 
L 531.488373 367.959091 
L 533.078706 407.87231 
L 534.669038 441.536053 
L 536.25937 490.043624 
L 537.849703 491.140909 
L 539.440035 448.349003 
L 541.030367 409.324624 
L 542.6207 406.538806 
L 544.211032 454.570933 
L 545.801364 488.555271 
L 547.391697 473.708527 
L 548.982029 404.327799 
L 550.572361 367.959091 
L 552.162694 407.87231 
L 553.753026 441.536053 
L 555.343358 490.043624 
L 556.933691 491.140909 
L 558.524023 448.349003 
L 560.114355 409.324624 
L 561.704688 406.538806 
L 561.704688 406.538806 
" style="fill:none;stroke:#1f77b4;stroke-linecap:square;stroke-width:1.5;"/>
   </g>
   <g id="patch_13">
    <path d="M 35.304688 497.3 
L 35.304688 361.8 
" style="fill:none;stroke:#000000;stroke-linecap:square;stroke-linejoin:miter;stroke-width:0.8;"/>
   </g>
   <g id="patch_14">
    <path d="M 561.704687 497.3 
L 561.704687 361.8 
" style="fill:none;stroke:#000000;stroke-linecap:square;stroke-linejoin:miter;stroke-width:0.8;"/>
   </g>
   <g id="patch_15">
    <path d="M 35.304688 497.3 
L 561.704688 497.3 
" style="fill:none;stroke:#000000;stroke-linecap:square;stroke-linejoin:miter;stroke-width:0.8;"/>
   </g>
   <g id="patch_16">
    <path d="M 35.304688 361.8 
L 561.704688 361.8 
" style="fill:none;stroke:#000000;stroke-linecap:square;stroke-linejoin:miter;stroke-width:0.8;"/>
   </g>
  </g>
  <g id="axes_4">
   <g id="patch_17">
    <path d="M 35.304688 674.6 
L 561.704687 674.6 
L 561.704687 539.1 
L 35.304688 539.1 
z
" style="fill:#ffffff;"/>
   </g>
   <g id="matplotlib.axis_7">
    <g id="xtick_85">
     <g id="line2d_102">
      <g>
       <use style="stroke:#000000;stroke-width:0.8;" x="111.640639" xlink:href="#m784883b2b5" y="674.6"/>
      </g>
     </g>
     <g id="text_33">
      <!-- 1989 -->
      <g transform="translate(98.915639 689.198437)scale(0.1 -0.1)">
       <use xlink:href="#DejaVuSans-49"/>
       <use x="63.623047" xlink:href="#DejaVuSans-57"/>
       <use x="127.246094" xlink:href="#DejaVuSans-56"/>
       <use x="190.869141" xlink:href="#DejaVuSans-57"/>
      </g>
     </g>
    </g>
    <g id="xtick_86">
     <g id="line2d_103">
      <g>
       <use style="stroke:#000000;stroke-width:0.8;" x="207.060579" xlink:href="#m784883b2b5" y="674.6"/>
      </g>
     </g>
     <g id="text_34">
      <!-- 1994 -->
      <g transform="translate(194.335579 689.198437)scale(0.1 -0.1)">
       <use xlink:href="#DejaVuSans-49"/>
       <use x="63.623047" xlink:href="#DejaVuSans-57"/>
       <use x="127.246094" xlink:href="#DejaVuSans-57"/>
       <use x="190.869141" xlink:href="#DejaVuSans-52"/>
      </g>
     </g>
    </g>
    <g id="xtick_87">
     <g id="line2d_104">
      <g>
       <use style="stroke:#000000;stroke-width:0.8;" x="302.480518" xlink:href="#m784883b2b5" y="674.6"/>
      </g>
     </g>
     <g id="text_35">
      <!-- 1999 -->
      <g transform="translate(289.755518 689.198437)scale(0.1 -0.1)">
       <use xlink:href="#DejaVuSans-49"/>
       <use x="63.623047" xlink:href="#DejaVuSans-57"/>
       <use x="127.246094" xlink:href="#DejaVuSans-57"/>
       <use x="190.869141" xlink:href="#DejaVuSans-57"/>
      </g>
     </g>
    </g>
    <g id="xtick_88">
     <g id="line2d_105">
      <g>
       <use style="stroke:#000000;stroke-width:0.8;" x="397.900458" xlink:href="#m784883b2b5" y="674.6"/>
      </g>
     </g>
     <g id="text_36">
      <!-- 2004 -->
      <g transform="translate(385.175458 689.198437)scale(0.1 -0.1)">
       <use xlink:href="#DejaVuSans-50"/>
       <use x="63.623047" xlink:href="#DejaVuSans-48"/>
       <use x="127.246094" xlink:href="#DejaVuSans-48"/>
       <use x="190.869141" xlink:href="#DejaVuSans-52"/>
      </g>
     </g>
    </g>
    <g id="xtick_89">
     <g id="line2d_106">
      <g>
       <use style="stroke:#000000;stroke-width:0.8;" x="493.320397" xlink:href="#m784883b2b5" y="674.6"/>
      </g>
     </g>
     <g id="text_37">
      <!-- 2009 -->
      <g transform="translate(480.595397 689.198437)scale(0.1 -0.1)">
       <use xlink:href="#DejaVuSans-50"/>
       <use x="63.623047" xlink:href="#DejaVuSans-48"/>
       <use x="127.246094" xlink:href="#DejaVuSans-48"/>
       <use x="190.869141" xlink:href="#DejaVuSans-57"/>
      </g>
     </g>
    </g>
    <g id="xtick_90">
     <g id="line2d_107">
      <g>
       <use style="stroke:#000000;stroke-width:0.6;" x="35.304688" xlink:href="#m30deebbfbd" y="674.6"/>
      </g>
     </g>
    </g>
    <g id="xtick_91">
     <g id="line2d_108">
      <g>
       <use style="stroke:#000000;stroke-width:0.6;" x="54.388675" xlink:href="#m30deebbfbd" y="674.6"/>
      </g>
     </g>
    </g>
    <g id="xtick_92">
     <g id="line2d_109">
      <g>
       <use style="stroke:#000000;stroke-width:0.6;" x="73.472663" xlink:href="#m30deebbfbd" y="674.6"/>
      </g>
     </g>
    </g>
    <g id="xtick_93">
     <g id="line2d_110">
      <g>
       <use style="stroke:#000000;stroke-width:0.6;" x="92.556651" xlink:href="#m30deebbfbd" y="674.6"/>
      </g>
     </g>
    </g>
    <g id="xtick_94">
     <g id="line2d_111">
      <g>
       <use style="stroke:#000000;stroke-width:0.6;" x="130.724627" xlink:href="#m30deebbfbd" y="674.6"/>
      </g>
     </g>
    </g>
    <g id="xtick_95">
     <g id="line2d_112">
      <g>
       <use style="stroke:#000000;stroke-width:0.6;" x="149.808615" xlink:href="#m30deebbfbd" y="674.6"/>
      </g>
     </g>
    </g>
    <g id="xtick_96">
     <g id="line2d_113">
      <g>
       <use style="stroke:#000000;stroke-width:0.6;" x="168.892603" xlink:href="#m30deebbfbd" y="674.6"/>
      </g>
     </g>
    </g>
    <g id="xtick_97">
     <g id="line2d_114">
      <g>
       <use style="stroke:#000000;stroke-width:0.6;" x="187.976591" xlink:href="#m30deebbfbd" y="674.6"/>
      </g>
     </g>
    </g>
    <g id="xtick_98">
     <g id="line2d_115">
      <g>
       <use style="stroke:#000000;stroke-width:0.6;" x="226.144567" xlink:href="#m30deebbfbd" y="674.6"/>
      </g>
     </g>
    </g>
    <g id="xtick_99">
     <g id="line2d_116">
      <g>
       <use style="stroke:#000000;stroke-width:0.6;" x="245.228555" xlink:href="#m30deebbfbd" y="674.6"/>
      </g>
     </g>
    </g>
    <g id="xtick_100">
     <g id="line2d_117">
      <g>
       <use style="stroke:#000000;stroke-width:0.6;" x="264.312542" xlink:href="#m30deebbfbd" y="674.6"/>
      </g>
     </g>
    </g>
    <g id="xtick_101">
     <g id="line2d_118">
      <g>
       <use style="stroke:#000000;stroke-width:0.6;" x="283.39653" xlink:href="#m30deebbfbd" y="674.6"/>
      </g>
     </g>
    </g>
    <g id="xtick_102">
     <g id="line2d_119">
      <g>
       <use style="stroke:#000000;stroke-width:0.6;" x="321.564506" xlink:href="#m30deebbfbd" y="674.6"/>
      </g>
     </g>
    </g>
    <g id="xtick_103">
     <g id="line2d_120">
      <g>
       <use style="stroke:#000000;stroke-width:0.6;" x="340.648494" xlink:href="#m30deebbfbd" y="674.6"/>
      </g>
     </g>
    </g>
    <g id="xtick_104">
     <g id="line2d_121">
      <g>
       <use style="stroke:#000000;stroke-width:0.6;" x="359.732482" xlink:href="#m30deebbfbd" y="674.6"/>
      </g>
     </g>
    </g>
    <g id="xtick_105">
     <g id="line2d_122">
      <g>
       <use style="stroke:#000000;stroke-width:0.6;" x="378.81647" xlink:href="#m30deebbfbd" y="674.6"/>
      </g>
     </g>
    </g>
    <g id="xtick_106">
     <g id="line2d_123">
      <g>
       <use style="stroke:#000000;stroke-width:0.6;" x="416.984446" xlink:href="#m30deebbfbd" y="674.6"/>
      </g>
     </g>
    </g>
    <g id="xtick_107">
     <g id="line2d_124">
      <g>
       <use style="stroke:#000000;stroke-width:0.6;" x="436.068434" xlink:href="#m30deebbfbd" y="674.6"/>
      </g>
     </g>
    </g>
    <g id="xtick_108">
     <g id="line2d_125">
      <g>
       <use style="stroke:#000000;stroke-width:0.6;" x="455.152422" xlink:href="#m30deebbfbd" y="674.6"/>
      </g>
     </g>
    </g>
    <g id="xtick_109">
     <g id="line2d_126">
      <g>
       <use style="stroke:#000000;stroke-width:0.6;" x="474.23641" xlink:href="#m30deebbfbd" y="674.6"/>
      </g>
     </g>
    </g>
    <g id="xtick_110">
     <g id="line2d_127">
      <g>
       <use style="stroke:#000000;stroke-width:0.6;" x="512.404385" xlink:href="#m30deebbfbd" y="674.6"/>
      </g>
     </g>
    </g>
    <g id="xtick_111">
     <g id="line2d_128">
      <g>
       <use style="stroke:#000000;stroke-width:0.6;" x="531.488373" xlink:href="#m30deebbfbd" y="674.6"/>
      </g>
     </g>
    </g>
    <g id="xtick_112">
     <g id="line2d_129">
      <g>
       <use style="stroke:#000000;stroke-width:0.6;" x="550.572361" xlink:href="#m30deebbfbd" y="674.6"/>
      </g>
     </g>
    </g>
    <g id="text_38">
     <!-- DATE -->
     <g transform="translate(285.496094 702.876562)scale(0.1 -0.1)">
      <use xlink:href="#DejaVuSans-68"/>
      <use x="75.251953" xlink:href="#DejaVuSans-65"/>
      <use x="135.910156" xlink:href="#DejaVuSans-84"/>
      <use x="196.994141" xlink:href="#DejaVuSans-69"/>
     </g>
    </g>
   </g>
   <g id="matplotlib.axis_8">
    <g id="ytick_15">
     <g id="line2d_130">
      <g>
       <use style="stroke:#000000;stroke-width:0.8;" x="35.304688" xlink:href="#m5cd781ec18" y="648.789983"/>
      </g>
     </g>
     <g id="text_39">
      <!-- 5 -->
      <g transform="translate(13.5625 652.589202)scale(0.1 -0.1)">
       <use xlink:href="#DejaVuSans-8722"/>
       <use x="83.789062" xlink:href="#DejaVuSans-53"/>
      </g>
     </g>
    </g>
    <g id="ytick_16">
     <g id="line2d_131">
      <g>
       <use style="stroke:#000000;stroke-width:0.8;" x="35.304688" xlink:href="#m5cd781ec18" y="606.653694"/>
      </g>
     </g>
     <g id="text_40">
      <!-- 0 -->
      <g transform="translate(21.942187 610.452912)scale(0.1 -0.1)">
       <use xlink:href="#DejaVuSans-48"/>
      </g>
     </g>
    </g>
    <g id="ytick_17">
     <g id="line2d_132">
      <g>
       <use style="stroke:#000000;stroke-width:0.8;" x="35.304688" xlink:href="#m5cd781ec18" y="564.517404"/>
      </g>
     </g>
     <g id="text_41">
      <!-- 5 -->
      <g transform="translate(21.942187 568.316623)scale(0.1 -0.1)">
       <use xlink:href="#DejaVuSans-53"/>
      </g>
     </g>
    </g>
   </g>
   <g id="line2d_133">
    <path clip-path="url(#pae021115ce)" d="M 44.846681 648.987013 
L 46.437014 647.153321 
L 48.027346 597.494038 
L 49.617678 582.942088 
L 51.208011 590.735038 
L 52.798343 603.936911 
L 54.388675 620.810012 
L 55.979008 608.100273 
L 57.56934 607.439688 
L 59.159672 579.954349 
L 60.750005 589.503126 
L 62.340337 618.660608 
L 63.930669 626.964903 
L 65.521002 642.815109 
L 67.111334 602.983765 
L 68.701666 584.203649 
L 70.291999 593.099059 
L 71.882331 624.148987 
L 73.472663 632.599535 
L 75.062996 608.209757 
L 76.653328 598.961691 
L 78.24366 575.205905 
L 79.833993 586.508711 
L 81.424325 609.501794 
L 83.014657 628.292617 
L 84.60499 626.592041 
L 87.785654 593.36608 
L 89.375987 599.735384 
L 90.966319 636.061899 
L 92.556651 614.148932 
L 94.146984 589.772918 
L 95.737316 592.609681 
L 97.327648 582.483263 
L 98.917981 598.245247 
L 100.508313 615.595158 
L 102.098645 624.334124 
L 103.688978 604.493734 
L 105.27931 604.192304 
L 106.869642 591.291745 
L 108.459975 599.346045 
L 110.050307 629.523681 
L 111.640639 650.016149 
L 113.230971 601.482347 
L 114.821304 580.098714 
L 116.411636 579.323463 
L 118.001968 591.957986 
L 119.592301 620.000156 
L 121.182633 636.80643 
L 122.772965 634.812059 
L 124.363298 612.212033 
L 125.95363 591.544388 
L 127.543962 588.085016 
L 129.134295 565.109338 
L 130.724627 619.502312 
L 132.314959 622.631429 
L 133.905292 608.361068 
L 135.495624 588.314329 
L 137.085956 599.334822 
L 140.266621 625.305119 
L 141.856953 626.007084 
L 143.447286 589.197157 
L 145.037618 586.314958 
L 146.62795 599.771235 
L 148.218283 627.85547 
L 149.808615 613.825676 
L 151.398947 628.028034 
L 152.98928 614.438526 
L 154.579612 595.667357 
L 156.169944 581.851492 
L 159.350609 610.302248 
L 160.940941 622.938052 
L 162.531274 600.253122 
L 164.121606 591.86515 
L 165.711938 582.42836 
L 167.302271 624.495452 
L 168.892603 627.289871 
L 170.482935 609.548813 
L 172.073268 605.880962 
L 173.6636 574.913303 
L 175.253932 594.509971 
L 176.844265 625.993586 
L 178.434597 633.353256 
L 180.024929 648.132955 
L 181.615262 615.580233 
L 183.205594 595.543086 
L 184.795926 580.512001 
L 186.386258 591.623283 
L 187.976591 619.24816 
L 189.566923 592.302465 
L 191.157255 588.032732 
L 192.747588 588.193538 
L 194.33792 615.62285 
L 195.928252 623.108093 
L 197.518585 617.413273 
L 199.108917 624.998376 
L 200.699249 617.592206 
L 202.289582 608.666925 
L 203.879914 591.195939 
L 205.470246 613.17905 
L 207.060579 585.181989 
L 208.650911 585.26725 
L 210.241243 602.466974 
L 211.831576 601.312567 
L 213.421908 613.935502 
L 215.01224 605.295047 
L 216.602573 618.050655 
L 218.192905 633.379144 
L 219.783237 615.375837 
L 221.37357 604.006617 
L 222.963902 594.802875 
L 224.554234 618.320063 
L 226.144567 608.835511 
L 227.734899 595.962353 
L 229.325231 601.541099 
L 230.915564 594.377214 
L 232.505896 599.780553 
L 234.096228 624.343213 
L 235.686561 621.763705 
L 237.276893 600.079045 
L 238.867225 625.973956 
L 240.457558 619.289414 
L 242.04789 593.53366 
L 243.638222 604.548133 
L 245.228555 590.971971 
L 246.818887 582.122618 
L 248.409219 581.658143 
L 249.999552 592.319559 
L 251.589884 596.079723 
L 253.180216 615.563134 
L 254.770549 639.056894 
L 256.360881 636.889167 
L 257.951213 625.395144 
L 259.541546 611.291279 
L 261.131878 578.084003 
L 262.72221 599.695472 
L 264.312542 586.419847 
L 265.902875 601.819051 
L 267.493207 610.420409 
L 269.083539 598.435747 
L 270.673872 617.527551 
L 272.264204 631.898636 
L 273.854536 615.721115 
L 275.444869 623.506225 
L 277.035201 602.226891 
L 278.625533 590.769958 
L 280.215866 576.14626 
L 281.806198 597.90008 
L 283.39653 633.288148 
L 284.986863 636.882554 
L 286.577195 601.708556 
L 288.167527 615.406594 
L 289.75786 603.70611 
L 291.348192 595.654404 
L 292.938524 593.647774 
L 294.528857 604.116158 
L 296.119189 586.15604 
L 297.709521 601.426225 
L 299.299854 613.884434 
L 300.890186 631.156006 
L 302.480518 598.678453 
L 304.070851 634.198297 
L 305.661183 589.027429 
L 307.251515 603.450281 
L 308.841848 611.802002 
L 310.43218 605.147254 
L 312.022512 582.628607 
L 313.612845 596.935046 
L 315.203177 603.468648 
L 316.793509 608.05321 
L 318.383842 618.969617 
L 319.974174 620.822818 
L 321.564506 610.196759 
L 323.154839 618.477668 
L 324.745171 623.292098 
L 326.335503 609.720231 
L 327.925836 585.635401 
L 329.516168 598.308639 
L 331.1065 619.510045 
L 332.696833 598.617337 
L 334.287165 601.435432 
L 335.877497 618.85857 
L 339.058162 579.689653 
L 340.648494 577.254291 
L 342.238826 618.867113 
L 343.829159 604.787384 
L 345.419491 615.454383 
L 347.009823 614.982203 
L 348.600156 607.066176 
L 350.190488 611.51335 
L 351.78082 583.4784 
L 353.371153 606.848435 
L 354.961485 604.864722 
L 356.551817 626.720412 
L 358.14215 646.158878 
L 359.732482 619.269545 
L 361.322814 628.778727 
L 362.913147 597.901226 
L 364.503479 592.229492 
L 366.093811 598.785189 
L 367.684144 599.788009 
L 369.274476 585.231752 
L 370.864808 601.34517 
L 372.455141 603.86487 
L 374.045473 607.775356 
L 375.635805 615.458295 
L 377.226138 614.451249 
L 378.81647 588.421637 
L 380.406802 583.711437 
L 381.997135 613.021588 
L 383.587467 620.939299 
L 385.177799 615.77728 
L 386.768132 632.786518 
L 388.358464 598.835278 
L 389.948796 586.069536 
L 391.539129 613.470434 
L 393.129461 618.065214 
L 394.719793 624.438627 
L 396.310126 603.776056 
L 397.900458 573.218232 
L 399.49079 576.241446 
L 401.081123 615.956907 
L 402.671455 618.061391 
L 404.261787 597.720791 
L 405.85212 607.622796 
L 407.442452 612.234793 
L 409.032784 627.339293 
L 410.623117 608.031376 
L 412.213449 613.656002 
L 413.803781 617.310115 
L 415.394113 584.983025 
L 416.984446 596.711777 
L 418.574778 622.267055 
L 420.16511 601.283787 
L 421.755443 637.228346 
L 423.345775 630.399029 
L 424.936107 591.381398 
L 426.52644 573.146854 
L 428.116772 565.255543 
L 429.707104 581.28031 
L 431.297437 610.021256 
L 432.887769 627.422965 
L 434.478101 581.716514 
L 436.068434 668.440909 
L 437.658766 635.881747 
L 439.249098 611.872777 
L 440.839431 630.916049 
L 442.429763 608.998358 
L 444.020095 582.678674 
L 445.610428 553.423208 
L 447.20076 559.039106 
L 448.791092 624.63476 
L 450.381425 621.196467 
L 451.971757 628.336304 
L 453.562089 641.636987 
L 455.152422 618.654952 
L 456.742754 561.139554 
L 458.333086 620.834358 
L 459.923419 622.571624 
L 463.104083 602.054099 
L 464.694416 606.449516 
L 466.284748 555.209163 
L 467.87508 589.242769 
L 469.465413 611.287522 
L 471.055745 625.399475 
L 472.646077 620.633416 
L 474.23641 608.534728 
L 475.826742 603.892332 
L 477.417074 616.141675 
L 479.007407 621.896636 
L 480.597739 617.503849 
L 482.188071 574.511468 
L 483.778404 576.557611 
L 485.368736 606.981215 
L 486.959068 616.64126 
L 488.5494 621.090178 
L 490.139733 617.12001 
L 491.730065 584.539435 
L 493.320397 571.155696 
L 494.91073 613.634523 
L 496.501062 617.52364 
L 498.091394 625.511684 
L 499.681727 627.29706 
L 501.272059 607.747028 
L 502.862391 610.503132 
L 504.452724 602.033537 
L 506.043056 624.812821 
L 507.633388 621.059419 
L 509.223721 643.012128 
L 510.814053 569.631159 
L 512.404385 558.860642 
L 513.994718 576.920086 
L 515.58505 634.817145 
L 517.175382 665.587087 
L 518.765715 626.802556 
L 520.356047 578.6969 
L 521.946379 566.662009 
L 523.536712 569.042753 
L 525.127044 604.846224 
L 526.717376 650.267873 
L 528.307709 640.601089 
L 529.898041 560.853433 
L 531.488373 571.31009 
L 533.078706 615.227942 
L 534.669038 635.137065 
L 536.25937 645.741632 
L 537.849703 638.987598 
L 541.030367 545.259091 
L 542.6207 554.695803 
L 544.211032 599.294346 
L 545.801364 623.237022 
L 547.391697 616.423251 
L 548.982029 605.507927 
L 550.572361 619.108549 
L 552.162694 630.586585 
L 552.162694 630.586585 
" style="fill:none;stroke:#1f77b4;stroke-linecap:square;stroke-width:1.5;"/>
   </g>
   <g id="patch_18">
    <path d="M 35.304688 674.6 
L 35.304688 539.1 
" style="fill:none;stroke:#000000;stroke-linecap:square;stroke-linejoin:miter;stroke-width:0.8;"/>
   </g>
   <g id="patch_19">
    <path d="M 561.704687 674.6 
L 561.704687 539.1 
" style="fill:none;stroke:#000000;stroke-linecap:square;stroke-linejoin:miter;stroke-width:0.8;"/>
   </g>
   <g id="patch_20">
    <path d="M 35.304688 674.6 
L 561.704688 674.6 
" style="fill:none;stroke:#000000;stroke-linecap:square;stroke-linejoin:miter;stroke-width:0.8;"/>
   </g>
   <g id="patch_21">
    <path d="M 35.304688 539.1 
L 561.704688 539.1 
" style="fill:none;stroke:#000000;stroke-linecap:square;stroke-linejoin:miter;stroke-width:0.8;"/>
   </g>
  </g>
 </g>
 <defs>
  <clipPath id="p17d2cfae71">
   <rect height="135.5" width="526.4" x="35.304688" y="7.2"/>
  </clipPath>
  <clipPath id="pe36eb47a3b">
   <rect height="135.5" width="526.4" x="35.304688" y="184.5"/>
  </clipPath>
  <clipPath id="p3da1159cfc">
   <rect height="135.5" width="526.4" x="35.304688" y="361.8"/>
  </clipPath>
  <clipPath id="pae021115ce">
   <rect height="135.5" width="526.4" x="35.304688" y="539.1"/>
  </clipPath>
 </defs>
</svg>
