<?xml version="1.0" encoding="utf-8" standalone="no"?>
<!DOCTYPE svg PUBLIC "-//W3C//DTD SVG 1.1//EN"
  "http://www.w3.org/Graphics/SVG/1.1/DTD/svg11.dtd">
<!-- Created with matplotlib (https://matplotlib.org/) -->
<svg height="265.574988pt" version="1.1" viewBox="0 0 386.845312 265.574988" width="386.845312pt" xmlns="http://www.w3.org/2000/svg" xmlns:xlink="http://www.w3.org/1999/xlink">
 <defs>
  <style type="text/css">
*{stroke-linecap:butt;stroke-linejoin:round;}
  </style>
 </defs>
 <g id="figure_1">
  <g id="patch_1">
   <path d="M 0 265.574988 
L 386.845312 265.574988 
L 386.845312 0 
L 0 0 
z
" style="fill:none;"/>
  </g>
  <g id="axes_1">
   <g id="patch_2">
    <path d="M 44.845313 228.018738 
L 379.645313 228.018738 
L 379.645313 10.578738 
L 44.845313 10.578738 
z
" style="fill:#ffffff;"/>
   </g>
   <g id="matplotlib.axis_1">
    <g id="xtick_1">
     <g id="line2d_1">
      <defs>
       <path d="M 0 0 
L 0 3.5 
" id="m3e90bfdc05" style="stroke:#000000;stroke-width:0.8;"/>
      </defs>
      <g>
       <use style="stroke:#000000;stroke-width:0.8;" x="77.020897" xlink:href="#m3e90bfdc05" y="228.018738"/>
      </g>
     </g>
     <g id="text_1">
      <!-- 1989 -->
      <defs>
       <path d="M 12.40625 8.296875 
L 28.515625 8.296875 
L 28.515625 63.921875 
L 10.984375 60.40625 
L 10.984375 69.390625 
L 28.421875 72.90625 
L 38.28125 72.90625 
L 38.28125 8.296875 
L 54.390625 8.296875 
L 54.390625 0 
L 12.40625 0 
z
" id="DejaVuSans-49"/>
       <path d="M 10.984375 1.515625 
L 10.984375 10.5 
Q 14.703125 8.734375 18.5 7.8125 
Q 22.3125 6.890625 25.984375 6.890625 
Q 35.75 6.890625 40.890625 13.453125 
Q 46.046875 20.015625 46.78125 33.40625 
Q 43.953125 29.203125 39.59375 26.953125 
Q 35.25 24.703125 29.984375 24.703125 
Q 19.046875 24.703125 12.671875 31.3125 
Q 6.296875 37.9375 6.296875 49.421875 
Q 6.296875 60.640625 12.9375 67.421875 
Q 19.578125 74.21875 30.609375 74.21875 
Q 43.265625 74.21875 49.921875 64.515625 
Q 56.59375 54.828125 56.59375 36.375 
Q 56.59375 19.140625 48.40625 8.859375 
Q 40.234375 -1.421875 26.421875 -1.421875 
Q 22.703125 -1.421875 18.890625 -0.6875 
Q 15.09375 0.046875 10.984375 1.515625 
z
M 30.609375 32.421875 
Q 37.25 32.421875 41.125 36.953125 
Q 45.015625 41.5 45.015625 49.421875 
Q 45.015625 57.28125 41.125 61.84375 
Q 37.25 66.40625 30.609375 66.40625 
Q 23.96875 66.40625 20.09375 61.84375 
Q 16.21875 57.28125 16.21875 49.421875 
Q 16.21875 41.5 20.09375 36.953125 
Q 23.96875 32.421875 30.609375 32.421875 
z
" id="DejaVuSans-57"/>
       <path d="M 31.78125 34.625 
Q 24.75 34.625 20.71875 30.859375 
Q 16.703125 27.09375 16.703125 20.515625 
Q 16.703125 13.921875 20.71875 10.15625 
Q 24.75 6.390625 31.78125 6.390625 
Q 38.8125 6.390625 42.859375 10.171875 
Q 46.921875 13.96875 46.921875 20.515625 
Q 46.921875 27.09375 42.890625 30.859375 
Q 38.875 34.625 31.78125 34.625 
z
M 21.921875 38.8125 
Q 15.578125 40.375 12.03125 44.71875 
Q 8.5 49.078125 8.5 55.328125 
Q 8.5 64.0625 14.71875 69.140625 
Q 20.953125 74.21875 31.78125 74.21875 
Q 42.671875 74.21875 48.875 69.140625 
Q 55.078125 64.0625 55.078125 55.328125 
Q 55.078125 49.078125 51.53125 44.71875 
Q 48 40.375 41.703125 38.8125 
Q 48.828125 37.15625 52.796875 32.3125 
Q 56.78125 27.484375 56.78125 20.515625 
Q 56.78125 9.90625 50.3125 4.234375 
Q 43.84375 -1.421875 31.78125 -1.421875 
Q 19.734375 -1.421875 13.25 4.234375 
Q 6.78125 9.90625 6.78125 20.515625 
Q 6.78125 27.484375 10.78125 32.3125 
Q 14.796875 37.15625 21.921875 38.8125 
z
M 18.3125 54.390625 
Q 18.3125 48.734375 21.84375 45.5625 
Q 25.390625 42.390625 31.78125 42.390625 
Q 38.140625 42.390625 41.71875 45.5625 
Q 45.3125 48.734375 45.3125 54.390625 
Q 45.3125 60.0625 41.71875 63.234375 
Q 38.140625 66.40625 31.78125 66.40625 
Q 25.390625 66.40625 21.84375 63.234375 
Q 18.3125 60.0625 18.3125 54.390625 
z
" id="DejaVuSans-56"/>
      </defs>
      <g transform="translate(64.295897 242.617175)scale(0.1 -0.1)">
       <use xlink:href="#DejaVuSans-49"/>
       <use x="63.623047" xlink:href="#DejaVuSans-57"/>
       <use x="127.246094" xlink:href="#DejaVuSans-56"/>
       <use x="190.869141" xlink:href="#DejaVuSans-57"/>
      </g>
     </g>
    </g>
    <g id="xtick_2">
     <g id="line2d_2">
      <g>
       <use style="stroke:#000000;stroke-width:0.8;" x="129.19752" xlink:href="#m3e90bfdc05" y="228.018738"/>
      </g>
     </g>
     <g id="text_2">
      <!-- 1994 -->
      <defs>
       <path d="M 37.796875 64.3125 
L 12.890625 25.390625 
L 37.796875 25.390625 
z
M 35.203125 72.90625 
L 47.609375 72.90625 
L 47.609375 25.390625 
L 58.015625 25.390625 
L 58.015625 17.1875 
L 47.609375 17.1875 
L 47.609375 0 
L 37.796875 0 
L 37.796875 17.1875 
L 4.890625 17.1875 
L 4.890625 26.703125 
z
" id="DejaVuSans-52"/>
      </defs>
      <g transform="translate(116.47252 242.617175)scale(0.1 -0.1)">
       <use xlink:href="#DejaVuSans-49"/>
       <use x="63.623047" xlink:href="#DejaVuSans-57"/>
       <use x="127.246094" xlink:href="#DejaVuSans-57"/>
       <use x="190.869141" xlink:href="#DejaVuSans-52"/>
      </g>
     </g>
    </g>
    <g id="xtick_3">
     <g id="line2d_3">
      <g>
       <use style="stroke:#000000;stroke-width:0.8;" x="181.374144" xlink:href="#m3e90bfdc05" y="228.018738"/>
      </g>
     </g>
     <g id="text_3">
      <!-- 1999 -->
      <g transform="translate(168.649144 242.617175)scale(0.1 -0.1)">
       <use xlink:href="#DejaVuSans-49"/>
       <use x="63.623047" xlink:href="#DejaVuSans-57"/>
       <use x="127.246094" xlink:href="#DejaVuSans-57"/>
       <use x="190.869141" xlink:href="#DejaVuSans-57"/>
      </g>
     </g>
    </g>
    <g id="xtick_4">
     <g id="line2d_4">
      <g>
       <use style="stroke:#000000;stroke-width:0.8;" x="233.550767" xlink:href="#m3e90bfdc05" y="228.018738"/>
      </g>
     </g>
     <g id="text_4">
      <!-- 2004 -->
      <defs>
       <path d="M 19.1875 8.296875 
L 53.609375 8.296875 
L 53.609375 0 
L 7.328125 0 
L 7.328125 8.296875 
Q 12.9375 14.109375 22.625 23.890625 
Q 32.328125 33.6875 34.8125 36.53125 
Q 39.546875 41.84375 41.421875 45.53125 
Q 43.3125 49.21875 43.3125 52.78125 
Q 43.3125 58.59375 39.234375 62.25 
Q 35.15625 65.921875 28.609375 65.921875 
Q 23.96875 65.921875 18.8125 64.3125 
Q 13.671875 62.703125 7.8125 59.421875 
L 7.8125 69.390625 
Q 13.765625 71.78125 18.9375 73 
Q 24.125 74.21875 28.421875 74.21875 
Q 39.75 74.21875 46.484375 68.546875 
Q 53.21875 62.890625 53.21875 53.421875 
Q 53.21875 48.921875 51.53125 44.890625 
Q 49.859375 40.875 45.40625 35.40625 
Q 44.1875 33.984375 37.640625 27.21875 
Q 31.109375 20.453125 19.1875 8.296875 
z
" id="DejaVuSans-50"/>
       <path d="M 31.78125 66.40625 
Q 24.171875 66.40625 20.328125 58.90625 
Q 16.5 51.421875 16.5 36.375 
Q 16.5 21.390625 20.328125 13.890625 
Q 24.171875 6.390625 31.78125 6.390625 
Q 39.453125 6.390625 43.28125 13.890625 
Q 47.125 21.390625 47.125 36.375 
Q 47.125 51.421875 43.28125 58.90625 
Q 39.453125 66.40625 31.78125 66.40625 
z
M 31.78125 74.21875 
Q 44.046875 74.21875 50.515625 64.515625 
Q 56.984375 54.828125 56.984375 36.375 
Q 56.984375 17.96875 50.515625 8.265625 
Q 44.046875 -1.421875 31.78125 -1.421875 
Q 19.53125 -1.421875 13.0625 8.265625 
Q 6.59375 17.96875 6.59375 36.375 
Q 6.59375 54.828125 13.0625 64.515625 
Q 19.53125 74.21875 31.78125 74.21875 
z
" id="DejaVuSans-48"/>
      </defs>
      <g transform="translate(220.825767 242.617175)scale(0.1 -0.1)">
       <use xlink:href="#DejaVuSans-50"/>
       <use x="63.623047" xlink:href="#DejaVuSans-48"/>
       <use x="127.246094" xlink:href="#DejaVuSans-48"/>
       <use x="190.869141" xlink:href="#DejaVuSans-52"/>
      </g>
     </g>
    </g>
    <g id="xtick_5">
     <g id="line2d_5">
      <g>
       <use style="stroke:#000000;stroke-width:0.8;" x="285.72739" xlink:href="#m3e90bfdc05" y="228.018738"/>
      </g>
     </g>
     <g id="text_5">
      <!-- 2009 -->
      <g transform="translate(273.00239 242.617175)scale(0.1 -0.1)">
       <use xlink:href="#DejaVuSans-50"/>
       <use x="63.623047" xlink:href="#DejaVuSans-48"/>
       <use x="127.246094" xlink:href="#DejaVuSans-48"/>
       <use x="190.869141" xlink:href="#DejaVuSans-57"/>
      </g>
     </g>
    </g>
    <g id="xtick_6">
     <g id="line2d_6">
      <g>
       <use style="stroke:#000000;stroke-width:0.8;" x="337.904014" xlink:href="#m3e90bfdc05" y="228.018738"/>
      </g>
     </g>
     <g id="text_6">
      <!-- 2014 -->
      <g transform="translate(325.179014 242.617175)scale(0.1 -0.1)">
       <use xlink:href="#DejaVuSans-50"/>
       <use x="63.623047" xlink:href="#DejaVuSans-48"/>
       <use x="127.246094" xlink:href="#DejaVuSans-49"/>
       <use x="190.869141" xlink:href="#DejaVuSans-52"/>
      </g>
     </g>
    </g>
    <g id="xtick_7">
     <g id="line2d_7">
      <defs>
       <path d="M 0 0 
L 0 2 
" id="m99aa305874" style="stroke:#000000;stroke-width:0.6;"/>
      </defs>
      <g>
       <use style="stroke:#000000;stroke-width:0.6;" x="45.714923" xlink:href="#m99aa305874" y="228.018738"/>
      </g>
     </g>
    </g>
    <g id="xtick_8">
     <g id="line2d_8">
      <g>
       <use style="stroke:#000000;stroke-width:0.6;" x="56.150248" xlink:href="#m99aa305874" y="228.018738"/>
      </g>
     </g>
    </g>
    <g id="xtick_9">
     <g id="line2d_9">
      <g>
       <use style="stroke:#000000;stroke-width:0.6;" x="66.585572" xlink:href="#m99aa305874" y="228.018738"/>
      </g>
     </g>
    </g>
    <g id="xtick_10">
     <g id="line2d_10">
      <g>
       <use style="stroke:#000000;stroke-width:0.6;" x="87.456222" xlink:href="#m99aa305874" y="228.018738"/>
      </g>
     </g>
    </g>
    <g id="xtick_11">
     <g id="line2d_11">
      <g>
       <use style="stroke:#000000;stroke-width:0.6;" x="97.891546" xlink:href="#m99aa305874" y="228.018738"/>
      </g>
     </g>
    </g>
    <g id="xtick_12">
     <g id="line2d_12">
      <g>
       <use style="stroke:#000000;stroke-width:0.6;" x="108.326871" xlink:href="#m99aa305874" y="228.018738"/>
      </g>
     </g>
    </g>
    <g id="xtick_13">
     <g id="line2d_13">
      <g>
       <use style="stroke:#000000;stroke-width:0.6;" x="118.762196" xlink:href="#m99aa305874" y="228.018738"/>
      </g>
     </g>
    </g>
    <g id="xtick_14">
     <g id="line2d_14">
      <g>
       <use style="stroke:#000000;stroke-width:0.6;" x="139.632845" xlink:href="#m99aa305874" y="228.018738"/>
      </g>
     </g>
    </g>
    <g id="xtick_15">
     <g id="line2d_15">
      <g>
       <use style="stroke:#000000;stroke-width:0.6;" x="150.06817" xlink:href="#m99aa305874" y="228.018738"/>
      </g>
     </g>
    </g>
    <g id="xtick_16">
     <g id="line2d_16">
      <g>
       <use style="stroke:#000000;stroke-width:0.6;" x="160.503494" xlink:href="#m99aa305874" y="228.018738"/>
      </g>
     </g>
    </g>
    <g id="xtick_17">
     <g id="line2d_17">
      <g>
       <use style="stroke:#000000;stroke-width:0.6;" x="170.938819" xlink:href="#m99aa305874" y="228.018738"/>
      </g>
     </g>
    </g>
    <g id="xtick_18">
     <g id="line2d_18">
      <g>
       <use style="stroke:#000000;stroke-width:0.6;" x="191.809468" xlink:href="#m99aa305874" y="228.018738"/>
      </g>
     </g>
    </g>
    <g id="xtick_19">
     <g id="line2d_19">
      <g>
       <use style="stroke:#000000;stroke-width:0.6;" x="202.244793" xlink:href="#m99aa305874" y="228.018738"/>
      </g>
     </g>
    </g>
    <g id="xtick_20">
     <g id="line2d_20">
      <g>
       <use style="stroke:#000000;stroke-width:0.6;" x="212.680118" xlink:href="#m99aa305874" y="228.018738"/>
      </g>
     </g>
    </g>
    <g id="xtick_21">
     <g id="line2d_21">
      <g>
       <use style="stroke:#000000;stroke-width:0.6;" x="223.115442" xlink:href="#m99aa305874" y="228.018738"/>
      </g>
     </g>
    </g>
    <g id="xtick_22">
     <g id="line2d_22">
      <g>
       <use style="stroke:#000000;stroke-width:0.6;" x="243.986092" xlink:href="#m99aa305874" y="228.018738"/>
      </g>
     </g>
    </g>
    <g id="xtick_23">
     <g id="line2d_23">
      <g>
       <use style="stroke:#000000;stroke-width:0.6;" x="254.421416" xlink:href="#m99aa305874" y="228.018738"/>
      </g>
     </g>
    </g>
    <g id="xtick_24">
     <g id="line2d_24">
      <g>
       <use style="stroke:#000000;stroke-width:0.6;" x="264.856741" xlink:href="#m99aa305874" y="228.018738"/>
      </g>
     </g>
    </g>
    <g id="xtick_25">
     <g id="line2d_25">
      <g>
       <use style="stroke:#000000;stroke-width:0.6;" x="275.292066" xlink:href="#m99aa305874" y="228.018738"/>
      </g>
     </g>
    </g>
    <g id="xtick_26">
     <g id="line2d_26">
      <g>
       <use style="stroke:#000000;stroke-width:0.6;" x="296.162715" xlink:href="#m99aa305874" y="228.018738"/>
      </g>
     </g>
    </g>
    <g id="xtick_27">
     <g id="line2d_27">
      <g>
       <use style="stroke:#000000;stroke-width:0.6;" x="306.59804" xlink:href="#m99aa305874" y="228.018738"/>
      </g>
     </g>
    </g>
    <g id="xtick_28">
     <g id="line2d_28">
      <g>
       <use style="stroke:#000000;stroke-width:0.6;" x="317.033364" xlink:href="#m99aa305874" y="228.018738"/>
      </g>
     </g>
    </g>
    <g id="xtick_29">
     <g id="line2d_29">
      <g>
       <use style="stroke:#000000;stroke-width:0.6;" x="327.468689" xlink:href="#m99aa305874" y="228.018738"/>
      </g>
     </g>
    </g>
    <g id="xtick_30">
     <g id="line2d_30">
      <g>
       <use style="stroke:#000000;stroke-width:0.6;" x="348.339338" xlink:href="#m99aa305874" y="228.018738"/>
      </g>
     </g>
    </g>
    <g id="xtick_31">
     <g id="line2d_31">
      <g>
       <use style="stroke:#000000;stroke-width:0.6;" x="358.774663" xlink:href="#m99aa305874" y="228.018738"/>
      </g>
     </g>
    </g>
    <g id="xtick_32">
     <g id="line2d_32">
      <g>
       <use style="stroke:#000000;stroke-width:0.6;" x="369.209988" xlink:href="#m99aa305874" y="228.018738"/>
      </g>
     </g>
    </g>
    <g id="xtick_33">
     <g id="line2d_33">
      <g>
       <use style="stroke:#000000;stroke-width:0.6;" x="379.645313" xlink:href="#m99aa305874" y="228.018738"/>
      </g>
     </g>
    </g>
    <g id="text_7">
     <!-- DATE -->
     <defs>
      <path d="M 19.671875 64.796875 
L 19.671875 8.109375 
L 31.59375 8.109375 
Q 46.6875 8.109375 53.6875 14.9375 
Q 60.6875 21.78125 60.6875 36.53125 
Q 60.6875 51.171875 53.6875 57.984375 
Q 46.6875 64.796875 31.59375 64.796875 
z
M 9.8125 72.90625 
L 30.078125 72.90625 
Q 51.265625 72.90625 61.171875 64.09375 
Q 71.09375 55.28125 71.09375 36.53125 
Q 71.09375 17.671875 61.125 8.828125 
Q 51.171875 0 30.078125 0 
L 9.8125 0 
z
" id="DejaVuSans-68"/>
      <path d="M 34.1875 63.1875 
L 20.796875 26.90625 
L 47.609375 26.90625 
z
M 28.609375 72.90625 
L 39.796875 72.90625 
L 67.578125 0 
L 57.328125 0 
L 50.6875 18.703125 
L 17.828125 18.703125 
L 11.1875 0 
L 0.78125 0 
z
" id="DejaVuSans-65"/>
      <path d="M -0.296875 72.90625 
L 61.375 72.90625 
L 61.375 64.59375 
L 35.5 64.59375 
L 35.5 0 
L 25.59375 0 
L 25.59375 64.59375 
L -0.296875 64.59375 
z
" id="DejaVuSans-84"/>
      <path d="M 9.8125 72.90625 
L 55.90625 72.90625 
L 55.90625 64.59375 
L 19.671875 64.59375 
L 19.671875 43.015625 
L 54.390625 43.015625 
L 54.390625 34.71875 
L 19.671875 34.71875 
L 19.671875 8.296875 
L 56.78125 8.296875 
L 56.78125 0 
L 9.8125 0 
z
" id="DejaVuSans-69"/>
     </defs>
     <g transform="translate(199.236719 256.2953)scale(0.1 -0.1)">
      <use xlink:href="#DejaVuSans-68"/>
      <use x="75.251953" xlink:href="#DejaVuSans-65"/>
      <use x="135.910156" xlink:href="#DejaVuSans-84"/>
      <use x="196.994141" xlink:href="#DejaVuSans-69"/>
     </g>
    </g>
   </g>
   <g id="matplotlib.axis_2">
    <g id="ytick_1">
     <g id="line2d_34">
      <defs>
       <path d="M 0 0 
L -3.5 0 
" id="m4063a28fc4" style="stroke:#000000;stroke-width:0.8;"/>
      </defs>
      <g>
       <use style="stroke:#000000;stroke-width:0.8;" x="44.845313" xlink:href="#m4063a28fc4" y="221.963566"/>
      </g>
     </g>
     <g id="text_8">
      <!-- −0.15 -->
      <defs>
       <path d="M 10.59375 35.5 
L 73.1875 35.5 
L 73.1875 27.203125 
L 10.59375 27.203125 
z
" id="DejaVuSans-8722"/>
       <path d="M 10.6875 12.40625 
L 21 12.40625 
L 21 0 
L 10.6875 0 
z
" id="DejaVuSans-46"/>
       <path d="M 10.796875 72.90625 
L 49.515625 72.90625 
L 49.515625 64.59375 
L 19.828125 64.59375 
L 19.828125 46.734375 
Q 21.96875 47.46875 24.109375 47.828125 
Q 26.265625 48.1875 28.421875 48.1875 
Q 40.625 48.1875 47.75 41.5 
Q 54.890625 34.8125 54.890625 23.390625 
Q 54.890625 11.625 47.5625 5.09375 
Q 40.234375 -1.421875 26.90625 -1.421875 
Q 22.3125 -1.421875 17.546875 -0.640625 
Q 12.796875 0.140625 7.71875 1.703125 
L 7.71875 11.625 
Q 12.109375 9.234375 16.796875 8.0625 
Q 21.484375 6.890625 26.703125 6.890625 
Q 35.15625 6.890625 40.078125 11.328125 
Q 45.015625 15.765625 45.015625 23.390625 
Q 45.015625 31 40.078125 35.4375 
Q 35.15625 39.890625 26.703125 39.890625 
Q 22.75 39.890625 18.8125 39.015625 
Q 14.890625 38.140625 10.796875 36.28125 
z
" id="DejaVuSans-53"/>
      </defs>
      <g transform="translate(7.2 225.762785)scale(0.1 -0.1)">
       <use xlink:href="#DejaVuSans-8722"/>
       <use x="83.789062" xlink:href="#DejaVuSans-48"/>
       <use x="147.412109" xlink:href="#DejaVuSans-46"/>
       <use x="179.199219" xlink:href="#DejaVuSans-49"/>
       <use x="242.822266" xlink:href="#DejaVuSans-53"/>
      </g>
     </g>
    </g>
    <g id="ytick_2">
     <g id="line2d_35">
      <g>
       <use style="stroke:#000000;stroke-width:0.8;" x="44.845313" xlink:href="#m4063a28fc4" y="195.593023"/>
      </g>
     </g>
     <g id="text_9">
      <!-- −0.10 -->
      <g transform="translate(7.2 199.392241)scale(0.1 -0.1)">
       <use xlink:href="#DejaVuSans-8722"/>
       <use x="83.789062" xlink:href="#DejaVuSans-48"/>
       <use x="147.412109" xlink:href="#DejaVuSans-46"/>
       <use x="179.199219" xlink:href="#DejaVuSans-49"/>
       <use x="242.822266" xlink:href="#DejaVuSans-48"/>
      </g>
     </g>
    </g>
    <g id="ytick_3">
     <g id="line2d_36">
      <g>
       <use style="stroke:#000000;stroke-width:0.8;" x="44.845313" xlink:href="#m4063a28fc4" y="169.222479"/>
      </g>
     </g>
     <g id="text_10">
      <!-- −0.05 -->
      <g transform="translate(7.2 173.021698)scale(0.1 -0.1)">
       <use xlink:href="#DejaVuSans-8722"/>
       <use x="83.789062" xlink:href="#DejaVuSans-48"/>
       <use x="147.412109" xlink:href="#DejaVuSans-46"/>
       <use x="179.199219" xlink:href="#DejaVuSans-48"/>
       <use x="242.822266" xlink:href="#DejaVuSans-53"/>
      </g>
     </g>
    </g>
    <g id="ytick_4">
     <g id="line2d_37">
      <g>
       <use style="stroke:#000000;stroke-width:0.8;" x="44.845313" xlink:href="#m4063a28fc4" y="142.851936"/>
      </g>
     </g>
     <g id="text_11">
      <!-- 0.00 -->
      <g transform="translate(15.579688 146.651155)scale(0.1 -0.1)">
       <use xlink:href="#DejaVuSans-48"/>
       <use x="63.623047" xlink:href="#DejaVuSans-46"/>
       <use x="95.410156" xlink:href="#DejaVuSans-48"/>
       <use x="159.033203" xlink:href="#DejaVuSans-48"/>
      </g>
     </g>
    </g>
    <g id="ytick_5">
     <g id="line2d_38">
      <g>
       <use style="stroke:#000000;stroke-width:0.8;" x="44.845313" xlink:href="#m4063a28fc4" y="116.481392"/>
      </g>
     </g>
     <g id="text_12">
      <!-- 0.05 -->
      <g transform="translate(15.579688 120.280611)scale(0.1 -0.1)">
       <use xlink:href="#DejaVuSans-48"/>
       <use x="63.623047" xlink:href="#DejaVuSans-46"/>
       <use x="95.410156" xlink:href="#DejaVuSans-48"/>
       <use x="159.033203" xlink:href="#DejaVuSans-53"/>
      </g>
     </g>
    </g>
    <g id="ytick_6">
     <g id="line2d_39">
      <g>
       <use style="stroke:#000000;stroke-width:0.8;" x="44.845313" xlink:href="#m4063a28fc4" y="90.110849"/>
      </g>
     </g>
     <g id="text_13">
      <!-- 0.10 -->
      <g transform="translate(15.579688 93.910068)scale(0.1 -0.1)">
       <use xlink:href="#DejaVuSans-48"/>
       <use x="63.623047" xlink:href="#DejaVuSans-46"/>
       <use x="95.410156" xlink:href="#DejaVuSans-49"/>
       <use x="159.033203" xlink:href="#DejaVuSans-48"/>
      </g>
     </g>
    </g>
    <g id="ytick_7">
     <g id="line2d_40">
      <g>
       <use style="stroke:#000000;stroke-width:0.8;" x="44.845313" xlink:href="#m4063a28fc4" y="63.740306"/>
      </g>
     </g>
     <g id="text_14">
      <!-- 0.15 -->
      <g transform="translate(15.579688 67.539524)scale(0.1 -0.1)">
       <use xlink:href="#DejaVuSans-48"/>
       <use x="63.623047" xlink:href="#DejaVuSans-46"/>
       <use x="95.410156" xlink:href="#DejaVuSans-49"/>
       <use x="159.033203" xlink:href="#DejaVuSans-53"/>
      </g>
     </g>
    </g>
    <g id="ytick_8">
     <g id="line2d_41">
      <g>
       <use style="stroke:#000000;stroke-width:0.8;" x="44.845313" xlink:href="#m4063a28fc4" y="37.369762"/>
      </g>
     </g>
     <g id="text_15">
      <!-- 0.20 -->
      <g transform="translate(15.579688 41.168981)scale(0.1 -0.1)">
       <use xlink:href="#DejaVuSans-48"/>
       <use x="63.623047" xlink:href="#DejaVuSans-46"/>
       <use x="95.410156" xlink:href="#DejaVuSans-50"/>
       <use x="159.033203" xlink:href="#DejaVuSans-48"/>
      </g>
     </g>
    </g>
    <g id="ytick_9">
     <g id="line2d_42">
      <g>
       <use style="stroke:#000000;stroke-width:0.8;" x="44.845313" xlink:href="#m4063a28fc4" y="10.999219"/>
      </g>
     </g>
     <g id="text_16">
      <!-- 0.25 -->
      <g transform="translate(15.579688 14.798438)scale(0.1 -0.1)">
       <use xlink:href="#DejaVuSans-48"/>
       <use x="63.623047" xlink:href="#DejaVuSans-46"/>
       <use x="95.410156" xlink:href="#DejaVuSans-50"/>
       <use x="159.033203" xlink:href="#DejaVuSans-53"/>
      </g>
     </g>
    </g>
   </g>
   <g id="line2d_43">
    <path clip-path="url(#p164dbf2a0f)" d="M 44.845313 88.021776 
L 45.714923 54.392413 
L 46.584533 92.416343 
L 48.323754 184.57799 
L 49.193364 196.369168 
L 50.062975 160.448028 
L 50.932585 113.33622 
L 51.802196 124.583001 
L 53.541416 185.966574 
L 54.411027 170.638738 
L 55.280637 97.386686 
L 56.150248 55.462491 
L 57.019858 84.306364 
L 57.889468 121.262359 
L 58.759079 169.356986 
L 59.628689 183.092102 
L 61.36791 105.244138 
L 62.23752 99.803371 
L 63.107131 148.810607 
L 63.976741 182.599066 
L 64.846351 166.944504 
L 66.585572 42.315128 
L 67.455183 71.056833 
L 68.324793 116.383053 
L 69.194403 174.355145 
L 70.064014 191.710414 
L 71.803235 105.339546 
L 72.672845 89.032189 
L 73.542455 152.108608 
L 74.412066 188.314247 
L 75.281676 175.144603 
L 76.151287 110.601418 
L 77.020897 81.322056 
L 77.890507 90.058447 
L 78.760118 115.345753 
L 79.629728 179.506867 
L 80.499338 192.731996 
L 82.238559 114.889777 
L 83.10817 107.289795 
L 83.97778 150.402788 
L 84.84739 178.950576 
L 85.717001 156.551859 
L 86.586611 57.87587 
L 87.456222 60.334664 
L 88.325832 107.578944 
L 89.195442 135.384536 
L 90.065053 181.292284 
L 90.934663 194.281548 
L 91.804274 152.775969 
L 92.673884 117.593758 
L 93.543494 115.413561 
L 94.413105 146.147792 
L 95.282715 189.428433 
L 96.152325 180.342153 
L 97.021936 110.960649 
L 97.891546 58.049395 
L 98.761157 112.896678 
L 99.630767 142.306038 
L 100.500377 188.907661 
L 101.369988 177.935976 
L 102.239598 135.676027 
L 103.109209 101.885438 
L 103.978819 109.216234 
L 105.71804 184.711012 
L 106.58765 159.070471 
L 107.457261 111.659641 
L 108.326871 74.162446 
L 109.196481 108.276055 
L 110.935702 184.766179 
L 111.805313 202.718683 
L 112.674923 169.807303 
L 113.544533 123.651622 
L 114.414144 128.817437 
L 115.283754 157.726806 
L 116.153364 182.717441 
L 117.022975 150.212041 
L 117.892585 79.246011 
L 118.762196 59.611771 
L 119.631806 82.689722 
L 120.501416 118.201544 
L 121.371027 178.125829 
L 122.240637 204.166369 
L 123.979858 106.655981 
L 124.849468 110.003004 
L 125.719079 161.59726 
L 126.588689 198.008797 
L 127.4583 163.794158 
L 128.32791 98.412204 
L 129.19752 42.735572 
L 130.067131 84.687318 
L 130.936741 134.770824 
L 131.806351 192.853696 
L 132.675962 205.902646 
L 133.545572 146.394025 
L 134.415183 112.376584 
L 135.284793 121.15984 
L 136.154403 163.348277 
L 137.024014 196.048776 
L 137.893624 167.869204 
L 138.763235 105.038363 
L 139.632845 58.763777 
L 140.502455 88.51036 
L 141.372066 128.01458 
L 142.241676 180.447406 
L 143.111287 186.77477 
L 143.980897 151.905842 
L 144.850507 103.955885 
L 145.720118 86.474105 
L 146.589728 157.498757 
L 147.459338 192.232364 
L 148.328949 153.805729 
L 149.198559 87.597685 
L 150.06817 45.281111 
L 151.80739 119.315586 
L 152.677001 183.790842 
L 153.546611 189.485548 
L 154.416222 156.562762 
L 155.285832 131.226322 
L 156.155442 126.091771 
L 157.025053 173.372816 
L 157.894663 204.829362 
L 158.764274 162.343272 
L 159.633884 104.254518 
L 160.503494 59.474125 
L 161.373105 106.66166 
L 162.242715 145.962963 
L 163.112325 190.872375 
L 163.981936 205.395679 
L 164.851546 163.564277 
L 165.721157 110.296023 
L 166.590767 114.919285 
L 167.460377 152.754023 
L 168.329988 183.73359 
L 169.199598 154.219289 
L 170.069209 94.017617 
L 170.938819 77.159405 
L 171.808429 116.481473 
L 172.67804 125.971007 
L 173.54765 189.712344 
L 174.417261 183.423096 
L 175.286871 132.873161 
L 176.156481 92.27022 
L 177.026092 96.785651 
L 177.895702 134.597272 
L 178.765313 182.944958 
L 179.634923 173.849889 
L 180.504533 111.128546 
L 181.374144 57.476535 
L 182.243754 118.950301 
L 183.113364 123.603778 
L 183.982975 188.73522 
L 184.852585 196.940672 
L 186.591806 90.988953 
L 187.461416 98.169746 
L 188.331027 150.846715 
L 189.200637 192.539324 
L 190.070248 182.836054 
L 190.939858 110.579278 
L 191.809468 69.214955 
L 192.679079 113.283724 
L 193.548689 147.889375 
L 194.4183 189.789113 
L 195.28791 173.350489 
L 196.15752 135.321579 
L 197.027131 106.690925 
L 197.896741 89.795081 
L 199.635962 187.006636 
L 200.505572 159.819141 
L 201.375183 83.395796 
L 202.244793 53.079393 
L 203.114403 115.503981 
L 203.984014 141.922759 
L 204.853624 202.273748 
L 205.723235 203.618256 
L 206.592845 155.399556 
L 207.462455 123.303284 
L 208.332066 104.621267 
L 209.201676 166.706335 
L 210.071287 200.997272 
L 210.940897 196.803623 
L 211.810507 131.919166 
L 212.680118 75.760089 
L 213.549728 116.331088 
L 214.419338 127.458045 
L 215.288949 172.936039 
L 216.158559 177.797908 
L 217.89778 85.205696 
L 218.76739 90.061188 
L 219.637001 137.545184 
L 220.506611 177.25799 
L 221.376222 170.083904 
L 222.245832 105.415356 
L 223.115442 61.450012 
L 223.985053 96.518471 
L 225.724274 201.958392 
L 226.593884 199.582257 
L 227.463494 165.038585 
L 228.333105 104.084209 
L 229.202715 93.821077 
L 230.072325 155.454252 
L 230.941936 192.947929 
L 231.811546 180.482422 
L 232.681157 99.305788 
L 233.550767 51.237353 
L 234.420377 88.506154 
L 236.159598 196.40005 
L 237.029209 184.349969 
L 238.768429 115.589173 
L 239.63804 122.071977 
L 241.377261 194.445058 
L 242.246871 182.523338 
L 243.116481 96.239655 
L 243.986092 68.799646 
L 244.855702 113.452212 
L 245.725313 129.894754 
L 246.594923 200.862374 
L 247.464533 195.432254 
L 248.334144 127.744523 
L 249.203754 85.587039 
L 250.073364 83.979975 
L 251.812585 192.198106 
L 252.682196 188.501341 
L 253.551806 94.950061 
L 256.160637 142.051807 
L 257.030248 204.445204 
L 257.899858 190.901683 
L 259.639079 82.148182 
L 260.508689 80.259401 
L 261.3783 159.081491 
L 262.24791 189.932418 
L 263.11752 179.398728 
L 263.987131 119.388251 
L 264.856741 78.354302 
L 265.726351 83.6351 
L 266.595962 147.279354 
L 267.465572 195.4323 
L 268.335183 189.257352 
L 269.204793 140.732041 
L 270.074403 105.971143 
L 270.944014 75.872409 
L 271.813624 140.011387 
L 272.683235 187.526177 
L 273.552845 183.14884 
L 274.422455 117.105155 
L 275.292066 79.698543 
L 276.161676 109.466741 
L 277.031287 149.445178 
L 277.900897 201.611709 
L 278.770507 199.825049 
L 279.640118 132.253604 
L 280.509728 100.098939 
L 281.379338 112.950868 
L 282.248949 161.910582 
L 283.118559 198.530163 
L 283.98817 182.452515 
L 284.85778 102.323416 
L 285.72739 68.525407 
L 286.597001 126.182 
L 287.466611 159.295162 
L 288.336222 212.715121 
L 289.205832 214.862249 
L 290.075442 156.488387 
L 290.945053 118.690756 
L 291.814663 108.68403 
L 292.684274 164.575393 
L 293.553884 195.739953 
L 294.423494 193.246315 
L 295.293105 80.87051 
L 296.162715 43.405375 
L 297.032325 84.907218 
L 298.771546 214.663146 
L 299.641157 189.269949 
L 300.510767 119.207578 
L 301.380377 81.739853 
L 302.249988 84.173415 
L 303.989209 212.25537 
L 304.858819 191.551314 
L 305.728429 82.807617 
L 306.59804 59.692639 
L 307.46765 114.791487 
L 308.337261 157.447473 
L 309.206871 213.566948 
L 310.076481 209.01167 
L 310.946092 138.532459 
L 311.815702 81.570243 
L 312.685313 86.972906 
L 313.554923 156.715533 
L 314.424533 208.103754 
L 315.294144 188.812125 
L 316.163754 115.019482 
L 317.033364 89.871054 
L 317.902975 130.333298 
L 318.772585 180.293238 
L 319.642196 214.471536 
L 320.511806 185.316007 
L 321.381416 138.977623 
L 322.251027 79.685582 
L 323.120637 93.244996 
L 323.990248 159.082379 
L 324.859858 194.974015 
L 325.729468 172.599489 
L 326.599079 113.930174 
L 327.468689 66.390181 
L 328.3383 109.432113 
L 329.20791 132.454776 
L 330.07752 199.40475 
L 330.947131 198.810488 
L 332.686351 96.550195 
L 333.555962 105.400901 
L 335.295183 193.862921 
L 336.164793 164.53057 
L 337.034403 86.649207 
L 337.904014 41.987832 
L 338.773624 95.080345 
L 339.643235 135.191015 
L 340.512845 213.27274 
L 341.382455 203.152618 
L 342.252066 150.643995 
L 343.121676 116.546788 
L 343.991287 118.285342 
L 345.730507 202.388184 
L 346.600118 163.253078 
L 348.339338 61.283525 
L 349.208949 79.968872 
L 350.078559 136.777195 
L 350.94817 216.638093 
L 351.81778 208.282158 
L 352.68739 145.620144 
L 353.557001 102.592862 
L 354.426611 108.506787 
L 355.296222 152.228291 
L 356.165832 208.182331 
L 357.035442 196.773532 
L 357.905053 139.603985 
L 358.774663 71.957866 
L 359.644274 117.262574 
L 360.513884 172.385247 
L 361.383494 206.628574 
L 362.253105 198.187557 
L 363.122715 126.634759 
L 363.992325 77.042419 
L 364.861936 74.480765 
L 366.601157 197.790396 
L 367.470767 189.680258 
L 368.340377 91.288734 
L 369.209988 80.797966 
L 370.079598 153.457917 
L 370.949209 147.852212 
L 371.818819 218.135101 
L 372.688429 196.986919 
L 374.42765 91.248797 
L 375.297261 104.045725 
L 376.166871 154.706348 
L 377.036481 183.16858 
L 377.906092 164.659015 
L 378.775702 78.740109 
L 379.645313 20.462374 
L 379.645313 20.462374 
" style="fill:none;stroke:#1f77b4;stroke-linecap:square;stroke-width:1.5;"/>
   </g>
   <g id="line2d_44">
    <path clip-path="url(#p164dbf2a0f)" d="M 54.411027 138.657563 
L 55.280637 139.437972 
L 56.150248 139.527145 
L 57.019858 138.851314 
L 58.759079 136.105872 
L 59.628689 134.99945 
L 60.4983 133.527458 
L 61.36791 132.853118 
L 62.23752 130.788149 
L 63.107131 130.342878 
L 64.846351 129.7544 
L 65.715962 130.312629 
L 67.455183 128.112888 
L 68.324793 127.706279 
L 69.194403 128.122792 
L 70.064014 128.840985 
L 70.933624 129.194738 
L 71.803235 129.202689 
L 72.672845 128.30509 
L 73.542455 128.579924 
L 74.412066 129.056189 
L 76.151287 130.282529 
L 77.020897 133.533106 
L 77.890507 135.116574 
L 78.760118 135.030133 
L 79.629728 135.459443 
L 80.499338 135.544575 
L 82.238559 137.040002 
L 83.10817 138.56147 
L 83.97778 138.419318 
L 84.84739 137.639012 
L 85.717001 136.089617 
L 86.586611 131.695821 
L 87.456222 129.946872 
L 89.195442 133.076812 
L 90.934663 133.354726 
L 91.804274 133.134051 
L 92.673884 133.359383 
L 93.543494 134.036363 
L 94.413105 133.68178 
L 95.282715 134.554935 
L 96.152325 136.537459 
L 97.021936 140.961191 
L 97.891546 140.770752 
L 98.761157 141.213896 
L 100.500377 142.425303 
L 103.109209 138.32915 
L 103.978819 137.812706 
L 104.848429 137.977174 
L 105.71804 137.584055 
L 106.58765 135.811415 
L 107.457261 135.869665 
L 108.326871 137.212419 
L 109.196481 136.827367 
L 110.066092 137.25358 
L 110.935702 136.908456 
L 111.805313 138.973682 
L 112.674923 141.817955 
L 114.414144 145.265237 
L 115.283754 146.065687 
L 116.153364 145.899556 
L 117.022975 145.161354 
L 117.892585 142.460218 
L 118.762196 141.247662 
L 119.631806 139.115467 
L 120.501416 136.680547 
L 121.371027 136.127184 
L 122.240637 136.247825 
L 123.110248 135.146693 
L 124.849468 132.16252 
L 125.719079 132.485058 
L 128.32791 136.488364 
L 129.19752 135.082014 
L 130.067131 135.24848 
L 131.806351 137.856576 
L 132.675962 138.001265 
L 133.545572 137.15129 
L 134.415183 137.628007 
L 135.284793 138.557744 
L 136.154403 138.703662 
L 137.024014 138.540327 
L 137.893624 138.879914 
L 138.763235 139.432094 
L 139.632845 140.767778 
L 140.502455 141.086364 
L 141.372066 140.523344 
L 142.241676 139.489487 
L 143.111287 137.895497 
L 143.980897 138.354815 
L 144.850507 137.65309 
L 145.720118 134.762612 
L 146.589728 134.275152 
L 147.459338 133.957118 
L 148.328949 132.785161 
L 149.198559 131.331771 
L 150.06817 130.208216 
L 151.80739 128.892531 
L 154.416222 129.785125 
L 155.285832 132.057662 
L 156.155442 135.359134 
L 157.025053 136.681972 
L 157.894663 137.731722 
L 158.764274 138.443184 
L 160.503494 141.014005 
L 162.242715 145.337997 
L 163.112325 145.928124 
L 163.981936 147.253969 
L 164.851546 147.837428 
L 165.721157 146.093237 
L 166.590767 145.162196 
L 168.329988 141.685983 
L 169.199598 141.008984 
L 170.069209 140.155909 
L 170.938819 141.629682 
L 171.808429 142.448 
L 172.67804 140.782004 
L 173.54765 140.685334 
L 174.417261 138.854286 
L 175.286871 136.296693 
L 177.895702 131.770344 
L 178.765313 131.704624 
L 180.504533 134.766418 
L 181.374144 133.126179 
L 182.243754 133.331915 
L 183.113364 133.134646 
L 183.982975 133.053219 
L 185.722196 135.129192 
L 186.591806 135.02242 
L 187.461416 135.137761 
L 188.331027 136.491882 
L 190.070248 138.040259 
L 190.939858 137.994487 
L 191.809468 138.972689 
L 192.679079 138.500474 
L 193.548689 140.524274 
L 194.4183 140.612098 
L 195.28791 138.646249 
L 196.15752 137.900775 
L 197.027131 139.209273 
L 197.896741 138.511384 
L 198.766351 137.482793 
L 199.635962 137.021736 
L 200.505572 135.10366 
L 201.375183 132.83837 
L 202.244793 131.49374 
L 203.114403 131.678761 
L 203.984014 131.181543 
L 204.853624 132.221929 
L 205.723235 134.744243 
L 206.592845 136.417408 
L 208.332066 139.037287 
L 209.201676 141.387513 
L 210.071287 142.553399 
L 210.940897 145.635439 
L 211.810507 149.679053 
L 212.680118 151.569111 
L 213.549728 151.638037 
L 214.419338 150.432644 
L 216.158559 145.836139 
L 217.02817 143.89274 
L 217.89778 140.717941 
L 218.76739 139.504601 
L 219.637001 137.074505 
L 221.376222 132.869589 
L 222.245832 130.660938 
L 223.115442 129.468431 
L 223.985053 127.81738 
L 224.854663 129.407943 
L 225.724274 131.826473 
L 226.593884 133.641835 
L 227.463494 136.388487 
L 228.333105 137.961696 
L 229.202715 138.27502 
L 230.941936 141.074937 
L 231.811546 141.941481 
L 232.681157 141.43235 
L 233.550767 140.581295 
L 234.420377 139.913602 
L 235.289988 139.805045 
L 236.159598 139.34185 
L 237.898819 136.770413 
L 238.768429 137.72916 
L 239.63804 140.083401 
L 241.377261 140.266992 
L 242.246871 140.437068 
L 243.116481 140.181557 
L 243.986092 141.645082 
L 244.855702 143.72392 
L 245.725313 142.444972 
L 246.594923 142.816832 
L 247.464533 143.740356 
L 248.334144 141.934598 
L 249.203754 139.43442 
L 250.073364 136.260086 
L 250.942975 134.811888 
L 251.812585 134.624642 
L 252.682196 135.122809 
L 253.551806 135.015343 
L 254.421416 138.518532 
L 256.160637 140.564515 
L 257.030248 140.863085 
L 257.899858 140.485537 
L 258.769468 140.936143 
L 260.508689 140.339523 
L 261.3783 142.031162 
L 262.24791 141.842355 
L 263.11752 141.083804 
L 263.987131 143.120319 
L 264.856741 140.413351 
L 265.726351 136.895696 
L 266.595962 137.331325 
L 267.465572 136.58025 
L 268.335183 136.443222 
L 269.204793 137.07491 
L 270.074403 139.060157 
L 270.944014 138.694574 
L 271.813624 137.105399 
L 272.683235 136.904879 
L 273.552845 137.217388 
L 274.422455 137.02713 
L 275.292066 137.13915 
L 276.161676 139.291787 
L 277.031287 139.472272 
L 277.900897 139.987223 
L 278.770507 140.867864 
L 279.640118 140.161328 
L 280.509728 139.671977 
L 281.379338 142.761849 
L 282.248949 144.586782 
L 283.118559 145.503781 
L 283.98817 145.445754 
L 284.85778 144.213942 
L 285.72739 143.282847 
L 286.597001 144.675786 
L 288.336222 146.421902 
L 289.205832 147.675002 
L 290.075442 149.694567 
L 290.945053 151.243885 
L 291.814663 150.888316 
L 292.684274 151.110383 
L 293.553884 150.877866 
L 294.423494 151.777349 
L 295.293105 149.989607 
L 296.162715 147.896271 
L 297.032325 144.456706 
L 297.901936 143.442858 
L 298.771546 143.605193 
L 299.641157 141.472502 
L 301.380377 135.286526 
L 302.249988 133.243974 
L 303.119598 132.020745 
L 303.989209 133.39703 
L 304.858819 133.25578 
L 305.728429 133.417206 
L 306.59804 134.774478 
L 307.46765 137.264833 
L 308.337261 138.124707 
L 309.206871 138.033357 
L 310.946092 141.288907 
L 311.815702 141.274773 
L 312.685313 141.508064 
L 313.554923 142.076305 
L 315.294144 141.502071 
L 317.033364 146.701261 
L 317.902975 147.996412 
L 318.772585 149.900226 
L 319.642196 149.975608 
L 320.511806 148.00097 
L 321.381416 148.038067 
L 322.251027 147.881012 
L 323.120637 148.403686 
L 323.990248 148.600923 
L 324.859858 147.506778 
L 325.729468 146.155725 
L 326.599079 146.064949 
L 328.3383 142.366445 
L 329.20791 138.379906 
L 330.07752 137.124341 
L 330.947131 138.248881 
L 331.816741 138.7514 
L 332.686351 140.156784 
L 333.555962 141.169776 
L 334.425572 140.562262 
L 335.295183 140.469671 
L 336.164793 139.797261 
L 337.904014 135.490318 
L 338.773624 134.294338 
L 339.643235 134.522358 
L 340.512845 135.678023 
L 342.252066 136.509546 
L 343.121676 138.175929 
L 343.991287 139.249632 
L 344.860897 139.777478 
L 345.730507 140.487916 
L 346.600118 140.381459 
L 347.469728 142.571315 
L 348.339338 144.179289 
L 349.208949 142.92 
L 350.078559 143.052181 
L 350.94817 143.332627 
L 351.81778 143.760089 
L 352.68739 143.341435 
L 353.557001 142.178608 
L 354.426611 141.363728 
L 355.296222 140.872222 
L 356.165832 141.355068 
L 357.035442 144.148439 
L 357.905053 146.371481 
L 358.774663 147.26101 
L 360.513884 153.336156 
L 362.253105 151.660813 
L 363.122715 150.078697 
L 363.992325 147.949494 
L 364.861936 145.113992 
L 365.731546 143.806412 
L 366.601157 142.940418 
L 367.470767 142.349312 
L 368.340377 138.323041 
L 369.209988 139.059716 
L 370.079598 142.075994 
L 370.949209 140.031575 
L 371.818819 140.990452 
L 372.688429 140.890399 
L 374.42765 143.307437 
L 375.297261 145.771183 
L 376.166871 147.285267 
L 377.036481 146.066783 
L 377.906092 143.981679 
L 378.775702 142.93596 
L 379.645313 137.907994 
L 379.645313 137.907994 
" style="fill:none;stroke:#ff0000;stroke-linecap:square;stroke-width:1.5;"/>
   </g>
   <g id="line2d_45">
    <path clip-path="url(#p164dbf2a0f)" d="M 54.411027 98.072239 
L 55.280637 98.96217 
L 56.150248 99.149984 
L 57.019858 98.300748 
L 57.889468 98.012763 
L 58.759079 99.27185 
L 59.628689 100.79914 
L 60.4983 101.467064 
L 61.36791 101.044382 
L 62.23752 99.999855 
L 63.107131 100.237616 
L 65.715962 101.366176 
L 66.585572 99.098117 
L 67.455183 97.716408 
L 68.324793 97.627194 
L 69.194403 97.187843 
L 70.064014 96.187881 
L 70.933624 96.056665 
L 71.803235 96.061096 
L 72.672845 95.347974 
L 73.542455 95.209217 
L 75.281676 93.95638 
L 76.151287 94.23177 
L 77.020897 99.64504 
L 77.890507 101.850974 
L 78.760118 101.806819 
L 79.629728 101.33389 
L 80.499338 101.207209 
L 81.368949 100.927174 
L 82.238559 101.480167 
L 83.10817 103.102262 
L 83.97778 103.152094 
L 84.84739 104.142266 
L 85.717001 105.429236 
L 86.586611 99.533748 
L 87.456222 96.967385 
L 88.325832 98.086924 
L 89.195442 98.367651 
L 90.934663 98.006037 
L 92.673884 98.211673 
L 93.543494 98.58291 
L 94.413105 98.709057 
L 95.282715 97.641511 
L 96.152325 96.0941 
L 97.021936 102.085481 
L 97.891546 101.671362 
L 98.761157 102.033995 
L 99.630767 102.074974 
L 100.500377 101.351479 
L 101.369988 102.971615 
L 102.239598 103.122963 
L 103.109209 102.085356 
L 103.978819 101.730949 
L 104.848429 101.690654 
L 105.71804 102.207438 
L 106.58765 103.809498 
L 107.457261 103.849443 
L 108.326871 106.591152 
L 109.196481 106.286219 
L 110.066092 106.186881 
L 110.935702 106.701414 
L 111.805313 103.572044 
L 112.674923 102.608621 
L 113.544533 104.10955 
L 114.414144 105.297474 
L 115.283754 105.129073 
L 117.022975 105.506737 
L 117.892585 101.868329 
L 119.631806 97.17998 
L 120.501416 96.885077 
L 121.371027 97.480456 
L 122.240637 97.285789 
L 123.110248 98.016704 
L 123.979858 97.35699 
L 124.849468 96.850904 
L 125.719079 96.642268 
L 126.588689 94.951234 
L 127.4583 94.370191 
L 128.32791 96.084625 
L 129.19752 93.386763 
L 130.936741 93.865919 
L 131.806351 92.564512 
L 132.675962 92.354319 
L 134.415183 92.89988 
L 135.284793 93.359077 
L 136.154403 93.282453 
L 137.024014 93.49285 
L 137.893624 93.289711 
L 138.763235 93.74675 
L 139.632845 96.473783 
L 140.502455 96.882712 
L 141.372066 96.757126 
L 142.241676 97.912901 
L 143.111287 100.201788 
L 143.980897 100.07246 
L 144.850507 99.541819 
L 145.720118 97.244489 
L 146.589728 97.54754 
L 147.459338 98.00957 
L 148.328949 98.79962 
L 149.198559 97.531514 
L 150.06817 95.449596 
L 150.93778 94.842391 
L 151.80739 94.750401 
L 153.546611 94.117629 
L 154.416222 93.904021 
L 155.285832 94.5839 
L 156.155442 96.675623 
L 157.025053 95.765314 
L 157.894663 94.296769 
L 158.764274 93.978326 
L 159.633884 95.336 
L 161.373105 100.305875 
L 162.242715 100.970893 
L 163.112325 100.334754 
L 163.981936 98.638749 
L 164.851546 98.458906 
L 165.721157 97.349614 
L 166.590767 96.792263 
L 167.460377 97.562164 
L 168.329988 99.807774 
L 169.199598 100.099309 
L 170.069209 99.206439 
L 170.938819 101.96721 
L 171.808429 102.63796 
L 172.67804 102.383505 
L 173.54765 102.512858 
L 174.417261 105.315883 
L 175.286871 106.115525 
L 176.156481 104.617704 
L 177.026092 103.421135 
L 177.895702 103.890629 
L 178.765313 103.985699 
L 179.634923 102.564753 
L 180.504533 103.799162 
L 181.374144 100.857148 
L 182.243754 100.940139 
L 183.113364 100.896795 
L 183.982975 101.015805 
L 184.852585 99.386029 
L 186.591806 99.176791 
L 187.461416 99.285257 
L 188.331027 99.05168 
L 189.200637 98.050513 
L 190.070248 97.314832 
L 190.939858 97.285056 
L 191.809468 99.080062 
L 192.679079 98.814661 
L 193.548689 99.003863 
L 194.4183 98.897595 
L 195.28791 101.1775 
L 196.15752 101.20719 
L 197.027131 102.591508 
L 197.896741 101.751618 
L 198.766351 101.934345 
L 199.635962 102.585121 
L 200.505572 104.461357 
L 202.244793 99.666564 
L 203.984014 99.916905 
L 204.853624 98.248785 
L 205.723235 94.975785 
L 206.592845 94.604375 
L 207.462455 95.301563 
L 208.332066 96.484429 
L 209.201676 95.804173 
L 210.071287 94.417989 
L 210.940897 92.098242 
L 212.680118 99.636706 
L 213.549728 99.698842 
L 214.419338 99.203616 
L 216.158559 104.189703 
L 217.02817 104.128047 
L 217.89778 100.862514 
L 218.76739 99.53524 
L 219.637001 100.390469 
L 221.376222 106.331447 
L 222.245832 105.477295 
L 223.115442 103.395993 
L 223.985053 102.394457 
L 224.854663 102.036261 
L 225.724274 98.514599 
L 226.593884 96.081976 
L 227.463494 95.222205 
L 228.333105 96.780161 
L 229.202715 97.124035 
L 230.072325 96.858541 
L 230.941936 95.493127 
L 231.811546 94.823684 
L 232.681157 94.371033 
L 233.550767 92.77595 
L 234.420377 92.086355 
L 235.289988 92.100433 
L 236.159598 92.697405 
L 237.029209 94.190082 
L 238.768429 95.371731 
L 239.63804 97.077006 
L 240.50765 97.055007 
L 243.116481 96.474109 
L 243.986092 99.347982 
L 244.855702 101.579265 
L 245.725313 101.393216 
L 246.594923 100.848838 
L 247.464533 99.745293 
L 248.334144 99.551127 
L 250.073364 94.531659 
L 250.942975 94.923469 
L 251.812585 95.173887 
L 252.682196 94.600139 
L 253.551806 94.504325 
L 254.421416 98.369899 
L 255.291027 98.8637 
L 256.160637 98.966446 
L 257.030248 98.509119 
L 257.899858 98.999398 
L 258.769468 99.11459 
L 261.3783 97.945066 
L 262.24791 98.170969 
L 263.11752 98.964899 
L 263.987131 100.770415 
L 265.726351 94.792264 
L 266.595962 94.717644 
L 267.465572 95.80197 
L 268.335183 95.972472 
L 269.204793 95.969784 
L 270.074403 98.048829 
L 270.944014 97.510744 
L 271.813624 97.958261 
L 272.683235 98.211004 
L 273.552845 97.874623 
L 274.422455 97.787603 
L 275.292066 97.945315 
L 276.161676 100.179693 
L 277.031287 100.138277 
L 277.900897 99.371924 
L 278.770507 98.192274 
L 279.640118 98.122918 
L 280.509728 97.684884 
L 281.379338 101.324559 
L 282.248949 100.976691 
L 283.118559 99.845696 
L 283.98817 99.900672 
L 284.85778 98.815732 
L 285.72739 97.237769 
L 286.597001 98.117568 
L 287.466611 97.932114 
L 288.336222 96.577218 
L 289.205832 94.829037 
L 290.075442 95.027352 
L 290.945053 96.501684 
L 291.814663 96.166068 
L 292.684274 96.102578 
L 293.553884 96.353606 
L 294.423494 95.58917 
L 295.293105 93.20299 
L 296.162715 89.096265 
L 297.032325 86.331193 
L 297.901936 86.512732 
L 298.771546 86.29261 
L 299.641157 88.796701 
L 300.510767 88.666999 
L 301.380377 86.442968 
L 302.249988 84.967661 
L 303.119598 85.537667 
L 303.989209 83.699661 
L 305.728429 84.007658 
L 306.59804 86.122742 
L 307.46765 87.882217 
L 308.337261 87.633745 
L 309.206871 87.771141 
L 310.076481 85.840703 
L 310.946092 86.19971 
L 311.815702 86.183484 
L 312.685313 86.434722 
L 313.554923 86.308351 
L 314.424533 86.765936 
L 315.294144 86.981979 
L 316.163754 89.334059 
L 317.033364 93.088074 
L 317.902975 93.796857 
L 318.772585 92.960529 
L 319.642196 92.855016 
L 320.511806 94.975667 
L 321.381416 94.983499 
L 322.251027 94.743106 
L 323.120637 95.435911 
L 323.990248 95.39329 
L 324.859858 96.758094 
L 325.729468 97.854286 
L 326.599079 97.784718 
L 327.468689 94.717688 
L 328.3383 93.804424 
L 329.20791 95.244324 
L 330.07752 97.278309 
L 330.947131 95.837355 
L 331.816741 95.796648 
L 332.686351 97.500108 
L 333.555962 98.518886 
L 335.295183 98.860845 
L 336.164793 99.337515 
L 337.034403 97.202937 
L 337.904014 93.363966 
L 338.773624 92.510897 
L 339.643235 92.51379 
L 340.512845 90.760156 
L 341.382455 90.268988 
L 342.252066 90.156551 
L 343.121676 91.229813 
L 343.991287 91.843132 
L 344.860897 91.669064 
L 345.730507 90.798329 
L 346.600118 90.85069 
L 347.469728 92.802464 
L 348.339338 96.128293 
L 349.208949 94.509099 
L 350.078559 94.529989 
L 350.94817 94.077751 
L 351.81778 93.486923 
L 352.68739 93.529327 
L 353.557001 92.682963 
L 354.426611 92.18267 
L 355.296222 92.331667 
L 356.165832 91.666966 
L 357.035442 89.494683 
L 357.905053 90.365087 
L 358.774663 91.869325 
L 359.644274 95.324656 
L 360.513884 95.139164 
L 362.253105 97.291341 
L 363.122715 96.736249 
L 363.992325 93.845245 
L 364.861936 90.486386 
L 365.731546 90.484278 
L 366.601157 91.57098 
L 367.470767 92.211029 
L 368.340377 90.096383 
L 369.209988 91.054325 
L 370.079598 91.386206 
L 370.949209 92.219129 
L 371.818819 90.75547 
L 373.55804 91.068069 
L 374.42765 92.550006 
L 375.297261 95.595714 
L 376.166871 95.627405 
L 377.036481 96.876896 
L 377.906092 98.495824 
L 378.775702 97.017347 
L 379.645313 87.30164 
L 379.645313 87.30164 
" style="fill:none;stroke:#008000;stroke-linecap:square;stroke-width:1.5;"/>
   </g>
   <g id="patch_3">
    <path d="M 44.845313 228.018738 
L 44.845313 10.578738 
" style="fill:none;stroke:#000000;stroke-linecap:square;stroke-linejoin:miter;stroke-width:0.8;"/>
   </g>
   <g id="patch_4">
    <path d="M 379.645313 228.018738 
L 379.645313 10.578738 
" style="fill:none;stroke:#000000;stroke-linecap:square;stroke-linejoin:miter;stroke-width:0.8;"/>
   </g>
   <g id="patch_5">
    <path d="M 44.845313 228.018738 
L 379.645313 228.018738 
" style="fill:none;stroke:#000000;stroke-linecap:square;stroke-linejoin:miter;stroke-width:0.8;"/>
   </g>
   <g id="patch_6">
    <path d="M 44.845313 10.578738 
L 379.645313 10.578738 
" style="fill:none;stroke:#000000;stroke-linecap:square;stroke-linejoin:miter;stroke-width:0.8;"/>
   </g>
  </g>
 </g>
 <defs>
  <clipPath id="p164dbf2a0f">
   <rect height="217.44" width="334.8" x="44.845313" y="10.578738"/>
  </clipPath>
 </defs>
</svg>
