<?xml version="1.0" encoding="utf-8" standalone="no"?>
<!DOCTYPE svg PUBLIC "-//W3C//DTD SVG 1.1//EN"
  "http://www.w3.org/Graphics/SVG/1.1/DTD/svg11.dtd">
<!-- Created with matplotlib (https://matplotlib.org/) -->
<svg height="280.15625pt" version="1.1" viewBox="0 0 424.8875 280.15625" width="424.8875pt" xmlns="http://www.w3.org/2000/svg" xmlns:xlink="http://www.w3.org/1999/xlink">
 <defs>
  <style type="text/css">
*{stroke-linecap:butt;stroke-linejoin:round;}
  </style>
 </defs>
 <g id="figure_1">
  <g id="patch_1">
   <path d="M 0 280.15625 
L 424.8875 280.15625 
L 424.8875 0 
L 0 0 
z
" style="fill:none;"/>
  </g>
  <g id="axes_1">
   <g id="patch_2">
    <path d="M 33.2875 242.6 
L 417.6875 242.6 
L 417.6875 7.2 
L 33.2875 7.2 
z
" style="fill:#ffffff;"/>
   </g>
   <g id="matplotlib.axis_1">
    <g id="xtick_1">
     <g id="line2d_1">
      <defs>
       <path d="M 0 0 
L 0 3.5 
" id="m0492b62afe" style="stroke:#000000;stroke-width:0.8;"/>
      </defs>
      <g>
       <use style="stroke:#000000;stroke-width:0.8;" x="79.881439" xlink:href="#m0492b62afe" y="242.6"/>
      </g>
     </g>
     <g id="text_1">
      <!-- 1989 -->
      <defs>
       <path d="M 12.40625 8.296875 
L 28.515625 8.296875 
L 28.515625 63.921875 
L 10.984375 60.40625 
L 10.984375 69.390625 
L 28.421875 72.90625 
L 38.28125 72.90625 
L 38.28125 8.296875 
L 54.390625 8.296875 
L 54.390625 0 
L 12.40625 0 
z
" id="DejaVuSans-49"/>
       <path d="M 10.984375 1.515625 
L 10.984375 10.5 
Q 14.703125 8.734375 18.5 7.8125 
Q 22.3125 6.890625 25.984375 6.890625 
Q 35.75 6.890625 40.890625 13.453125 
Q 46.046875 20.015625 46.78125 33.40625 
Q 43.953125 29.203125 39.59375 26.953125 
Q 35.25 24.703125 29.984375 24.703125 
Q 19.046875 24.703125 12.671875 31.3125 
Q 6.296875 37.9375 6.296875 49.421875 
Q 6.296875 60.640625 12.9375 67.421875 
Q 19.578125 74.21875 30.609375 74.21875 
Q 43.265625 74.21875 49.921875 64.515625 
Q 56.59375 54.828125 56.59375 36.375 
Q 56.59375 19.140625 48.40625 8.859375 
Q 40.234375 -1.421875 26.421875 -1.421875 
Q 22.703125 -1.421875 18.890625 -0.6875 
Q 15.09375 0.046875 10.984375 1.515625 
z
M 30.609375 32.421875 
Q 37.25 32.421875 41.125 36.953125 
Q 45.015625 41.5 45.015625 49.421875 
Q 45.015625 57.28125 41.125 61.84375 
Q 37.25 66.40625 30.609375 66.40625 
Q 23.96875 66.40625 20.09375 61.84375 
Q 16.21875 57.28125 16.21875 49.421875 
Q 16.21875 41.5 20.09375 36.953125 
Q 23.96875 32.421875 30.609375 32.421875 
z
" id="DejaVuSans-57"/>
       <path d="M 31.78125 34.625 
Q 24.75 34.625 20.71875 30.859375 
Q 16.703125 27.09375 16.703125 20.515625 
Q 16.703125 13.921875 20.71875 10.15625 
Q 24.75 6.390625 31.78125 6.390625 
Q 38.8125 6.390625 42.859375 10.171875 
Q 46.921875 13.96875 46.921875 20.515625 
Q 46.921875 27.09375 42.890625 30.859375 
Q 38.875 34.625 31.78125 34.625 
z
M 21.921875 38.8125 
Q 15.578125 40.375 12.03125 44.71875 
Q 8.5 49.078125 8.5 55.328125 
Q 8.5 64.0625 14.71875 69.140625 
Q 20.953125 74.21875 31.78125 74.21875 
Q 42.671875 74.21875 48.875 69.140625 
Q 55.078125 64.0625 55.078125 55.328125 
Q 55.078125 49.078125 51.53125 44.71875 
Q 48 40.375 41.703125 38.8125 
Q 48.828125 37.15625 52.796875 32.3125 
Q 56.78125 27.484375 56.78125 20.515625 
Q 56.78125 9.90625 50.3125 4.234375 
Q 43.84375 -1.421875 31.78125 -1.421875 
Q 19.734375 -1.421875 13.25 4.234375 
Q 6.78125 9.90625 6.78125 20.515625 
Q 6.78125 27.484375 10.78125 32.3125 
Q 14.796875 37.15625 21.921875 38.8125 
z
M 18.3125 54.390625 
Q 18.3125 48.734375 21.84375 45.5625 
Q 25.390625 42.390625 31.78125 42.390625 
Q 38.140625 42.390625 41.71875 45.5625 
Q 45.3125 48.734375 45.3125 54.390625 
Q 45.3125 60.0625 41.71875 63.234375 
Q 38.140625 66.40625 31.78125 66.40625 
Q 25.390625 66.40625 21.84375 63.234375 
Q 18.3125 60.0625 18.3125 54.390625 
z
" id="DejaVuSans-56"/>
      </defs>
      <g transform="translate(67.156439 257.198437)scale(0.1 -0.1)">
       <use xlink:href="#DejaVuSans-49"/>
       <use x="63.623047" xlink:href="#DejaVuSans-57"/>
       <use x="127.246094" xlink:href="#DejaVuSans-56"/>
       <use x="190.869141" xlink:href="#DejaVuSans-57"/>
      </g>
     </g>
    </g>
    <g id="xtick_2">
     <g id="line2d_2">
      <g>
       <use style="stroke:#000000;stroke-width:0.8;" x="138.123864" xlink:href="#m0492b62afe" y="242.6"/>
      </g>
     </g>
     <g id="text_2">
      <!-- 1994 -->
      <defs>
       <path d="M 37.796875 64.3125 
L 12.890625 25.390625 
L 37.796875 25.390625 
z
M 35.203125 72.90625 
L 47.609375 72.90625 
L 47.609375 25.390625 
L 58.015625 25.390625 
L 58.015625 17.1875 
L 47.609375 17.1875 
L 47.609375 0 
L 37.796875 0 
L 37.796875 17.1875 
L 4.890625 17.1875 
L 4.890625 26.703125 
z
" id="DejaVuSans-52"/>
      </defs>
      <g transform="translate(125.398864 257.198437)scale(0.1 -0.1)">
       <use xlink:href="#DejaVuSans-49"/>
       <use x="63.623047" xlink:href="#DejaVuSans-57"/>
       <use x="127.246094" xlink:href="#DejaVuSans-57"/>
       <use x="190.869141" xlink:href="#DejaVuSans-52"/>
      </g>
     </g>
    </g>
    <g id="xtick_3">
     <g id="line2d_3">
      <g>
       <use style="stroke:#000000;stroke-width:0.8;" x="196.366288" xlink:href="#m0492b62afe" y="242.6"/>
      </g>
     </g>
     <g id="text_3">
      <!-- 1999 -->
      <g transform="translate(183.641288 257.198437)scale(0.1 -0.1)">
       <use xlink:href="#DejaVuSans-49"/>
       <use x="63.623047" xlink:href="#DejaVuSans-57"/>
       <use x="127.246094" xlink:href="#DejaVuSans-57"/>
       <use x="190.869141" xlink:href="#DejaVuSans-57"/>
      </g>
     </g>
    </g>
    <g id="xtick_4">
     <g id="line2d_4">
      <g>
       <use style="stroke:#000000;stroke-width:0.8;" x="254.608712" xlink:href="#m0492b62afe" y="242.6"/>
      </g>
     </g>
     <g id="text_4">
      <!-- 2004 -->
      <defs>
       <path d="M 19.1875 8.296875 
L 53.609375 8.296875 
L 53.609375 0 
L 7.328125 0 
L 7.328125 8.296875 
Q 12.9375 14.109375 22.625 23.890625 
Q 32.328125 33.6875 34.8125 36.53125 
Q 39.546875 41.84375 41.421875 45.53125 
Q 43.3125 49.21875 43.3125 52.78125 
Q 43.3125 58.59375 39.234375 62.25 
Q 35.15625 65.921875 28.609375 65.921875 
Q 23.96875 65.921875 18.8125 64.3125 
Q 13.671875 62.703125 7.8125 59.421875 
L 7.8125 69.390625 
Q 13.765625 71.78125 18.9375 73 
Q 24.125 74.21875 28.421875 74.21875 
Q 39.75 74.21875 46.484375 68.546875 
Q 53.21875 62.890625 53.21875 53.421875 
Q 53.21875 48.921875 51.53125 44.890625 
Q 49.859375 40.875 45.40625 35.40625 
Q 44.1875 33.984375 37.640625 27.21875 
Q 31.109375 20.453125 19.1875 8.296875 
z
" id="DejaVuSans-50"/>
       <path d="M 31.78125 66.40625 
Q 24.171875 66.40625 20.328125 58.90625 
Q 16.5 51.421875 16.5 36.375 
Q 16.5 21.390625 20.328125 13.890625 
Q 24.171875 6.390625 31.78125 6.390625 
Q 39.453125 6.390625 43.28125 13.890625 
Q 47.125 21.390625 47.125 36.375 
Q 47.125 51.421875 43.28125 58.90625 
Q 39.453125 66.40625 31.78125 66.40625 
z
M 31.78125 74.21875 
Q 44.046875 74.21875 50.515625 64.515625 
Q 56.984375 54.828125 56.984375 36.375 
Q 56.984375 17.96875 50.515625 8.265625 
Q 44.046875 -1.421875 31.78125 -1.421875 
Q 19.53125 -1.421875 13.0625 8.265625 
Q 6.59375 17.96875 6.59375 36.375 
Q 6.59375 54.828125 13.0625 64.515625 
Q 19.53125 74.21875 31.78125 74.21875 
z
" id="DejaVuSans-48"/>
      </defs>
      <g transform="translate(241.883712 257.198437)scale(0.1 -0.1)">
       <use xlink:href="#DejaVuSans-50"/>
       <use x="63.623047" xlink:href="#DejaVuSans-48"/>
       <use x="127.246094" xlink:href="#DejaVuSans-48"/>
       <use x="190.869141" xlink:href="#DejaVuSans-52"/>
      </g>
     </g>
    </g>
    <g id="xtick_5">
     <g id="line2d_5">
      <g>
       <use style="stroke:#000000;stroke-width:0.8;" x="312.851136" xlink:href="#m0492b62afe" y="242.6"/>
      </g>
     </g>
     <g id="text_5">
      <!-- 2009 -->
      <g transform="translate(300.126136 257.198437)scale(0.1 -0.1)">
       <use xlink:href="#DejaVuSans-50"/>
       <use x="63.623047" xlink:href="#DejaVuSans-48"/>
       <use x="127.246094" xlink:href="#DejaVuSans-48"/>
       <use x="190.869141" xlink:href="#DejaVuSans-57"/>
      </g>
     </g>
    </g>
    <g id="xtick_6">
     <g id="line2d_6">
      <g>
       <use style="stroke:#000000;stroke-width:0.8;" x="371.093561" xlink:href="#m0492b62afe" y="242.6"/>
      </g>
     </g>
     <g id="text_6">
      <!-- 2014 -->
      <g transform="translate(358.368561 257.198437)scale(0.1 -0.1)">
       <use xlink:href="#DejaVuSans-50"/>
       <use x="63.623047" xlink:href="#DejaVuSans-48"/>
       <use x="127.246094" xlink:href="#DejaVuSans-49"/>
       <use x="190.869141" xlink:href="#DejaVuSans-52"/>
      </g>
     </g>
    </g>
    <g id="xtick_7">
     <g id="line2d_7">
      <defs>
       <path d="M 0 0 
L 0 2 
" id="m4869a63649" style="stroke:#000000;stroke-width:0.6;"/>
      </defs>
      <g>
       <use style="stroke:#000000;stroke-width:0.6;" x="33.2875" xlink:href="#m4869a63649" y="242.6"/>
      </g>
     </g>
    </g>
    <g id="xtick_8">
     <g id="line2d_8">
      <g>
       <use style="stroke:#000000;stroke-width:0.6;" x="44.935985" xlink:href="#m4869a63649" y="242.6"/>
      </g>
     </g>
    </g>
    <g id="xtick_9">
     <g id="line2d_9">
      <g>
       <use style="stroke:#000000;stroke-width:0.6;" x="56.58447" xlink:href="#m4869a63649" y="242.6"/>
      </g>
     </g>
    </g>
    <g id="xtick_10">
     <g id="line2d_10">
      <g>
       <use style="stroke:#000000;stroke-width:0.6;" x="68.232955" xlink:href="#m4869a63649" y="242.6"/>
      </g>
     </g>
    </g>
    <g id="xtick_11">
     <g id="line2d_11">
      <g>
       <use style="stroke:#000000;stroke-width:0.6;" x="91.529924" xlink:href="#m4869a63649" y="242.6"/>
      </g>
     </g>
    </g>
    <g id="xtick_12">
     <g id="line2d_12">
      <g>
       <use style="stroke:#000000;stroke-width:0.6;" x="103.178409" xlink:href="#m4869a63649" y="242.6"/>
      </g>
     </g>
    </g>
    <g id="xtick_13">
     <g id="line2d_13">
      <g>
       <use style="stroke:#000000;stroke-width:0.6;" x="114.826894" xlink:href="#m4869a63649" y="242.6"/>
      </g>
     </g>
    </g>
    <g id="xtick_14">
     <g id="line2d_14">
      <g>
       <use style="stroke:#000000;stroke-width:0.6;" x="126.475379" xlink:href="#m4869a63649" y="242.6"/>
      </g>
     </g>
    </g>
    <g id="xtick_15">
     <g id="line2d_15">
      <g>
       <use style="stroke:#000000;stroke-width:0.6;" x="149.772348" xlink:href="#m4869a63649" y="242.6"/>
      </g>
     </g>
    </g>
    <g id="xtick_16">
     <g id="line2d_16">
      <g>
       <use style="stroke:#000000;stroke-width:0.6;" x="161.420833" xlink:href="#m4869a63649" y="242.6"/>
      </g>
     </g>
    </g>
    <g id="xtick_17">
     <g id="line2d_17">
      <g>
       <use style="stroke:#000000;stroke-width:0.6;" x="173.069318" xlink:href="#m4869a63649" y="242.6"/>
      </g>
     </g>
    </g>
    <g id="xtick_18">
     <g id="line2d_18">
      <g>
       <use style="stroke:#000000;stroke-width:0.6;" x="184.717803" xlink:href="#m4869a63649" y="242.6"/>
      </g>
     </g>
    </g>
    <g id="xtick_19">
     <g id="line2d_19">
      <g>
       <use style="stroke:#000000;stroke-width:0.6;" x="208.014773" xlink:href="#m4869a63649" y="242.6"/>
      </g>
     </g>
    </g>
    <g id="xtick_20">
     <g id="line2d_20">
      <g>
       <use style="stroke:#000000;stroke-width:0.6;" x="219.663258" xlink:href="#m4869a63649" y="242.6"/>
      </g>
     </g>
    </g>
    <g id="xtick_21">
     <g id="line2d_21">
      <g>
       <use style="stroke:#000000;stroke-width:0.6;" x="231.311742" xlink:href="#m4869a63649" y="242.6"/>
      </g>
     </g>
    </g>
    <g id="xtick_22">
     <g id="line2d_22">
      <g>
       <use style="stroke:#000000;stroke-width:0.6;" x="242.960227" xlink:href="#m4869a63649" y="242.6"/>
      </g>
     </g>
    </g>
    <g id="xtick_23">
     <g id="line2d_23">
      <g>
       <use style="stroke:#000000;stroke-width:0.6;" x="266.257197" xlink:href="#m4869a63649" y="242.6"/>
      </g>
     </g>
    </g>
    <g id="xtick_24">
     <g id="line2d_24">
      <g>
       <use style="stroke:#000000;stroke-width:0.6;" x="277.905682" xlink:href="#m4869a63649" y="242.6"/>
      </g>
     </g>
    </g>
    <g id="xtick_25">
     <g id="line2d_25">
      <g>
       <use style="stroke:#000000;stroke-width:0.6;" x="289.554167" xlink:href="#m4869a63649" y="242.6"/>
      </g>
     </g>
    </g>
    <g id="xtick_26">
     <g id="line2d_26">
      <g>
       <use style="stroke:#000000;stroke-width:0.6;" x="301.202652" xlink:href="#m4869a63649" y="242.6"/>
      </g>
     </g>
    </g>
    <g id="xtick_27">
     <g id="line2d_27">
      <g>
       <use style="stroke:#000000;stroke-width:0.6;" x="324.499621" xlink:href="#m4869a63649" y="242.6"/>
      </g>
     </g>
    </g>
    <g id="xtick_28">
     <g id="line2d_28">
      <g>
       <use style="stroke:#000000;stroke-width:0.6;" x="336.148106" xlink:href="#m4869a63649" y="242.6"/>
      </g>
     </g>
    </g>
    <g id="xtick_29">
     <g id="line2d_29">
      <g>
       <use style="stroke:#000000;stroke-width:0.6;" x="347.796591" xlink:href="#m4869a63649" y="242.6"/>
      </g>
     </g>
    </g>
    <g id="xtick_30">
     <g id="line2d_30">
      <g>
       <use style="stroke:#000000;stroke-width:0.6;" x="359.445076" xlink:href="#m4869a63649" y="242.6"/>
      </g>
     </g>
    </g>
    <g id="xtick_31">
     <g id="line2d_31">
      <g>
       <use style="stroke:#000000;stroke-width:0.6;" x="382.742045" xlink:href="#m4869a63649" y="242.6"/>
      </g>
     </g>
    </g>
    <g id="xtick_32">
     <g id="line2d_32">
      <g>
       <use style="stroke:#000000;stroke-width:0.6;" x="394.39053" xlink:href="#m4869a63649" y="242.6"/>
      </g>
     </g>
    </g>
    <g id="xtick_33">
     <g id="line2d_33">
      <g>
       <use style="stroke:#000000;stroke-width:0.6;" x="406.039015" xlink:href="#m4869a63649" y="242.6"/>
      </g>
     </g>
    </g>
    <g id="xtick_34">
     <g id="line2d_34">
      <g>
       <use style="stroke:#000000;stroke-width:0.6;" x="417.6875" xlink:href="#m4869a63649" y="242.6"/>
      </g>
     </g>
    </g>
    <g id="text_7">
     <!-- DATE -->
     <defs>
      <path d="M 19.671875 64.796875 
L 19.671875 8.109375 
L 31.59375 8.109375 
Q 46.6875 8.109375 53.6875 14.9375 
Q 60.6875 21.78125 60.6875 36.53125 
Q 60.6875 51.171875 53.6875 57.984375 
Q 46.6875 64.796875 31.59375 64.796875 
z
M 9.8125 72.90625 
L 30.078125 72.90625 
Q 51.265625 72.90625 61.171875 64.09375 
Q 71.09375 55.28125 71.09375 36.53125 
Q 71.09375 17.671875 61.125 8.828125 
Q 51.171875 0 30.078125 0 
L 9.8125 0 
z
" id="DejaVuSans-68"/>
      <path d="M 34.1875 63.1875 
L 20.796875 26.90625 
L 47.609375 26.90625 
z
M 28.609375 72.90625 
L 39.796875 72.90625 
L 67.578125 0 
L 57.328125 0 
L 50.6875 18.703125 
L 17.828125 18.703125 
L 11.1875 0 
L 0.78125 0 
z
" id="DejaVuSans-65"/>
      <path d="M -0.296875 72.90625 
L 61.375 72.90625 
L 61.375 64.59375 
L 35.5 64.59375 
L 35.5 0 
L 25.59375 0 
L 25.59375 64.59375 
L -0.296875 64.59375 
z
" id="DejaVuSans-84"/>
      <path d="M 9.8125 72.90625 
L 55.90625 72.90625 
L 55.90625 64.59375 
L 19.671875 64.59375 
L 19.671875 43.015625 
L 54.390625 43.015625 
L 54.390625 34.71875 
L 19.671875 34.71875 
L 19.671875 8.296875 
L 56.78125 8.296875 
L 56.78125 0 
L 9.8125 0 
z
" id="DejaVuSans-69"/>
     </defs>
     <g transform="translate(212.478906 270.876562)scale(0.1 -0.1)">
      <use xlink:href="#DejaVuSans-68"/>
      <use x="75.251953" xlink:href="#DejaVuSans-65"/>
      <use x="135.910156" xlink:href="#DejaVuSans-84"/>
      <use x="196.994141" xlink:href="#DejaVuSans-69"/>
     </g>
    </g>
   </g>
   <g id="matplotlib.axis_2">
    <g id="ytick_1">
     <g id="line2d_35">
      <defs>
       <path d="M 0 0 
L -3.5 0 
" id="ma870b26283" style="stroke:#000000;stroke-width:0.8;"/>
      </defs>
      <g>
       <use style="stroke:#000000;stroke-width:0.8;" x="33.2875" xlink:href="#ma870b26283" y="218.368178"/>
      </g>
     </g>
     <g id="text_8">
      <!-- 60 -->
      <defs>
       <path d="M 33.015625 40.375 
Q 26.375 40.375 22.484375 35.828125 
Q 18.609375 31.296875 18.609375 23.390625 
Q 18.609375 15.53125 22.484375 10.953125 
Q 26.375 6.390625 33.015625 6.390625 
Q 39.65625 6.390625 43.53125 10.953125 
Q 47.40625 15.53125 47.40625 23.390625 
Q 47.40625 31.296875 43.53125 35.828125 
Q 39.65625 40.375 33.015625 40.375 
z
M 52.59375 71.296875 
L 52.59375 62.3125 
Q 48.875 64.0625 45.09375 64.984375 
Q 41.3125 65.921875 37.59375 65.921875 
Q 27.828125 65.921875 22.671875 59.328125 
Q 17.53125 52.734375 16.796875 39.40625 
Q 19.671875 43.65625 24.015625 45.921875 
Q 28.375 48.1875 33.59375 48.1875 
Q 44.578125 48.1875 50.953125 41.515625 
Q 57.328125 34.859375 57.328125 23.390625 
Q 57.328125 12.15625 50.6875 5.359375 
Q 44.046875 -1.421875 33.015625 -1.421875 
Q 20.359375 -1.421875 13.671875 8.265625 
Q 6.984375 17.96875 6.984375 36.375 
Q 6.984375 53.65625 15.1875 63.9375 
Q 23.390625 74.21875 37.203125 74.21875 
Q 40.921875 74.21875 44.703125 73.484375 
Q 48.484375 72.75 52.59375 71.296875 
z
" id="DejaVuSans-54"/>
      </defs>
      <g transform="translate(13.5625 222.167397)scale(0.1 -0.1)">
       <use xlink:href="#DejaVuSans-54"/>
       <use x="63.623047" xlink:href="#DejaVuSans-48"/>
      </g>
     </g>
    </g>
    <g id="ytick_2">
     <g id="line2d_36">
      <g>
       <use style="stroke:#000000;stroke-width:0.8;" x="33.2875" xlink:href="#ma870b26283" y="189.484271"/>
      </g>
     </g>
     <g id="text_9">
      <!-- 70 -->
      <defs>
       <path d="M 8.203125 72.90625 
L 55.078125 72.90625 
L 55.078125 68.703125 
L 28.609375 0 
L 18.3125 0 
L 43.21875 64.59375 
L 8.203125 64.59375 
z
" id="DejaVuSans-55"/>
      </defs>
      <g transform="translate(13.5625 193.28349)scale(0.1 -0.1)">
       <use xlink:href="#DejaVuSans-55"/>
       <use x="63.623047" xlink:href="#DejaVuSans-48"/>
      </g>
     </g>
    </g>
    <g id="ytick_3">
     <g id="line2d_37">
      <g>
       <use style="stroke:#000000;stroke-width:0.8;" x="33.2875" xlink:href="#ma870b26283" y="160.600365"/>
      </g>
     </g>
     <g id="text_10">
      <!-- 80 -->
      <g transform="translate(13.5625 164.399583)scale(0.1 -0.1)">
       <use xlink:href="#DejaVuSans-56"/>
       <use x="63.623047" xlink:href="#DejaVuSans-48"/>
      </g>
     </g>
    </g>
    <g id="ytick_4">
     <g id="line2d_38">
      <g>
       <use style="stroke:#000000;stroke-width:0.8;" x="33.2875" xlink:href="#ma870b26283" y="131.716458"/>
      </g>
     </g>
     <g id="text_11">
      <!-- 90 -->
      <g transform="translate(13.5625 135.515676)scale(0.1 -0.1)">
       <use xlink:href="#DejaVuSans-57"/>
       <use x="63.623047" xlink:href="#DejaVuSans-48"/>
      </g>
     </g>
    </g>
    <g id="ytick_5">
     <g id="line2d_39">
      <g>
       <use style="stroke:#000000;stroke-width:0.8;" x="33.2875" xlink:href="#ma870b26283" y="102.832551"/>
      </g>
     </g>
     <g id="text_12">
      <!-- 100 -->
      <g transform="translate(7.2 106.631769)scale(0.1 -0.1)">
       <use xlink:href="#DejaVuSans-49"/>
       <use x="63.623047" xlink:href="#DejaVuSans-48"/>
       <use x="127.246094" xlink:href="#DejaVuSans-48"/>
      </g>
     </g>
    </g>
    <g id="ytick_6">
     <g id="line2d_40">
      <g>
       <use style="stroke:#000000;stroke-width:0.8;" x="33.2875" xlink:href="#ma870b26283" y="73.948644"/>
      </g>
     </g>
     <g id="text_13">
      <!-- 110 -->
      <g transform="translate(7.2 77.747862)scale(0.1 -0.1)">
       <use xlink:href="#DejaVuSans-49"/>
       <use x="63.623047" xlink:href="#DejaVuSans-49"/>
       <use x="127.246094" xlink:href="#DejaVuSans-48"/>
      </g>
     </g>
    </g>
    <g id="ytick_7">
     <g id="line2d_41">
      <g>
       <use style="stroke:#000000;stroke-width:0.8;" x="33.2875" xlink:href="#ma870b26283" y="45.064737"/>
      </g>
     </g>
     <g id="text_14">
      <!-- 120 -->
      <g transform="translate(7.2 48.863956)scale(0.1 -0.1)">
       <use xlink:href="#DejaVuSans-49"/>
       <use x="63.623047" xlink:href="#DejaVuSans-50"/>
       <use x="127.246094" xlink:href="#DejaVuSans-48"/>
      </g>
     </g>
    </g>
    <g id="ytick_8">
     <g id="line2d_42">
      <g>
       <use style="stroke:#000000;stroke-width:0.8;" x="33.2875" xlink:href="#ma870b26283" y="16.18083"/>
      </g>
     </g>
     <g id="text_15">
      <!-- 130 -->
      <defs>
       <path d="M 40.578125 39.3125 
Q 47.65625 37.796875 51.625 33 
Q 55.609375 28.21875 55.609375 21.1875 
Q 55.609375 10.40625 48.1875 4.484375 
Q 40.765625 -1.421875 27.09375 -1.421875 
Q 22.515625 -1.421875 17.65625 -0.515625 
Q 12.796875 0.390625 7.625 2.203125 
L 7.625 11.71875 
Q 11.71875 9.328125 16.59375 8.109375 
Q 21.484375 6.890625 26.8125 6.890625 
Q 36.078125 6.890625 40.9375 10.546875 
Q 45.796875 14.203125 45.796875 21.1875 
Q 45.796875 27.640625 41.28125 31.265625 
Q 36.765625 34.90625 28.71875 34.90625 
L 20.21875 34.90625 
L 20.21875 43.015625 
L 29.109375 43.015625 
Q 36.375 43.015625 40.234375 45.921875 
Q 44.09375 48.828125 44.09375 54.296875 
Q 44.09375 59.90625 40.109375 62.90625 
Q 36.140625 65.921875 28.71875 65.921875 
Q 24.65625 65.921875 20.015625 65.03125 
Q 15.375 64.15625 9.8125 62.3125 
L 9.8125 71.09375 
Q 15.4375 72.65625 20.34375 73.4375 
Q 25.25 74.21875 29.59375 74.21875 
Q 40.828125 74.21875 47.359375 69.109375 
Q 53.90625 64.015625 53.90625 55.328125 
Q 53.90625 49.265625 50.4375 45.09375 
Q 46.96875 40.921875 40.578125 39.3125 
z
" id="DejaVuSans-51"/>
      </defs>
      <g transform="translate(7.2 19.980049)scale(0.1 -0.1)">
       <use xlink:href="#DejaVuSans-49"/>
       <use x="63.623047" xlink:href="#DejaVuSans-51"/>
       <use x="127.246094" xlink:href="#DejaVuSans-48"/>
      </g>
     </g>
    </g>
   </g>
   <g id="line2d_43">
    <path clip-path="url(#pb9ec881040)" d="M 33.2875 182.248275 
L 34.258207 187.543273 
L 35.228914 211.291044 
L 36.199621 225.671763 
L 37.170328 231.9 
L 38.141035 223.883849 
L 39.111742 210.800017 
L 40.082449 208.985241 
L 41.053157 216.679625 
L 42.023864 229.010743 
L 42.994571 224.143516 
L 43.965278 193.197298 
L 44.935985 179.936118 
L 47.848106 226.938322 
L 48.818813 230.459848 
L 49.78952 218.655573 
L 50.760227 201.715162 
L 51.730934 205.423567 
L 53.672348 225.496149 
L 54.643056 220.269606 
L 55.613763 194.869965 
L 56.58447 178.464483 
L 57.555177 189.305191 
L 58.525884 202.164307 
L 59.496591 217.91008 
L 60.467298 221.622239 
L 62.408712 192.749886 
L 63.379419 189.291038 
L 64.350126 206.482162 
L 65.320833 217.273767 
L 66.29154 211.250317 
L 67.262247 187.815648 
L 68.232955 160.974989 
L 69.203662 171.68543 
L 70.174369 188.638551 
L 71.145076 209.014414 
L 72.115783 214.305657 
L 74.057197 180.872246 
L 75.027904 172.831255 
L 75.998611 196.661345 
L 76.969318 208.885014 
L 77.940025 203.614856 
L 78.910732 178.326129 
L 79.881439 166.611683 
L 80.852146 170.183467 
L 81.822854 179.801519 
L 82.793561 203.61399 
L 83.764268 207.712327 
L 84.734975 193.897155 
L 85.705682 177.843768 
L 86.676389 174.912918 
L 87.647096 191.490837 
L 88.617803 201.403216 
L 89.58851 192.168742 
L 90.559217 148.483854 
L 91.529924 148.007559 
L 92.500631 168.767 
L 93.471338 180.251819 
L 94.442045 197.346182 
L 95.412753 201.552545 
L 97.354167 170.380455 
L 98.324874 168.961678 
L 99.295581 180.642908 
L 100.266288 196.888661 
L 101.236995 193.62478 
L 103.178409 143.208209 
L 104.149116 167.655837 
L 105.119823 179.764837 
L 106.09053 197.716185 
L 107.061237 192.903548 
L 108.031944 175.490596 
L 109.002652 160.332322 
L 109.973359 163.02488 
L 110.944066 179.160297 
L 111.914773 193.083784 
L 112.88548 182.215347 
L 113.856187 162.075177 
L 114.826894 145.333776 
L 117.739015 190.51225 
L 118.709722 197.634155 
L 119.680429 185.995673 
L 120.651136 167.797945 
L 121.621843 170.601706 
L 122.592551 182.684711 
L 123.563258 192.290054 
L 124.533965 179.377215 
L 125.504672 147.556681 
L 126.475379 137.648057 
L 127.446086 147.440568 
L 128.416793 162.117636 
L 129.3875 186.428932 
L 130.358207 196.196314 
L 131.328914 176.978406 
L 132.299621 154.52088 
L 133.270328 154.648836 
L 134.241035 176.18872 
L 135.211742 190.405668 
L 136.182449 176.691011 
L 138.123864 119.762564 
L 139.094571 139.917465 
L 141.035985 186.668379 
L 142.006692 191.262365 
L 142.977399 166.42596 
L 143.948106 151.135108 
L 144.918813 155.149394 
L 145.88952 173.070703 
L 146.860227 185.82728 
L 147.830934 174.332352 
L 148.801641 146.69363 
L 149.772348 124.630658 
L 150.743056 139.216742 
L 151.713763 156.943373 
L 152.68447 178.460151 
L 153.655177 180.044433 
L 154.625884 165.503119 
L 155.596591 143.315946 
L 156.567298 133.025765 
L 157.538005 164.922841 
L 158.508712 178.778163 
L 159.479419 161.598881 
L 160.450126 129.333246 
L 161.420833 105.79835 
L 163.362247 140.567642 
L 164.332955 168.626047 
L 165.303662 170.182312 
L 166.274369 155.024037 
L 167.245076 143.383823 
L 168.215783 141.663497 
L 169.18649 162.934473 
L 170.157197 175.940319 
L 171.127904 157.498233 
L 172.098611 130.314144 
L 173.069318 107.276917 
L 174.040025 132.353348 
L 175.981439 171.727601 
L 176.952146 178.372344 
L 177.922854 161.280581 
L 178.893561 136.187975 
L 179.864268 138.120597 
L 180.834975 155.00093 
L 181.805682 167.813543 
L 182.776389 154.694183 
L 183.747096 125.647949 
L 184.717803 117.875289 
L 185.68851 138.013149 
L 186.659217 141.667252 
L 187.629924 169.981569 
L 188.600631 166.289628 
L 189.571338 141.947426 
L 190.542045 120.631103 
L 191.512753 121.51755 
L 192.48346 138.817855 
L 193.454167 160.333477 
L 194.424874 156.455813 
L 196.366288 96.666414 
L 197.336995 128.29978 
L 198.307702 129.584536 
L 199.278409 159.105334 
L 200.249116 162.366038 
L 201.219823 137.946428 
L 202.19053 110.081545 
L 203.161237 113.185409 
L 204.131944 139.732319 
L 205.102652 158.749195 
L 206.073359 154.238684 
L 207.044066 118.686061 
L 208.014773 96.391151 
L 208.98548 119.299555 
L 210.926894 156.433861 
L 211.897601 147.732006 
L 212.868308 128.710798 
L 213.839015 114.398534 
L 214.809722 104.651081 
L 216.751136 151.528507 
L 217.721843 137.374815 
L 218.692551 95.739241 
L 219.663258 76.524799 
L 220.633965 111.001786 
L 221.604672 123.547222 
L 222.575379 152.180706 
L 223.546086 153.245078 
L 224.516793 130.574099 
L 225.4875 114.172373 
L 226.458207 104.122506 
L 227.428914 136.681601 
L 228.399621 152.842147 
L 229.370328 152.131892 
L 231.311742 94.180376 
L 232.282449 116.675163 
L 233.253157 122.313013 
L 234.223864 143.86214 
L 235.194571 145.47935 
L 236.165278 122.503647 
L 237.135985 95.920632 
L 238.106692 98.126496 
L 239.077399 122.159062 
L 240.048106 140.669891 
L 241.018813 135.832703 
L 241.98952 100.520972 
L 242.960227 73.426712 
L 243.930934 91.737376 
L 245.872348 145.979331 
L 246.843056 144.814443 
L 247.813763 128.60826 
L 248.78447 96.420323 
L 249.755177 89.926643 
L 250.725884 123.301131 
L 251.696591 141.81225 
L 252.667298 135.836747 
L 253.638005 92.59956 
L 254.608712 63.196321 
L 255.579419 85.042952 
L 256.550126 116.110772 
L 257.520833 141.180847 
L 258.49154 134.517619 
L 260.432955 97.648467 
L 261.403662 102.247652 
L 263.345076 138.861759 
L 264.315783 132.830221 
L 265.28649 86.292759 
L 266.257197 70.594067 
L 267.227904 97.692659 
L 268.198611 105.846586 
L 269.169318 141.890525 
L 270.140025 139.736363 
L 271.110732 104.254794 
L 272.081439 78.7142 
L 273.052146 75.432699 
L 274.993561 132.419203 
L 275.964268 130.391553 
L 276.934975 79.073515 
L 277.905682 89.914512 
L 279.847096 107.449066 
L 280.817803 138.910572 
L 281.78851 131.652335 
L 283.729924 71.203806 
L 284.700631 69.560601 
L 285.671338 115.070084 
L 286.642045 130.636777 
L 287.612753 124.909676 
L 288.58346 93.976745 
L 289.554167 68.005491 
L 290.524874 68.634294 
L 291.495581 105.164926 
L 292.466288 129.354621 
L 293.436995 125.770128 
L 294.407702 100.037744 
L 296.349116 62.095844 
L 297.319823 98.408691 
L 298.29053 123.031644 
L 299.261237 120.41534 
L 300.231944 83.327826 
L 301.202652 59.988763 
L 302.173359 79.045787 
L 303.144066 101.565703 
L 304.114773 128.844242 
L 305.08548 128.149873 
L 306.056187 91.400011 
L 307.026894 71.744513 
L 307.997601 80.977542 
L 308.968308 109.422992 
L 309.939015 128.834133 
L 310.909722 120.724109 
L 311.880429 75.617845 
L 312.851136 54.216314 
L 313.821843 90.065286 
L 314.792551 109.034214 
L 315.763258 136.92336 
L 316.733965 138.831719 
L 317.704672 110.808264 
L 318.675379 91.542987 
L 319.646086 86.228348 
L 320.616793 117.614468 
L 321.5875 133.744974 
L 322.558207 133.56936 
L 323.528914 71.971829 
L 324.499621 47.90518 
L 325.470328 72.409131 
L 327.411742 142.403503 
L 328.382449 129.300608 
L 329.353157 90.257075 
L 330.323864 65.842086 
L 331.294571 65.568267 
L 332.265278 102.483344 
L 333.235985 134.821189 
L 334.206692 123.701173 
L 335.177399 61.451733 
L 336.148106 46.543593 
L 337.118813 81.529803 
L 338.08952 105.424015 
L 339.060227 133.569938 
L 340.030934 131.514848 
L 341.972348 60.353566 
L 342.943056 63.562568 
L 343.913763 104.359932 
L 344.88447 130.686457 
L 345.855177 120.713133 
L 346.825884 81.657181 
L 347.796591 68.274111 
L 348.767298 93.10474 
L 349.738005 121.384106 
L 350.708712 138.773951 
L 351.679419 123.743633 
L 352.650126 99.539785 
L 353.620833 65.180356 
L 354.59154 74.35273 
L 355.562247 112.23975 
L 356.532955 130.617425 
L 357.503662 119.175932 
L 359.445076 58.059607 
L 360.415783 83.382128 
L 361.38649 94.182398 
L 362.357197 128.801494 
L 363.327904 128.933782 
L 365.269318 73.521162 
L 366.240025 79.218224 
L 367.210732 104.909592 
L 368.181439 126.554615 
L 369.152146 110.673665 
L 370.122854 63.916685 
L 371.093561 32.774923 
L 372.064268 65.626901 
L 373.034975 89.074857 
L 374.005682 130.888356 
L 374.976389 125.552632 
L 375.947096 97.408153 
L 376.917803 78.137677 
L 377.88851 79.165077 
L 379.829924 124.831401 
L 380.800631 103.689536 
L 381.771338 75.832741 
L 382.742045 44.286027 
L 383.712753 55.524177 
L 384.68346 89.919711 
L 385.654167 132.44982 
L 386.624874 128.559447 
L 387.595581 95.17976 
L 388.566288 69.22497 
L 389.536995 72.237272 
L 390.507702 97.285685 
L 391.478409 127.106875 
L 392.449116 122.869895 
L 393.419823 93.531066 
L 394.39053 53.488151 
L 396.331944 116.249703 
L 397.302652 133.664966 
L 398.273359 129.588003 
L 399.244066 91.170673 
L 400.214773 60.836217 
L 401.18548 58.01657 
L 402.156187 94.849905 
L 403.126894 127.422287 
L 404.097601 123.369009 
L 405.068308 65.949535 
L 406.039015 59.938505 
L 407.009722 104.305341 
L 407.980429 99.82978 
L 408.951136 136.473637 
L 409.921843 125.707161 
L 411.863258 67.727628 
L 412.833965 77.035756 
L 413.804672 106.831816 
L 414.775379 121.27868 
L 415.746086 110.527512 
L 416.716793 60.311974 
L 417.6875 17.9 
L 417.6875 17.9 
" style="fill:none;stroke:#1f77b4;stroke-linecap:square;stroke-width:1.5;"/>
   </g>
   <g id="line2d_44">
    <path clip-path="url(#pb9ec881040)" d="M 43.965278 212.112887 
L 44.935985 211.920207 
L 45.906692 212.566509 
L 47.848106 212.726959 
L 48.818813 212.606946 
L 49.78952 212.171257 
L 50.760227 211.414185 
L 51.730934 211.117379 
L 52.701641 211.017272 
L 54.643056 210.401564 
L 55.613763 210.540953 
L 56.58447 210.418316 
L 57.555177 209.918841 
L 62.408712 205.906746 
L 63.379419 204.562369 
L 66.29154 202.375881 
L 67.262247 201.788022 
L 69.203662 198.86225 
L 70.174369 197.735104 
L 73.08649 195.609537 
L 74.057197 194.619734 
L 75.027904 193.248085 
L 76.969318 191.730621 
L 77.940025 191.094333 
L 78.910732 190.303539 
L 79.881439 190.773264 
L 80.852146 190.6481 
L 81.822854 189.911681 
L 84.734975 188.584249 
L 85.705682 188.331876 
L 86.676389 188.505348 
L 87.647096 188.074472 
L 88.617803 187.450989 
L 89.58851 186.497146 
L 90.559217 184.01029 
L 91.529924 182.459946 
L 92.500631 182.341907 
L 93.471338 182.379432 
L 95.412753 181.3438 
L 97.354167 180.001396 
L 98.324874 179.505459 
L 99.295581 178.601465 
L 100.266288 178.225252 
L 101.236995 178.346589 
L 102.207702 179.913781 
L 103.178409 179.513836 
L 105.119823 179.380657 
L 106.09053 179.41149 
L 108.031944 177.877322 
L 109.002652 177.039977 
L 109.973359 176.545244 
L 110.944066 176.421693 
L 111.914773 176.10462 
L 112.88548 175.153834 
L 113.856187 174.719252 
L 114.826894 174.896382 
L 115.797601 174.268879 
L 116.768308 173.989066 
L 117.739015 173.388738 
L 118.709722 173.782956 
L 119.680429 174.658379 
L 121.621843 175.911916 
L 122.592551 176.205617 
L 123.563258 176.139473 
L 124.533965 175.902962 
L 125.504672 174.693088 
L 126.475379 174.052611 
L 128.416793 171.804721 
L 129.3875 171.464444 
L 130.358207 171.344624 
L 131.328914 170.593185 
L 132.299621 169.486763 
L 133.270328 168.157357 
L 134.241035 167.616025 
L 136.182449 167.235142 
L 137.153157 167.304343 
L 138.123864 165.813886 
L 139.094571 165.18696 
L 141.035985 165.262059 
L 142.006692 164.850896 
L 142.977399 163.971526 
L 143.948106 163.689378 
L 144.918813 163.731091 
L 145.88952 163.471256 
L 146.860227 163.089724 
L 148.801641 162.752047 
L 149.772348 163.157722 
L 150.743056 163.099328 
L 151.713763 162.612995 
L 152.68447 161.928976 
L 153.655177 160.994148 
L 154.625884 160.917245 
L 155.596591 160.265648 
L 156.567298 158.422013 
L 158.508712 157.155598 
L 159.479419 156.094475 
L 163.362247 150.393538 
L 166.274369 147.878929 
L 167.245076 147.884586 
L 168.215783 148.604397 
L 170.157197 148.202212 
L 171.127904 147.860492 
L 173.069318 148.065447 
L 174.040025 148.813733 
L 175.010732 149.75802 
L 175.981439 150.016483 
L 176.952146 150.698985 
L 177.922854 151.220364 
L 178.893561 150.62071 
L 179.864268 150.325468 
L 181.805682 148.987108 
L 182.776389 148.753438 
L 183.747096 148.364588 
L 184.717803 149.247786 
L 185.68851 149.719436 
L 186.659217 148.866783 
L 187.629924 148.72128 
L 188.600631 147.714387 
L 189.571338 146.103291 
L 192.48346 142.074708 
L 193.454167 141.451369 
L 195.395581 141.698519 
L 196.366288 139.931113 
L 197.336995 139.121666 
L 199.278409 137.20842 
L 201.219823 136.548037 
L 202.19053 135.668907 
L 203.161237 134.974562 
L 204.131944 135.050768 
L 206.073359 134.733983 
L 207.044066 134.053479 
L 208.014773 134.03054 
L 208.98548 133.280521 
L 209.956187 133.917267 
L 210.926894 133.694644 
L 211.897601 132.475142 
L 212.868308 131.705506 
L 213.839015 132.065255 
L 214.809722 131.354061 
L 215.780429 130.465159 
L 216.751136 129.863435 
L 217.721843 128.458112 
L 218.692551 126.545877 
L 219.663258 124.890348 
L 220.633965 124.198867 
L 221.604672 123.059012 
L 222.575379 122.704582 
L 223.546086 123.164005 
L 224.516793 123.31928 
L 226.458207 123.256385 
L 227.428914 123.891061 
L 228.399621 124.000531 
L 229.370328 125.230287 
L 230.341035 127.497121 
L 231.311742 128.968419 
L 232.282449 129.4412 
L 233.253157 129.338349 
L 236.165278 127.325454 
L 237.135985 125.804475 
L 238.106692 125.304808 
L 239.077399 124.094596 
L 240.048106 123.080242 
L 241.018813 121.721976 
L 243.930934 116.045999 
L 244.901641 115.733668 
L 245.872348 115.910101 
L 246.843056 115.854692 
L 247.813763 116.363409 
L 248.78447 116.40505 
L 249.755177 115.721729 
L 252.667298 115.912435 
L 253.638005 115.252318 
L 254.608712 114.399785 
L 255.579419 113.841917 
L 256.550126 113.637394 
L 257.520833 113.237521 
L 258.49154 112.379452 
L 259.462247 111.31354 
L 260.432955 111.415885 
L 261.403662 112.442636 
L 264.315783 111.678921 
L 265.28649 111.153354 
L 266.257197 111.769833 
L 267.227904 112.823975 
L 268.198611 111.968627 
L 269.169318 112.027767 
L 270.140025 112.462662 
L 271.110732 111.499119 
L 272.081439 109.921263 
L 273.052146 107.686684 
L 274.022854 106.461164 
L 274.993561 105.924284 
L 275.964268 105.721062 
L 276.934975 105.119458 
L 277.905682 106.729495 
L 279.847096 106.925593 
L 280.817803 106.677263 
L 281.78851 106.003594 
L 282.759217 105.758852 
L 283.729924 105.132985 
L 284.700631 104.643644 
L 285.671338 105.45054 
L 286.642045 105.302004 
L 287.612753 104.845181 
L 288.58346 106.087117 
L 289.554167 104.261365 
L 290.524874 101.777277 
L 291.495581 101.586932 
L 292.466288 100.790603 
L 293.436995 100.300419 
L 294.407702 100.193741 
L 295.378409 101.007714 
L 296.349116 100.385651 
L 297.319823 98.997201 
L 298.29053 98.36344 
L 299.261237 97.988912 
L 300.231944 97.101502 
L 301.202652 96.433441 
L 302.173359 97.301066 
L 303.144066 97.001131 
L 304.114773 96.958599 
L 305.08548 97.156911 
L 307.026894 95.668186 
L 307.997601 97.241661 
L 308.968308 98.15952 
L 309.939015 98.64306 
L 310.909722 98.668791 
L 311.880429 98.026293 
L 312.851136 97.545255 
L 313.821843 98.463547 
L 315.763258 99.759183 
L 316.733965 100.649337 
L 318.675379 103.916564 
L 319.646086 104.354131 
L 320.616793 105.036754 
L 321.5875 105.445991 
L 322.558207 106.516428 
L 323.528914 106.212594 
L 324.499621 105.686666 
L 325.470328 104.21532 
L 326.441035 104.115598 
L 327.411742 104.572277 
L 328.382449 103.778017 
L 329.353157 102.065418 
L 330.323864 99.923676 
L 331.294571 98.202003 
L 332.265278 96.941076 
L 333.235985 97.030761 
L 335.177399 95.331737 
L 336.148106 95.218271 
L 337.118813 95.978327 
L 338.08952 95.777199 
L 339.060227 95.041069 
L 340.030934 95.225589 
L 341.001641 95.594677 
L 341.972348 95.1373 
L 342.943056 94.970159 
L 343.913763 95.126541 
L 345.855177 94.532977 
L 347.796591 98.027641 
L 348.767298 98.992219 
L 349.738005 100.322226 
L 350.708712 100.755894 
L 351.679419 100.108293 
L 353.620833 100.914996 
L 354.59154 101.814176 
L 355.562247 102.470828 
L 356.532955 102.465075 
L 357.503662 102.336975 
L 358.474369 102.832575 
L 360.415783 101.171148 
L 361.38649 98.904339 
L 362.357197 98.073301 
L 363.327904 98.505814 
L 364.298611 98.612756 
L 365.269318 99.307823 
L 366.240025 99.713281 
L 367.210732 99.102435 
L 368.181439 98.763867 
L 369.152146 98.055345 
L 371.093561 93.974314 
L 372.064268 92.494712 
L 373.034975 92.069083 
L 374.005682 92.242988 
L 375.947096 91.676647 
L 376.917803 92.061357 
L 377.88851 92.056928 
L 378.859217 91.783421 
L 379.829924 91.63982 
L 380.800631 91.057809 
L 382.742045 93.010073 
L 383.712753 92.168179 
L 385.654167 92.368706 
L 386.624874 92.619273 
L 387.595581 92.433574 
L 388.566288 91.690848 
L 389.536995 91.113531 
L 390.507702 90.751712 
L 391.478409 90.941335 
L 393.419823 94.014559 
L 394.39053 94.781402 
L 396.331944 99.312758 
L 398.273359 99.499733 
L 399.244066 99.165642 
L 400.214773 98.46658 
L 401.18548 97.281521 
L 402.156187 97.078539 
L 404.097601 97.146417 
L 405.068308 94.847956 
L 406.039015 95.385485 
L 407.009722 97.113393 
L 407.980429 95.745066 
L 408.951136 95.979122 
L 409.921843 95.655718 
L 411.863258 96.683552 
L 412.833965 98.268484 
L 413.804672 99.266977 
L 414.775379 98.75501 
L 415.746086 97.684885 
L 416.716793 97.215088 
L 417.6875 93.711879 
L 417.6875 93.711879 
" style="fill:none;stroke:#ff0000;stroke-linecap:square;stroke-width:1.5;"/>
   </g>
   <g id="patch_3">
    <path d="M 33.2875 242.6 
L 33.2875 7.2 
" style="fill:none;stroke:#000000;stroke-linecap:square;stroke-linejoin:miter;stroke-width:0.8;"/>
   </g>
   <g id="patch_4">
    <path d="M 417.6875 242.6 
L 417.6875 7.2 
" style="fill:none;stroke:#000000;stroke-linecap:square;stroke-linejoin:miter;stroke-width:0.8;"/>
   </g>
   <g id="patch_5">
    <path d="M 33.2875 242.6 
L 417.6875 242.6 
" style="fill:none;stroke:#000000;stroke-linecap:square;stroke-linejoin:miter;stroke-width:0.8;"/>
   </g>
   <g id="patch_6">
    <path d="M 33.2875 7.2 
L 417.6875 7.2 
" style="fill:none;stroke:#000000;stroke-linecap:square;stroke-linejoin:miter;stroke-width:0.8;"/>
   </g>
  </g>
 </g>
 <defs>
  <clipPath id="pb9ec881040">
   <rect height="235.4" width="384.4" x="33.2875" y="7.2"/>
  </clipPath>
 </defs>
</svg>
