<?xml version="1.0" encoding="utf-8" standalone="no"?>
<!DOCTYPE svg PUBLIC "-//W3C//DTD SVG 1.1//EN"
  "http://www.w3.org/Graphics/SVG/1.1/DTD/svg11.dtd">
<!-- Created with matplotlib (https://matplotlib.org/) -->
<svg height="262.19625pt" version="1.1" viewBox="0 0 486.8875 262.19625" width="486.8875pt" xmlns="http://www.w3.org/2000/svg" xmlns:xlink="http://www.w3.org/1999/xlink">
 <defs>
  <style type="text/css">
*{stroke-linecap:butt;stroke-linejoin:round;}
  </style>
 </defs>
 <g id="figure_1">
  <g id="patch_1">
   <path d="M 0 262.19625 
L 486.8875 262.19625 
L 486.8875 0 
L 0 0 
z
" style="fill:none;"/>
  </g>
  <g id="axes_1">
   <g id="patch_2">
    <path d="M 33.2875 224.64 
L 479.6875 224.64 
L 479.6875 7.2 
L 33.2875 7.2 
z
" style="fill:#ffffff;"/>
   </g>
   <g id="matplotlib.axis_1">
    <g id="xtick_1">
     <g id="line2d_1">
      <defs>
       <path d="M 0 0 
L 0 3.5 
" id="m5d01af7517" style="stroke:#000000;stroke-width:0.8;"/>
      </defs>
      <g>
       <use style="stroke:#000000;stroke-width:0.8;" x="87.396591" xlink:href="#m5d01af7517" y="224.64"/>
      </g>
     </g>
     <g id="text_1">
      <!-- 1989 -->
      <defs>
       <path d="M 12.40625 8.296875 
L 28.515625 8.296875 
L 28.515625 63.921875 
L 10.984375 60.40625 
L 10.984375 69.390625 
L 28.421875 72.90625 
L 38.28125 72.90625 
L 38.28125 8.296875 
L 54.390625 8.296875 
L 54.390625 0 
L 12.40625 0 
z
" id="DejaVuSans-49"/>
       <path d="M 10.984375 1.515625 
L 10.984375 10.5 
Q 14.703125 8.734375 18.5 7.8125 
Q 22.3125 6.890625 25.984375 6.890625 
Q 35.75 6.890625 40.890625 13.453125 
Q 46.046875 20.015625 46.78125 33.40625 
Q 43.953125 29.203125 39.59375 26.953125 
Q 35.25 24.703125 29.984375 24.703125 
Q 19.046875 24.703125 12.671875 31.3125 
Q 6.296875 37.9375 6.296875 49.421875 
Q 6.296875 60.640625 12.9375 67.421875 
Q 19.578125 74.21875 30.609375 74.21875 
Q 43.265625 74.21875 49.921875 64.515625 
Q 56.59375 54.828125 56.59375 36.375 
Q 56.59375 19.140625 48.40625 8.859375 
Q 40.234375 -1.421875 26.421875 -1.421875 
Q 22.703125 -1.421875 18.890625 -0.6875 
Q 15.09375 0.046875 10.984375 1.515625 
z
M 30.609375 32.421875 
Q 37.25 32.421875 41.125 36.953125 
Q 45.015625 41.5 45.015625 49.421875 
Q 45.015625 57.28125 41.125 61.84375 
Q 37.25 66.40625 30.609375 66.40625 
Q 23.96875 66.40625 20.09375 61.84375 
Q 16.21875 57.28125 16.21875 49.421875 
Q 16.21875 41.5 20.09375 36.953125 
Q 23.96875 32.421875 30.609375 32.421875 
z
" id="DejaVuSans-57"/>
       <path d="M 31.78125 34.625 
Q 24.75 34.625 20.71875 30.859375 
Q 16.703125 27.09375 16.703125 20.515625 
Q 16.703125 13.921875 20.71875 10.15625 
Q 24.75 6.390625 31.78125 6.390625 
Q 38.8125 6.390625 42.859375 10.171875 
Q 46.921875 13.96875 46.921875 20.515625 
Q 46.921875 27.09375 42.890625 30.859375 
Q 38.875 34.625 31.78125 34.625 
z
M 21.921875 38.8125 
Q 15.578125 40.375 12.03125 44.71875 
Q 8.5 49.078125 8.5 55.328125 
Q 8.5 64.0625 14.71875 69.140625 
Q 20.953125 74.21875 31.78125 74.21875 
Q 42.671875 74.21875 48.875 69.140625 
Q 55.078125 64.0625 55.078125 55.328125 
Q 55.078125 49.078125 51.53125 44.71875 
Q 48 40.375 41.703125 38.8125 
Q 48.828125 37.15625 52.796875 32.3125 
Q 56.78125 27.484375 56.78125 20.515625 
Q 56.78125 9.90625 50.3125 4.234375 
Q 43.84375 -1.421875 31.78125 -1.421875 
Q 19.734375 -1.421875 13.25 4.234375 
Q 6.78125 9.90625 6.78125 20.515625 
Q 6.78125 27.484375 10.78125 32.3125 
Q 14.796875 37.15625 21.921875 38.8125 
z
M 18.3125 54.390625 
Q 18.3125 48.734375 21.84375 45.5625 
Q 25.390625 42.390625 31.78125 42.390625 
Q 38.140625 42.390625 41.71875 45.5625 
Q 45.3125 48.734375 45.3125 54.390625 
Q 45.3125 60.0625 41.71875 63.234375 
Q 38.140625 66.40625 31.78125 66.40625 
Q 25.390625 66.40625 21.84375 63.234375 
Q 18.3125 60.0625 18.3125 54.390625 
z
" id="DejaVuSans-56"/>
      </defs>
      <g transform="translate(74.671591 239.238437)scale(0.1 -0.1)">
       <use xlink:href="#DejaVuSans-49"/>
       <use x="63.623047" xlink:href="#DejaVuSans-57"/>
       <use x="127.246094" xlink:href="#DejaVuSans-56"/>
       <use x="190.869141" xlink:href="#DejaVuSans-57"/>
      </g>
     </g>
    </g>
    <g id="xtick_2">
     <g id="line2d_2">
      <g>
       <use style="stroke:#000000;stroke-width:0.8;" x="155.032955" xlink:href="#m5d01af7517" y="224.64"/>
      </g>
     </g>
     <g id="text_2">
      <!-- 1994 -->
      <defs>
       <path d="M 37.796875 64.3125 
L 12.890625 25.390625 
L 37.796875 25.390625 
z
M 35.203125 72.90625 
L 47.609375 72.90625 
L 47.609375 25.390625 
L 58.015625 25.390625 
L 58.015625 17.1875 
L 47.609375 17.1875 
L 47.609375 0 
L 37.796875 0 
L 37.796875 17.1875 
L 4.890625 17.1875 
L 4.890625 26.703125 
z
" id="DejaVuSans-52"/>
      </defs>
      <g transform="translate(142.307955 239.238437)scale(0.1 -0.1)">
       <use xlink:href="#DejaVuSans-49"/>
       <use x="63.623047" xlink:href="#DejaVuSans-57"/>
       <use x="127.246094" xlink:href="#DejaVuSans-57"/>
       <use x="190.869141" xlink:href="#DejaVuSans-52"/>
      </g>
     </g>
    </g>
    <g id="xtick_3">
     <g id="line2d_3">
      <g>
       <use style="stroke:#000000;stroke-width:0.8;" x="222.669318" xlink:href="#m5d01af7517" y="224.64"/>
      </g>
     </g>
     <g id="text_3">
      <!-- 1999 -->
      <g transform="translate(209.944318 239.238437)scale(0.1 -0.1)">
       <use xlink:href="#DejaVuSans-49"/>
       <use x="63.623047" xlink:href="#DejaVuSans-57"/>
       <use x="127.246094" xlink:href="#DejaVuSans-57"/>
       <use x="190.869141" xlink:href="#DejaVuSans-57"/>
      </g>
     </g>
    </g>
    <g id="xtick_4">
     <g id="line2d_4">
      <g>
       <use style="stroke:#000000;stroke-width:0.8;" x="290.305682" xlink:href="#m5d01af7517" y="224.64"/>
      </g>
     </g>
     <g id="text_4">
      <!-- 2004 -->
      <defs>
       <path d="M 19.1875 8.296875 
L 53.609375 8.296875 
L 53.609375 0 
L 7.328125 0 
L 7.328125 8.296875 
Q 12.9375 14.109375 22.625 23.890625 
Q 32.328125 33.6875 34.8125 36.53125 
Q 39.546875 41.84375 41.421875 45.53125 
Q 43.3125 49.21875 43.3125 52.78125 
Q 43.3125 58.59375 39.234375 62.25 
Q 35.15625 65.921875 28.609375 65.921875 
Q 23.96875 65.921875 18.8125 64.3125 
Q 13.671875 62.703125 7.8125 59.421875 
L 7.8125 69.390625 
Q 13.765625 71.78125 18.9375 73 
Q 24.125 74.21875 28.421875 74.21875 
Q 39.75 74.21875 46.484375 68.546875 
Q 53.21875 62.890625 53.21875 53.421875 
Q 53.21875 48.921875 51.53125 44.890625 
Q 49.859375 40.875 45.40625 35.40625 
Q 44.1875 33.984375 37.640625 27.21875 
Q 31.109375 20.453125 19.1875 8.296875 
z
" id="DejaVuSans-50"/>
       <path d="M 31.78125 66.40625 
Q 24.171875 66.40625 20.328125 58.90625 
Q 16.5 51.421875 16.5 36.375 
Q 16.5 21.390625 20.328125 13.890625 
Q 24.171875 6.390625 31.78125 6.390625 
Q 39.453125 6.390625 43.28125 13.890625 
Q 47.125 21.390625 47.125 36.375 
Q 47.125 51.421875 43.28125 58.90625 
Q 39.453125 66.40625 31.78125 66.40625 
z
M 31.78125 74.21875 
Q 44.046875 74.21875 50.515625 64.515625 
Q 56.984375 54.828125 56.984375 36.375 
Q 56.984375 17.96875 50.515625 8.265625 
Q 44.046875 -1.421875 31.78125 -1.421875 
Q 19.53125 -1.421875 13.0625 8.265625 
Q 6.59375 17.96875 6.59375 36.375 
Q 6.59375 54.828125 13.0625 64.515625 
Q 19.53125 74.21875 31.78125 74.21875 
z
" id="DejaVuSans-48"/>
      </defs>
      <g transform="translate(277.580682 239.238437)scale(0.1 -0.1)">
       <use xlink:href="#DejaVuSans-50"/>
       <use x="63.623047" xlink:href="#DejaVuSans-48"/>
       <use x="127.246094" xlink:href="#DejaVuSans-48"/>
       <use x="190.869141" xlink:href="#DejaVuSans-52"/>
      </g>
     </g>
    </g>
    <g id="xtick_5">
     <g id="line2d_5">
      <g>
       <use style="stroke:#000000;stroke-width:0.8;" x="357.942045" xlink:href="#m5d01af7517" y="224.64"/>
      </g>
     </g>
     <g id="text_5">
      <!-- 2009 -->
      <g transform="translate(345.217045 239.238437)scale(0.1 -0.1)">
       <use xlink:href="#DejaVuSans-50"/>
       <use x="63.623047" xlink:href="#DejaVuSans-48"/>
       <use x="127.246094" xlink:href="#DejaVuSans-48"/>
       <use x="190.869141" xlink:href="#DejaVuSans-57"/>
      </g>
     </g>
    </g>
    <g id="xtick_6">
     <g id="line2d_6">
      <g>
       <use style="stroke:#000000;stroke-width:0.8;" x="425.578409" xlink:href="#m5d01af7517" y="224.64"/>
      </g>
     </g>
     <g id="text_6">
      <!-- 2014 -->
      <g transform="translate(412.853409 239.238437)scale(0.1 -0.1)">
       <use xlink:href="#DejaVuSans-50"/>
       <use x="63.623047" xlink:href="#DejaVuSans-48"/>
       <use x="127.246094" xlink:href="#DejaVuSans-49"/>
       <use x="190.869141" xlink:href="#DejaVuSans-52"/>
      </g>
     </g>
    </g>
    <g id="xtick_7">
     <g id="line2d_7">
      <defs>
       <path d="M 0 0 
L 0 2 
" id="mf7539ee7c9" style="stroke:#000000;stroke-width:0.6;"/>
      </defs>
      <g>
       <use style="stroke:#000000;stroke-width:0.6;" x="33.2875" xlink:href="#mf7539ee7c9" y="224.64"/>
      </g>
     </g>
    </g>
    <g id="xtick_8">
     <g id="line2d_8">
      <g>
       <use style="stroke:#000000;stroke-width:0.6;" x="46.814773" xlink:href="#mf7539ee7c9" y="224.64"/>
      </g>
     </g>
    </g>
    <g id="xtick_9">
     <g id="line2d_9">
      <g>
       <use style="stroke:#000000;stroke-width:0.6;" x="60.342045" xlink:href="#mf7539ee7c9" y="224.64"/>
      </g>
     </g>
    </g>
    <g id="xtick_10">
     <g id="line2d_10">
      <g>
       <use style="stroke:#000000;stroke-width:0.6;" x="73.869318" xlink:href="#mf7539ee7c9" y="224.64"/>
      </g>
     </g>
    </g>
    <g id="xtick_11">
     <g id="line2d_11">
      <g>
       <use style="stroke:#000000;stroke-width:0.6;" x="100.923864" xlink:href="#mf7539ee7c9" y="224.64"/>
      </g>
     </g>
    </g>
    <g id="xtick_12">
     <g id="line2d_12">
      <g>
       <use style="stroke:#000000;stroke-width:0.6;" x="114.451136" xlink:href="#mf7539ee7c9" y="224.64"/>
      </g>
     </g>
    </g>
    <g id="xtick_13">
     <g id="line2d_13">
      <g>
       <use style="stroke:#000000;stroke-width:0.6;" x="127.978409" xlink:href="#mf7539ee7c9" y="224.64"/>
      </g>
     </g>
    </g>
    <g id="xtick_14">
     <g id="line2d_14">
      <g>
       <use style="stroke:#000000;stroke-width:0.6;" x="141.505682" xlink:href="#mf7539ee7c9" y="224.64"/>
      </g>
     </g>
    </g>
    <g id="xtick_15">
     <g id="line2d_15">
      <g>
       <use style="stroke:#000000;stroke-width:0.6;" x="168.560227" xlink:href="#mf7539ee7c9" y="224.64"/>
      </g>
     </g>
    </g>
    <g id="xtick_16">
     <g id="line2d_16">
      <g>
       <use style="stroke:#000000;stroke-width:0.6;" x="182.0875" xlink:href="#mf7539ee7c9" y="224.64"/>
      </g>
     </g>
    </g>
    <g id="xtick_17">
     <g id="line2d_17">
      <g>
       <use style="stroke:#000000;stroke-width:0.6;" x="195.614773" xlink:href="#mf7539ee7c9" y="224.64"/>
      </g>
     </g>
    </g>
    <g id="xtick_18">
     <g id="line2d_18">
      <g>
       <use style="stroke:#000000;stroke-width:0.6;" x="209.142045" xlink:href="#mf7539ee7c9" y="224.64"/>
      </g>
     </g>
    </g>
    <g id="xtick_19">
     <g id="line2d_19">
      <g>
       <use style="stroke:#000000;stroke-width:0.6;" x="236.196591" xlink:href="#mf7539ee7c9" y="224.64"/>
      </g>
     </g>
    </g>
    <g id="xtick_20">
     <g id="line2d_20">
      <g>
       <use style="stroke:#000000;stroke-width:0.6;" x="249.723864" xlink:href="#mf7539ee7c9" y="224.64"/>
      </g>
     </g>
    </g>
    <g id="xtick_21">
     <g id="line2d_21">
      <g>
       <use style="stroke:#000000;stroke-width:0.6;" x="263.251136" xlink:href="#mf7539ee7c9" y="224.64"/>
      </g>
     </g>
    </g>
    <g id="xtick_22">
     <g id="line2d_22">
      <g>
       <use style="stroke:#000000;stroke-width:0.6;" x="276.778409" xlink:href="#mf7539ee7c9" y="224.64"/>
      </g>
     </g>
    </g>
    <g id="xtick_23">
     <g id="line2d_23">
      <g>
       <use style="stroke:#000000;stroke-width:0.6;" x="303.832955" xlink:href="#mf7539ee7c9" y="224.64"/>
      </g>
     </g>
    </g>
    <g id="xtick_24">
     <g id="line2d_24">
      <g>
       <use style="stroke:#000000;stroke-width:0.6;" x="317.360227" xlink:href="#mf7539ee7c9" y="224.64"/>
      </g>
     </g>
    </g>
    <g id="xtick_25">
     <g id="line2d_25">
      <g>
       <use style="stroke:#000000;stroke-width:0.6;" x="330.8875" xlink:href="#mf7539ee7c9" y="224.64"/>
      </g>
     </g>
    </g>
    <g id="xtick_26">
     <g id="line2d_26">
      <g>
       <use style="stroke:#000000;stroke-width:0.6;" x="344.414773" xlink:href="#mf7539ee7c9" y="224.64"/>
      </g>
     </g>
    </g>
    <g id="xtick_27">
     <g id="line2d_27">
      <g>
       <use style="stroke:#000000;stroke-width:0.6;" x="371.469318" xlink:href="#mf7539ee7c9" y="224.64"/>
      </g>
     </g>
    </g>
    <g id="xtick_28">
     <g id="line2d_28">
      <g>
       <use style="stroke:#000000;stroke-width:0.6;" x="384.996591" xlink:href="#mf7539ee7c9" y="224.64"/>
      </g>
     </g>
    </g>
    <g id="xtick_29">
     <g id="line2d_29">
      <g>
       <use style="stroke:#000000;stroke-width:0.6;" x="398.523864" xlink:href="#mf7539ee7c9" y="224.64"/>
      </g>
     </g>
    </g>
    <g id="xtick_30">
     <g id="line2d_30">
      <g>
       <use style="stroke:#000000;stroke-width:0.6;" x="412.051136" xlink:href="#mf7539ee7c9" y="224.64"/>
      </g>
     </g>
    </g>
    <g id="xtick_31">
     <g id="line2d_31">
      <g>
       <use style="stroke:#000000;stroke-width:0.6;" x="439.105682" xlink:href="#mf7539ee7c9" y="224.64"/>
      </g>
     </g>
    </g>
    <g id="xtick_32">
     <g id="line2d_32">
      <g>
       <use style="stroke:#000000;stroke-width:0.6;" x="452.632955" xlink:href="#mf7539ee7c9" y="224.64"/>
      </g>
     </g>
    </g>
    <g id="xtick_33">
     <g id="line2d_33">
      <g>
       <use style="stroke:#000000;stroke-width:0.6;" x="466.160227" xlink:href="#mf7539ee7c9" y="224.64"/>
      </g>
     </g>
    </g>
    <g id="xtick_34">
     <g id="line2d_34">
      <g>
       <use style="stroke:#000000;stroke-width:0.6;" x="479.6875" xlink:href="#mf7539ee7c9" y="224.64"/>
      </g>
     </g>
    </g>
    <g id="text_7">
     <!-- DATE -->
     <defs>
      <path d="M 19.671875 64.796875 
L 19.671875 8.109375 
L 31.59375 8.109375 
Q 46.6875 8.109375 53.6875 14.9375 
Q 60.6875 21.78125 60.6875 36.53125 
Q 60.6875 51.171875 53.6875 57.984375 
Q 46.6875 64.796875 31.59375 64.796875 
z
M 9.8125 72.90625 
L 30.078125 72.90625 
Q 51.265625 72.90625 61.171875 64.09375 
Q 71.09375 55.28125 71.09375 36.53125 
Q 71.09375 17.671875 61.125 8.828125 
Q 51.171875 0 30.078125 0 
L 9.8125 0 
z
" id="DejaVuSans-68"/>
      <path d="M 34.1875 63.1875 
L 20.796875 26.90625 
L 47.609375 26.90625 
z
M 28.609375 72.90625 
L 39.796875 72.90625 
L 67.578125 0 
L 57.328125 0 
L 50.6875 18.703125 
L 17.828125 18.703125 
L 11.1875 0 
L 0.78125 0 
z
" id="DejaVuSans-65"/>
      <path d="M -0.296875 72.90625 
L 61.375 72.90625 
L 61.375 64.59375 
L 35.5 64.59375 
L 35.5 0 
L 25.59375 0 
L 25.59375 64.59375 
L -0.296875 64.59375 
z
" id="DejaVuSans-84"/>
      <path d="M 9.8125 72.90625 
L 55.90625 72.90625 
L 55.90625 64.59375 
L 19.671875 64.59375 
L 19.671875 43.015625 
L 54.390625 43.015625 
L 54.390625 34.71875 
L 19.671875 34.71875 
L 19.671875 8.296875 
L 56.78125 8.296875 
L 56.78125 0 
L 9.8125 0 
z
" id="DejaVuSans-69"/>
     </defs>
     <g transform="translate(243.478906 252.916562)scale(0.1 -0.1)">
      <use xlink:href="#DejaVuSans-68"/>
      <use x="75.251953" xlink:href="#DejaVuSans-65"/>
      <use x="135.910156" xlink:href="#DejaVuSans-84"/>
      <use x="196.994141" xlink:href="#DejaVuSans-69"/>
     </g>
    </g>
   </g>
   <g id="matplotlib.axis_2">
    <g id="ytick_1">
     <g id="line2d_35">
      <defs>
       <path d="M 0 0 
L -3.5 0 
" id="m0c65315cc2" style="stroke:#000000;stroke-width:0.8;"/>
      </defs>
      <g>
       <use style="stroke:#000000;stroke-width:0.8;" x="33.2875" xlink:href="#m0c65315cc2" y="202.256961"/>
      </g>
     </g>
     <g id="text_8">
      <!-- 60 -->
      <defs>
       <path d="M 33.015625 40.375 
Q 26.375 40.375 22.484375 35.828125 
Q 18.609375 31.296875 18.609375 23.390625 
Q 18.609375 15.53125 22.484375 10.953125 
Q 26.375 6.390625 33.015625 6.390625 
Q 39.65625 6.390625 43.53125 10.953125 
Q 47.40625 15.53125 47.40625 23.390625 
Q 47.40625 31.296875 43.53125 35.828125 
Q 39.65625 40.375 33.015625 40.375 
z
M 52.59375 71.296875 
L 52.59375 62.3125 
Q 48.875 64.0625 45.09375 64.984375 
Q 41.3125 65.921875 37.59375 65.921875 
Q 27.828125 65.921875 22.671875 59.328125 
Q 17.53125 52.734375 16.796875 39.40625 
Q 19.671875 43.65625 24.015625 45.921875 
Q 28.375 48.1875 33.59375 48.1875 
Q 44.578125 48.1875 50.953125 41.515625 
Q 57.328125 34.859375 57.328125 23.390625 
Q 57.328125 12.15625 50.6875 5.359375 
Q 44.046875 -1.421875 33.015625 -1.421875 
Q 20.359375 -1.421875 13.671875 8.265625 
Q 6.984375 17.96875 6.984375 36.375 
Q 6.984375 53.65625 15.1875 63.9375 
Q 23.390625 74.21875 37.203125 74.21875 
Q 40.921875 74.21875 44.703125 73.484375 
Q 48.484375 72.75 52.59375 71.296875 
z
" id="DejaVuSans-54"/>
      </defs>
      <g transform="translate(13.5625 206.05618)scale(0.1 -0.1)">
       <use xlink:href="#DejaVuSans-54"/>
       <use x="63.623047" xlink:href="#DejaVuSans-48"/>
      </g>
     </g>
    </g>
    <g id="ytick_2">
     <g id="line2d_36">
      <g>
       <use style="stroke:#000000;stroke-width:0.8;" x="33.2875" xlink:href="#m0c65315cc2" y="175.576771"/>
      </g>
     </g>
     <g id="text_9">
      <!-- 70 -->
      <defs>
       <path d="M 8.203125 72.90625 
L 55.078125 72.90625 
L 55.078125 68.703125 
L 28.609375 0 
L 18.3125 0 
L 43.21875 64.59375 
L 8.203125 64.59375 
z
" id="DejaVuSans-55"/>
      </defs>
      <g transform="translate(13.5625 179.37599)scale(0.1 -0.1)">
       <use xlink:href="#DejaVuSans-55"/>
       <use x="63.623047" xlink:href="#DejaVuSans-48"/>
      </g>
     </g>
    </g>
    <g id="ytick_3">
     <g id="line2d_37">
      <g>
       <use style="stroke:#000000;stroke-width:0.8;" x="33.2875" xlink:href="#m0c65315cc2" y="148.896581"/>
      </g>
     </g>
     <g id="text_10">
      <!-- 80 -->
      <g transform="translate(13.5625 152.6958)scale(0.1 -0.1)">
       <use xlink:href="#DejaVuSans-56"/>
       <use x="63.623047" xlink:href="#DejaVuSans-48"/>
      </g>
     </g>
    </g>
    <g id="ytick_4">
     <g id="line2d_38">
      <g>
       <use style="stroke:#000000;stroke-width:0.8;" x="33.2875" xlink:href="#m0c65315cc2" y="122.216391"/>
      </g>
     </g>
     <g id="text_11">
      <!-- 90 -->
      <g transform="translate(13.5625 126.01561)scale(0.1 -0.1)">
       <use xlink:href="#DejaVuSans-57"/>
       <use x="63.623047" xlink:href="#DejaVuSans-48"/>
      </g>
     </g>
    </g>
    <g id="ytick_5">
     <g id="line2d_39">
      <g>
       <use style="stroke:#000000;stroke-width:0.8;" x="33.2875" xlink:href="#m0c65315cc2" y="95.536201"/>
      </g>
     </g>
     <g id="text_12">
      <!-- 100 -->
      <g transform="translate(7.2 99.33542)scale(0.1 -0.1)">
       <use xlink:href="#DejaVuSans-49"/>
       <use x="63.623047" xlink:href="#DejaVuSans-48"/>
       <use x="127.246094" xlink:href="#DejaVuSans-48"/>
      </g>
     </g>
    </g>
    <g id="ytick_6">
     <g id="line2d_40">
      <g>
       <use style="stroke:#000000;stroke-width:0.8;" x="33.2875" xlink:href="#m0c65315cc2" y="68.856011"/>
      </g>
     </g>
     <g id="text_13">
      <!-- 110 -->
      <g transform="translate(7.2 72.65523)scale(0.1 -0.1)">
       <use xlink:href="#DejaVuSans-49"/>
       <use x="63.623047" xlink:href="#DejaVuSans-49"/>
       <use x="127.246094" xlink:href="#DejaVuSans-48"/>
      </g>
     </g>
    </g>
    <g id="ytick_7">
     <g id="line2d_41">
      <g>
       <use style="stroke:#000000;stroke-width:0.8;" x="33.2875" xlink:href="#m0c65315cc2" y="42.175821"/>
      </g>
     </g>
     <g id="text_14">
      <!-- 120 -->
      <g transform="translate(7.2 45.97504)scale(0.1 -0.1)">
       <use xlink:href="#DejaVuSans-49"/>
       <use x="63.623047" xlink:href="#DejaVuSans-50"/>
       <use x="127.246094" xlink:href="#DejaVuSans-48"/>
      </g>
     </g>
    </g>
    <g id="ytick_8">
     <g id="line2d_42">
      <g>
       <use style="stroke:#000000;stroke-width:0.8;" x="33.2875" xlink:href="#m0c65315cc2" y="15.495631"/>
      </g>
     </g>
     <g id="text_15">
      <!-- 130 -->
      <defs>
       <path d="M 40.578125 39.3125 
Q 47.65625 37.796875 51.625 33 
Q 55.609375 28.21875 55.609375 21.1875 
Q 55.609375 10.40625 48.1875 4.484375 
Q 40.765625 -1.421875 27.09375 -1.421875 
Q 22.515625 -1.421875 17.65625 -0.515625 
Q 12.796875 0.390625 7.625 2.203125 
L 7.625 11.71875 
Q 11.71875 9.328125 16.59375 8.109375 
Q 21.484375 6.890625 26.8125 6.890625 
Q 36.078125 6.890625 40.9375 10.546875 
Q 45.796875 14.203125 45.796875 21.1875 
Q 45.796875 27.640625 41.28125 31.265625 
Q 36.765625 34.90625 28.71875 34.90625 
L 20.21875 34.90625 
L 20.21875 43.015625 
L 29.109375 43.015625 
Q 36.375 43.015625 40.234375 45.921875 
Q 44.09375 48.828125 44.09375 54.296875 
Q 44.09375 59.90625 40.109375 62.90625 
Q 36.140625 65.921875 28.71875 65.921875 
Q 24.65625 65.921875 20.015625 65.03125 
Q 15.375 64.15625 9.8125 62.3125 
L 9.8125 71.09375 
Q 15.4375 72.65625 20.34375 73.4375 
Q 25.25 74.21875 29.59375 74.21875 
Q 40.828125 74.21875 47.359375 69.109375 
Q 53.90625 64.015625 53.90625 55.328125 
Q 53.90625 49.265625 50.4375 45.09375 
Q 46.96875 40.921875 40.578125 39.3125 
z
" id="DejaVuSans-51"/>
      </defs>
      <g transform="translate(7.2 19.29485)scale(0.1 -0.1)">
       <use xlink:href="#DejaVuSans-49"/>
       <use x="63.623047" xlink:href="#DejaVuSans-51"/>
       <use x="127.246094" xlink:href="#DejaVuSans-48"/>
      </g>
     </g>
    </g>
   </g>
   <g id="line2d_43">
    <path clip-path="url(#pa1185b8dc3)" d="M 33.2875 168.89285 
L 34.414773 173.783863 
L 35.542045 195.719781 
L 36.669318 209.003314 
L 37.796591 214.756364 
L 38.923864 207.351811 
L 40.051136 195.266218 
L 41.178409 193.589902 
L 42.305682 200.697238 
L 43.432955 212.087544 
L 44.560227 207.591665 
L 45.6875 179.00651 
L 46.814773 166.757101 
L 50.196591 210.173241 
L 51.323864 213.426089 
L 52.451136 202.522429 
L 53.578409 186.874498 
L 54.705682 190.299967 
L 56.960227 208.841099 
L 58.0875 204.013318 
L 59.214773 180.55156 
L 60.342045 165.397745 
L 61.469318 175.411354 
L 62.596591 187.289375 
L 63.723864 201.833814 
L 64.851136 205.262752 
L 67.105682 178.593234 
L 68.232955 175.398281 
L 69.360227 191.277796 
L 70.4875 201.246049 
L 71.614773 195.682162 
L 72.742045 174.035457 
L 73.869318 149.242623 
L 74.996591 159.135905 
L 76.123864 174.795575 
L 77.251136 193.616849 
L 78.378409 198.504393 
L 80.632955 167.621806 
L 81.760227 160.194308 
L 82.8875 182.206265 
L 84.014773 193.497321 
L 85.142045 188.629254 
L 86.269318 165.269947 
L 87.396591 154.449263 
L 88.523864 157.748535 
L 89.651136 166.632771 
L 90.778409 188.628454 
L 91.905682 192.414106 
L 93.032955 179.652971 
L 94.160227 164.824388 
L 95.2875 162.117149 
L 96.414773 177.430244 
L 97.542045 186.586352 
L 98.669318 178.056428 
L 99.796591 137.704509 
L 100.923864 137.264552 
L 102.051136 156.440138 
L 103.178409 167.048715 
L 104.305682 182.838852 
L 105.432955 186.724288 
L 107.6875 157.930494 
L 108.814773 156.619963 
L 109.942045 167.409965 
L 111.069318 182.416238 
L 112.196591 179.401377 
L 114.451136 132.831372 
L 115.578409 155.413751 
L 116.705682 166.598887 
L 117.832955 183.180626 
L 118.960227 178.735172 
L 120.0875 162.650753 
L 121.214773 148.648989 
L 122.342045 151.136117 
L 123.469318 166.040471 
L 124.596591 178.901657 
L 125.723864 168.862435 
L 126.851136 150.258872 
L 127.978409 134.794767 
L 129.105682 148.458226 
L 130.232955 163.497315 
L 131.360227 176.526319 
L 132.4875 183.104854 
L 133.614773 172.354338 
L 134.742045 155.545018 
L 135.869318 158.134864 
L 136.996591 169.295988 
L 138.123864 178.168485 
L 139.251136 166.240839 
L 140.378409 136.848074 
L 141.505682 127.695435 
L 142.632955 136.74082 
L 143.760227 150.298092 
L 144.8875 172.754541 
L 146.014773 181.776714 
L 147.142045 164.02505 
L 148.269318 143.280935 
L 149.396591 143.399128 
L 150.523864 163.295613 
L 151.651136 176.427869 
L 152.778409 163.759582 
L 155.032955 111.174528 
L 156.160227 129.791698 
L 158.414773 172.97572 
L 159.542045 177.219204 
L 160.669318 154.277709 
L 161.796591 140.153483 
L 162.923864 143.861496 
L 164.051136 160.415487 
L 165.178409 172.198793 
L 166.305682 161.580877 
L 167.432955 136.05087 
L 168.560227 115.671207 
L 169.6875 129.144436 
L 170.814773 145.518603 
L 171.942045 165.393743 
L 173.069318 166.857152 
L 174.196591 153.425277 
L 175.323864 132.930889 
L 176.451136 123.425804 
L 177.578409 152.889272 
L 178.705682 165.687492 
L 179.832955 149.818916 
L 180.960227 120.015009 
L 182.0875 98.275723 
L 184.342045 130.392269 
L 185.469318 156.309939 
L 186.596591 157.747468 
L 187.723864 143.745704 
L 188.851136 132.993587 
L 189.978409 131.404515 
L 191.105682 151.052608 
L 192.232955 163.066164 
L 193.360227 146.031129 
L 194.4875 120.921068 
L 195.614773 99.641482 
L 196.742045 122.80469 
L 198.996591 159.174858 
L 200.123864 165.312636 
L 201.251136 149.5249 
L 202.378409 126.346752 
L 203.505682 128.131923 
L 204.632955 143.72436 
L 205.760227 155.559425 
L 206.8875 143.441016 
L 208.014773 116.610884 
L 209.142045 109.431244 
L 210.269318 128.032673 
L 211.396591 131.407984 
L 212.523864 157.56204 
L 213.651136 154.151778 
L 214.778409 131.666782 
L 215.905682 111.976801 
L 217.032955 112.795616 
L 218.160227 128.775983 
L 219.2875 148.650056 
L 220.414773 145.068241 
L 222.669318 89.840514 
L 223.796591 119.060392 
L 224.923864 120.247127 
L 226.051136 147.515615 
L 227.178409 150.527541 
L 228.305682 127.971042 
L 229.432955 102.232129 
L 230.560227 105.099182 
L 231.6875 129.620678 
L 232.814773 147.186648 
L 233.942045 143.02027 
L 235.069318 110.180157 
L 236.196591 89.586252 
L 237.323864 110.746845 
L 239.578409 145.047964 
L 240.705682 137.010023 
L 241.832955 119.440051 
L 242.960227 106.21975 
L 244.0875 97.215986 
L 246.342045 140.516867 
L 247.469318 127.443041 
L 248.596591 88.98408 
L 249.723864 71.235618 
L 250.851136 103.08216 
L 251.978409 114.670433 
L 253.105682 141.119306 
L 254.232955 142.102471 
L 255.360227 121.16119 
L 256.4875 106.010844 
L 257.614773 96.727739 
L 258.742045 126.802716 
L 259.869318 141.730282 
L 260.996591 141.074217 
L 263.251136 87.544151 
L 264.378409 108.322682 
L 265.505682 113.530389 
L 266.632955 133.435411 
L 267.760227 134.929235 
L 268.8875 113.706478 
L 270.014773 89.151632 
L 271.142045 91.189198 
L 272.269318 113.388183 
L 273.396591 130.486717 
L 274.523864 126.018585 
L 275.651136 93.400986 
L 276.778409 68.3739 
L 277.905682 85.28754 
L 280.160227 135.391069 
L 281.2875 134.315057 
L 282.414773 119.345336 
L 283.542045 89.613199 
L 284.669318 83.614959 
L 285.796591 114.443118 
L 286.923864 131.541918 
L 288.051136 126.022321 
L 289.178409 86.083944 
L 290.305682 58.924044 
L 291.432955 79.103872 
L 292.560227 107.801352 
L 293.6875 130.958689 
L 294.814773 124.803836 
L 297.069318 90.747641 
L 298.196591 94.995928 
L 300.451136 128.816537 
L 301.578409 123.24518 
L 302.705682 80.258324 
L 303.832955 65.757374 
L 304.960227 90.788462 
L 306.0875 98.320279 
L 307.214773 131.614222 
L 308.342045 129.624413 
L 309.469318 96.849934 
L 310.596591 73.257976 
L 311.723864 70.22684 
L 313.978409 122.86552 
L 315.105682 120.992571 
L 316.232955 73.589878 
L 317.360227 83.603753 
L 319.614773 99.800496 
L 320.742045 128.861626 
L 321.869318 122.157161 
L 324.123864 66.320593 
L 325.251136 64.802757 
L 326.378409 106.840064 
L 327.505682 121.219086 
L 328.632955 115.928938 
L 329.760227 87.356055 
L 330.8875 63.366296 
L 332.014773 63.947123 
L 333.142045 97.690627 
L 334.269318 120.034752 
L 335.396591 116.723741 
L 336.523864 92.954626 
L 338.778409 57.907529 
L 339.905682 91.449864 
L 341.032955 114.194192 
L 342.160227 111.7775 
L 343.2875 77.519603 
L 344.414773 55.961209 
L 345.542045 73.564265 
L 346.669318 94.366008 
L 347.796591 119.563313 
L 348.923864 118.921922 
L 350.051136 84.975915 
L 351.178409 66.820046 
L 352.305682 75.348636 
L 353.432955 101.62382 
L 354.560227 119.553975 
L 355.6875 112.062712 
L 356.814773 70.39786 
L 357.942045 50.629173 
L 359.069318 83.743024 
L 360.196591 101.264705 
L 361.323864 127.026029 
L 362.451136 128.788789 
L 363.578409 102.903402 
L 364.705682 85.107982 
L 365.832955 80.198827 
L 366.960227 109.190322 
L 368.0875 124.090141 
L 369.214773 123.927926 
L 370.342045 67.030019 
L 371.469318 44.799551 
L 372.596591 67.433957 
L 374.851136 132.088062 
L 375.978409 119.98486 
L 377.105682 83.92018 
L 378.232955 61.367949 
L 379.360227 61.115021 
L 380.4875 95.213638 
L 381.614773 125.084245 
L 382.742045 114.812639 
L 383.869318 57.31256 
L 384.996591 43.541847 
L 386.123864 75.858761 
L 387.251136 97.929948 
L 388.378409 123.928459 
L 389.505682 122.030164 
L 391.760227 56.29818 
L 392.8875 59.262349 
L 394.014773 96.94705 
L 395.142045 121.264976 
L 396.269318 112.052573 
L 397.396591 75.976421 
L 398.523864 63.614421 
L 399.651136 86.55058 
L 400.778409 112.672354 
L 401.905682 128.735429 
L 403.032955 114.851859 
L 404.160227 92.49466 
L 405.2875 60.756706 
L 406.414773 69.229267 
L 406.414773 69.229267 
" style="fill:none;stroke:#1f77b4;stroke-linecap:square;stroke-width:1.5;"/>
   </g>
   <g id="line2d_44">
    <path clip-path="url(#pa1185b8dc3)" d="M 407.542045 104.225673 
L 408.669318 121.20121 
L 409.796591 110.632653 
L 410.923864 81.469872 
L 412.051136 54.179239 
L 413.178409 77.569761 
L 414.305682 87.546018 
L 415.432955 119.523827 
L 416.560227 119.646022 
L 417.6875 93.680061 
L 418.814773 68.461145 
L 419.942045 73.723545 
L 421.069318 97.454774 
L 422.196591 117.448375 
L 423.323864 102.779073 
L 424.451136 59.589448 
L 425.578409 30.823667 
L 426.705682 61.169182 
L 427.832955 82.82816 
L 428.960227 121.45147 
L 430.0875 116.522839 
L 431.214773 90.525662 
L 432.342045 72.725439 
L 433.469318 73.674454 
L 434.596591 94.423104 
L 435.723864 115.856635 
L 436.851136 96.327803 
L 437.978409 70.59636 
L 439.105682 41.456524 
L 440.232955 51.837252 
L 441.360227 83.608556 
L 442.4875 122.893801 
L 443.614773 119.300247 
L 444.742045 88.467285 
L 445.869318 64.492733 
L 446.996591 67.27521 
L 448.123864 90.412538 
L 449.251136 117.9585 
L 450.378409 114.044783 
L 451.505682 86.94438 
L 452.632955 49.956565 
L 453.760227 77.743716 
L 454.8875 107.929683 
L 456.014773 124.016237 
L 457.142045 120.250328 
L 458.269318 84.764075 
L 459.396591 56.744006 
L 460.523864 54.139485 
L 461.651136 88.162597 
L 462.778409 118.249848 
L 463.905682 114.505817 
L 465.032955 61.4672 
L 466.160227 55.914785 
L 467.2875 96.896624 
L 468.414773 92.762529 
L 469.542045 126.610619 
L 470.669318 116.665578 
L 471.796591 89.791423 
L 472.923864 63.109632 
L 474.051136 71.70759 
L 475.178409 99.230341 
L 476.305682 112.574971 
L 477.432955 102.644071 
L 478.560227 56.25976 
L 479.6875 17.083636 
" style="fill:none;stroke:#ff7f0e;stroke-linecap:square;stroke-width:1.5;"/>
   </g>
   <g id="line2d_45">
    <path clip-path="url(#pa1185b8dc3)" d="M 407.542045 69.229267 
L 408.669318 69.229267 
L 409.796591 69.229267 
L 410.923864 69.229267 
L 412.051136 69.229267 
L 413.178409 69.229267 
L 414.305682 69.229267 
L 415.432955 69.229267 
L 416.560227 69.229267 
L 417.6875 69.229267 
L 418.814773 69.229267 
L 419.942045 69.229267 
L 421.069318 69.229267 
L 422.196591 69.229267 
L 423.323864 69.229267 
L 424.451136 69.229267 
L 425.578409 69.229267 
L 426.705682 69.229267 
L 427.832955 69.229267 
L 428.960227 69.229267 
L 430.0875 69.229267 
L 431.214773 69.229267 
L 432.342045 69.229267 
L 433.469318 69.229267 
L 434.596591 69.229267 
L 435.723864 69.229267 
L 436.851136 69.229267 
L 437.978409 69.229267 
L 439.105682 69.229267 
L 440.232955 69.229267 
L 441.360227 69.229267 
L 442.4875 69.229267 
L 443.614773 69.229267 
L 444.742045 69.229267 
L 445.869318 69.229267 
L 446.996591 69.229267 
L 448.123864 69.229267 
L 449.251136 69.229267 
L 450.378409 69.229267 
L 451.505682 69.229267 
L 452.632955 69.229267 
L 453.760227 69.229267 
L 454.8875 69.229267 
L 456.014773 69.229267 
L 457.142045 69.229267 
L 458.269318 69.229267 
L 459.396591 69.229267 
L 460.523864 69.229267 
L 461.651136 69.229267 
L 462.778409 69.229267 
L 463.905682 69.229267 
L 465.032955 69.229267 
L 466.160227 69.229267 
L 467.2875 69.229267 
L 468.414773 69.229267 
L 469.542045 69.229267 
L 470.669318 69.229267 
L 471.796591 69.229267 
L 472.923864 69.229267 
L 474.051136 69.229267 
L 475.178409 69.229267 
L 476.305682 69.229267 
L 477.432955 69.229267 
L 478.560227 69.229267 
L 479.6875 69.229267 
" style="fill:none;stroke:#2ca02c;stroke-linecap:square;stroke-width:1.5;"/>
   </g>
   <g id="patch_3">
    <path d="M 33.2875 224.64 
L 33.2875 7.2 
" style="fill:none;stroke:#000000;stroke-linecap:square;stroke-linejoin:miter;stroke-width:0.8;"/>
   </g>
   <g id="patch_4">
    <path d="M 479.6875 224.64 
L 479.6875 7.2 
" style="fill:none;stroke:#000000;stroke-linecap:square;stroke-linejoin:miter;stroke-width:0.8;"/>
   </g>
   <g id="patch_5">
    <path d="M 33.2875 224.64 
L 479.6875 224.64 
" style="fill:none;stroke:#000000;stroke-linecap:square;stroke-linejoin:miter;stroke-width:0.8;"/>
   </g>
   <g id="patch_6">
    <path d="M 33.2875 7.2 
L 479.6875 7.2 
" style="fill:none;stroke:#000000;stroke-linecap:square;stroke-linejoin:miter;stroke-width:0.8;"/>
   </g>
   <g id="legend_1">
    <g id="patch_7">
     <path d="M 40.2875 59.234375 
L 100.746875 59.234375 
Q 102.746875 59.234375 102.746875 57.234375 
L 102.746875 14.2 
Q 102.746875 12.2 100.746875 12.2 
L 40.2875 12.2 
Q 38.2875 12.2 38.2875 14.2 
L 38.2875 57.234375 
Q 38.2875 59.234375 40.2875 59.234375 
z
" style="fill:#ffffff;opacity:0.8;stroke:#cccccc;stroke-linejoin:miter;"/>
    </g>
    <g id="line2d_46">
     <path d="M 42.2875 20.298437 
L 62.2875 20.298437 
" style="fill:none;stroke:#1f77b4;stroke-linecap:square;stroke-width:1.5;"/>
    </g>
    <g id="line2d_47"/>
    <g id="text_16">
     <!-- Train -->
     <defs>
      <path d="M 41.109375 46.296875 
Q 39.59375 47.171875 37.8125 47.578125 
Q 36.03125 48 33.890625 48 
Q 26.265625 48 22.1875 43.046875 
Q 18.109375 38.09375 18.109375 28.8125 
L 18.109375 0 
L 9.078125 0 
L 9.078125 54.6875 
L 18.109375 54.6875 
L 18.109375 46.1875 
Q 20.953125 51.171875 25.484375 53.578125 
Q 30.03125 56 36.53125 56 
Q 37.453125 56 38.578125 55.875 
Q 39.703125 55.765625 41.0625 55.515625 
z
" id="DejaVuSans-114"/>
      <path d="M 34.28125 27.484375 
Q 23.390625 27.484375 19.1875 25 
Q 14.984375 22.515625 14.984375 16.5 
Q 14.984375 11.71875 18.140625 8.90625 
Q 21.296875 6.109375 26.703125 6.109375 
Q 34.1875 6.109375 38.703125 11.40625 
Q 43.21875 16.703125 43.21875 25.484375 
L 43.21875 27.484375 
z
M 52.203125 31.203125 
L 52.203125 0 
L 43.21875 0 
L 43.21875 8.296875 
Q 40.140625 3.328125 35.546875 0.953125 
Q 30.953125 -1.421875 24.3125 -1.421875 
Q 15.921875 -1.421875 10.953125 3.296875 
Q 6 8.015625 6 15.921875 
Q 6 25.140625 12.171875 29.828125 
Q 18.359375 34.515625 30.609375 34.515625 
L 43.21875 34.515625 
L 43.21875 35.40625 
Q 43.21875 41.609375 39.140625 45 
Q 35.0625 48.390625 27.6875 48.390625 
Q 23 48.390625 18.546875 47.265625 
Q 14.109375 46.140625 10.015625 43.890625 
L 10.015625 52.203125 
Q 14.9375 54.109375 19.578125 55.046875 
Q 24.21875 56 28.609375 56 
Q 40.484375 56 46.34375 49.84375 
Q 52.203125 43.703125 52.203125 31.203125 
z
" id="DejaVuSans-97"/>
      <path d="M 9.421875 54.6875 
L 18.40625 54.6875 
L 18.40625 0 
L 9.421875 0 
z
M 9.421875 75.984375 
L 18.40625 75.984375 
L 18.40625 64.59375 
L 9.421875 64.59375 
z
" id="DejaVuSans-105"/>
      <path d="M 54.890625 33.015625 
L 54.890625 0 
L 45.90625 0 
L 45.90625 32.71875 
Q 45.90625 40.484375 42.875 44.328125 
Q 39.84375 48.1875 33.796875 48.1875 
Q 26.515625 48.1875 22.3125 43.546875 
Q 18.109375 38.921875 18.109375 30.90625 
L 18.109375 0 
L 9.078125 0 
L 9.078125 54.6875 
L 18.109375 54.6875 
L 18.109375 46.1875 
Q 21.34375 51.125 25.703125 53.5625 
Q 30.078125 56 35.796875 56 
Q 45.21875 56 50.046875 50.171875 
Q 54.890625 44.34375 54.890625 33.015625 
z
" id="DejaVuSans-110"/>
     </defs>
     <g transform="translate(70.2875 23.798437)scale(0.1 -0.1)">
      <use xlink:href="#DejaVuSans-84"/>
      <use x="46.333984" xlink:href="#DejaVuSans-114"/>
      <use x="87.447266" xlink:href="#DejaVuSans-97"/>
      <use x="148.726562" xlink:href="#DejaVuSans-105"/>
      <use x="176.509766" xlink:href="#DejaVuSans-110"/>
     </g>
    </g>
    <g id="line2d_48">
     <path d="M 42.2875 34.976562 
L 62.2875 34.976562 
" style="fill:none;stroke:#ff7f0e;stroke-linecap:square;stroke-width:1.5;"/>
    </g>
    <g id="line2d_49"/>
    <g id="text_17">
     <!-- Valid -->
     <defs>
      <path d="M 28.609375 0 
L 0.78125 72.90625 
L 11.078125 72.90625 
L 34.1875 11.53125 
L 57.328125 72.90625 
L 67.578125 72.90625 
L 39.796875 0 
z
" id="DejaVuSans-86"/>
      <path d="M 9.421875 75.984375 
L 18.40625 75.984375 
L 18.40625 0 
L 9.421875 0 
z
" id="DejaVuSans-108"/>
      <path d="M 45.40625 46.390625 
L 45.40625 75.984375 
L 54.390625 75.984375 
L 54.390625 0 
L 45.40625 0 
L 45.40625 8.203125 
Q 42.578125 3.328125 38.25 0.953125 
Q 33.9375 -1.421875 27.875 -1.421875 
Q 17.96875 -1.421875 11.734375 6.484375 
Q 5.515625 14.40625 5.515625 27.296875 
Q 5.515625 40.1875 11.734375 48.09375 
Q 17.96875 56 27.875 56 
Q 33.9375 56 38.25 53.625 
Q 42.578125 51.265625 45.40625 46.390625 
z
M 14.796875 27.296875 
Q 14.796875 17.390625 18.875 11.75 
Q 22.953125 6.109375 30.078125 6.109375 
Q 37.203125 6.109375 41.296875 11.75 
Q 45.40625 17.390625 45.40625 27.296875 
Q 45.40625 37.203125 41.296875 42.84375 
Q 37.203125 48.484375 30.078125 48.484375 
Q 22.953125 48.484375 18.875 42.84375 
Q 14.796875 37.203125 14.796875 27.296875 
z
" id="DejaVuSans-100"/>
     </defs>
     <g transform="translate(70.2875 38.476562)scale(0.1 -0.1)">
      <use xlink:href="#DejaVuSans-86"/>
      <use x="60.658203" xlink:href="#DejaVuSans-97"/>
      <use x="121.9375" xlink:href="#DejaVuSans-108"/>
      <use x="149.720703" xlink:href="#DejaVuSans-105"/>
      <use x="177.503906" xlink:href="#DejaVuSans-100"/>
     </g>
    </g>
    <g id="line2d_50">
     <path d="M 42.2875 49.654687 
L 62.2875 49.654687 
" style="fill:none;stroke:#2ca02c;stroke-linecap:square;stroke-width:1.5;"/>
    </g>
    <g id="line2d_51"/>
    <g id="text_18">
     <!-- Naive -->
     <defs>
      <path d="M 9.8125 72.90625 
L 23.09375 72.90625 
L 55.421875 11.921875 
L 55.421875 72.90625 
L 64.984375 72.90625 
L 64.984375 0 
L 51.703125 0 
L 19.390625 60.984375 
L 19.390625 0 
L 9.8125 0 
z
" id="DejaVuSans-78"/>
      <path d="M 2.984375 54.6875 
L 12.5 54.6875 
L 29.59375 8.796875 
L 46.6875 54.6875 
L 56.203125 54.6875 
L 35.6875 0 
L 23.484375 0 
z
" id="DejaVuSans-118"/>
      <path d="M 56.203125 29.59375 
L 56.203125 25.203125 
L 14.890625 25.203125 
Q 15.484375 15.921875 20.484375 11.0625 
Q 25.484375 6.203125 34.421875 6.203125 
Q 39.59375 6.203125 44.453125 7.46875 
Q 49.3125 8.734375 54.109375 11.28125 
L 54.109375 2.78125 
Q 49.265625 0.734375 44.1875 -0.34375 
Q 39.109375 -1.421875 33.890625 -1.421875 
Q 20.796875 -1.421875 13.15625 6.1875 
Q 5.515625 13.8125 5.515625 26.8125 
Q 5.515625 40.234375 12.765625 48.109375 
Q 20.015625 56 32.328125 56 
Q 43.359375 56 49.78125 48.890625 
Q 56.203125 41.796875 56.203125 29.59375 
z
M 47.21875 32.234375 
Q 47.125 39.59375 43.09375 43.984375 
Q 39.0625 48.390625 32.421875 48.390625 
Q 24.90625 48.390625 20.390625 44.140625 
Q 15.875 39.890625 15.1875 32.171875 
z
" id="DejaVuSans-101"/>
     </defs>
     <g transform="translate(70.2875 53.154687)scale(0.1 -0.1)">
      <use xlink:href="#DejaVuSans-78"/>
      <use x="74.804688" xlink:href="#DejaVuSans-97"/>
      <use x="136.083984" xlink:href="#DejaVuSans-105"/>
      <use x="163.867188" xlink:href="#DejaVuSans-118"/>
      <use x="223.046875" xlink:href="#DejaVuSans-101"/>
     </g>
    </g>
   </g>
  </g>
 </g>
 <defs>
  <clipPath id="pa1185b8dc3">
   <rect height="217.44" width="446.4" x="33.2875" y="7.2"/>
  </clipPath>
 </defs>
</svg>
